<mxfile host="Electron" modified="2023-11-12T15:11:04.075Z" agent="Mozilla/5.0 (Windows NT 10.0; Win64; x64) AppleWebKit/537.36 (KHTML, like Gecko) draw.io/22.0.3 Chrome/114.0.5735.289 Electron/25.8.4 Safari/537.36" etag="KvcLTcUcIR7Oq7wEGizm" version="22.0.3" type="device">
  <diagram name="Page-1" id="03018318-947c-dd8e-b7a3-06fadd420f32">
    <mxGraphModel dx="1098" dy="988" grid="1" gridSize="10" guides="1" tooltips="1" connect="1" arrows="1" fold="1" page="1" pageScale="1" pageWidth="1100" pageHeight="850" background="#ffffff" math="0" shadow="0">
      <root>
        <mxCell id="0" />
        <mxCell id="1" parent="0" />
        <mxCell id="677b7b8949515195-1" value="" style="whiteSpace=wrap;html=1;rounded=0;shadow=0;labelBackgroundColor=none;strokeColor=#000000;strokeWidth=1;fillColor=none;fontFamily=Verdana;fontSize=12;fontColor=#000000;align=center;comic=1;labelPadding=0;" parent="1" vertex="1">
          <mxGeometry x="20" y="20" width="1060" height="810" as="geometry" />
        </mxCell>
        <mxCell id="677b7b8949515195-2" value="" style="whiteSpace=wrap;html=1;rounded=0;shadow=0;labelBackgroundColor=none;strokeWidth=1;fontFamily=Verdana;fontSize=28;align=center;comic=1;" parent="1" vertex="1">
          <mxGeometry x="30" y="30" width="330" height="110" as="geometry" />
        </mxCell>
        <mxCell id="677b7b8949515195-3" value="Search" style="strokeWidth=1;shadow=0;dashed=0;align=center;html=1;shape=mxgraph.mockup.forms.searchBox;strokeColor=#999999;mainText=;strokeColor2=#008cff;fontColor=#666666;fontSize=17;align=left;spacingLeft=3;rounded=0;labelBackgroundColor=none;comic=1;" parent="1" vertex="1">
          <mxGeometry x="840" y="95" width="220" height="30" as="geometry" />
        </mxCell>
        <mxCell id="677b7b8949515195-7" value="Usuario1" style="text;html=1;points=[];align=left;verticalAlign=top;spacingTop=-4;fontSize=14;fontFamily=Verdana" parent="1" vertex="1">
          <mxGeometry x="1000" y="40" width="60" height="20" as="geometry" />
        </mxCell>
        <mxCell id="677b7b8949515195-8" value="" style="whiteSpace=wrap;html=1;rounded=0;shadow=0;labelBackgroundColor=none;strokeWidth=1;fillColor=none;fontFamily=Verdana;fontSize=12;align=center;comic=1;" parent="1" vertex="1">
          <mxGeometry x="30" y="270" width="200" height="550" as="geometry" />
        </mxCell>
        <mxCell id="677b7b8949515195-9" value="" style="line;strokeWidth=1;html=1;rounded=0;shadow=0;labelBackgroundColor=none;fillColor=none;fontFamily=Verdana;fontSize=14;fontColor=#000000;align=center;comic=1;" parent="1" vertex="1">
          <mxGeometry x="20" y="140" width="1060" height="10" as="geometry" />
        </mxCell>
        <mxCell id="677b7b8949515195-10" value="" style="rounded=0;shadow=0;labelBackgroundColor=none;strokeWidth=1;fillColor=none;fontFamily=Verdana;fontSize=12;align=center;comic=1;whiteSpace=wrap;html=1;" parent="1" vertex="1">
          <mxGeometry x="30" y="160" width="1040" height="50" as="geometry" />
        </mxCell>
        <mxCell id="677b7b8949515195-11" value="Por usuario" style="text;html=1;points=[];align=left;verticalAlign=top;spacingTop=-4;fontSize=14;fontFamily=Verdana;shadow=0;fontStyle=3" parent="1" vertex="1">
          <mxGeometry x="330" y="175" width="60" height="20" as="geometry" />
        </mxCell>
        <mxCell id="677b7b8949515195-12" value="Por producto" style="text;html=1;points=[];align=left;verticalAlign=top;spacingTop=-4;fontSize=14;fontFamily=Verdana" parent="1" vertex="1">
          <mxGeometry x="477" y="175" width="60" height="20" as="geometry" />
        </mxCell>
        <mxCell id="677b7b8949515195-13" value="Por texto" style="text;html=1;points=[];align=left;verticalAlign=top;spacingTop=-4;fontSize=14;fontFamily=Verdana" parent="1" vertex="1">
          <mxGeometry x="623" y="175" width="60" height="20" as="geometry" />
        </mxCell>
        <mxCell id="677b7b8949515195-14" value="Estadísticas" style="text;html=1;points=[];align=left;verticalAlign=top;spacingTop=-4;fontSize=14;fontFamily=Verdana" parent="1" vertex="1">
          <mxGeometry x="770" y="175" width="60" height="20" as="geometry" />
        </mxCell>
        <mxCell id="677b7b8949515195-15" value="&lt;div style=&quot;text-align: justify&quot;&gt;Texto de la reseña&lt;/div&gt;" style="whiteSpace=wrap;html=1;rounded=0;shadow=0;labelBackgroundColor=none;strokeWidth=1;fillColor=none;fontFamily=Verdana;fontSize=12;align=center;verticalAlign=top;spacing=10;comic=1;" parent="1" vertex="1">
          <mxGeometry x="250" y="640" width="580" height="180" as="geometry" />
        </mxCell>
        <mxCell id="677b7b8949515195-25" value="" style="whiteSpace=wrap;html=1;rounded=0;shadow=0;labelBackgroundColor=none;strokeWidth=1;fillColor=none;fontFamily=Verdana;fontSize=12;align=center;comic=1;" parent="1" vertex="1">
          <mxGeometry x="840" y="230" width="230" height="400" as="geometry" />
        </mxCell>
        <mxCell id="677b7b8949515195-26" value="" style="whiteSpace=wrap;html=1;rounded=0;shadow=0;labelBackgroundColor=none;strokeWidth=1;fillColor=none;fontFamily=Verdana;fontSize=12;align=center;comic=1;" parent="1" vertex="1">
          <mxGeometry x="840" y="640" width="230" height="180" as="geometry" />
        </mxCell>
        <mxCell id="677b7b8949515195-27" value="Usuario 1" style="text;html=1;points=[];align=left;verticalAlign=top;spacingTop=-4;fontSize=14;fontFamily=Verdana;fontStyle=1" parent="1" vertex="1">
          <mxGeometry x="40" y="283" width="170" height="20" as="geometry" />
        </mxCell>
        <mxCell id="677b7b8949515195-28" value="Usuario 2" style="text;html=1;points=[];align=left;verticalAlign=top;spacingTop=-4;fontSize=14;fontFamily=Verdana" parent="1" vertex="1">
          <mxGeometry x="40" y="319" width="170" height="20" as="geometry" />
        </mxCell>
        <mxCell id="677b7b8949515195-29" value="Usuario 3" style="text;html=1;points=[];align=left;verticalAlign=top;spacingTop=-4;fontSize=14;fontFamily=Verdana" parent="1" vertex="1">
          <mxGeometry x="40" y="354" width="170" height="20" as="geometry" />
        </mxCell>
        <mxCell id="677b7b8949515195-30" value="Usuario 4" style="text;html=1;points=[];align=left;verticalAlign=top;spacingTop=-4;fontSize=14;fontFamily=Verdana" parent="1" vertex="1">
          <mxGeometry x="40" y="390" width="170" height="20" as="geometry" />
        </mxCell>
        <mxCell id="677b7b8949515195-31" value="Usuario 7" style="text;html=1;points=[];align=left;verticalAlign=top;spacingTop=-4;fontSize=14;fontFamily=Verdana" parent="1" vertex="1">
          <mxGeometry x="40" y="497" width="170" height="20" as="geometry" />
        </mxCell>
        <mxCell id="677b7b8949515195-32" value="Usuario 8" style="text;html=1;points=[];align=left;verticalAlign=top;spacingTop=-4;fontSize=14;fontFamily=Verdana" parent="1" vertex="1">
          <mxGeometry x="40" y="533" width="170" height="20" as="geometry" />
        </mxCell>
        <mxCell id="677b7b8949515195-33" value="Usuario 9" style="text;html=1;points=[];align=left;verticalAlign=top;spacingTop=-4;fontSize=14;fontFamily=Verdana" parent="1" vertex="1">
          <mxGeometry x="40" y="569" width="170" height="20" as="geometry" />
        </mxCell>
        <mxCell id="677b7b8949515195-34" value="Usuario 10" style="text;html=1;points=[];align=left;verticalAlign=top;spacingTop=-4;fontSize=14;fontFamily=Verdana" parent="1" vertex="1">
          <mxGeometry x="40" y="604" width="170" height="20" as="geometry" />
        </mxCell>
        <mxCell id="677b7b8949515195-35" value="Usuario 11" style="text;html=1;points=[];align=left;verticalAlign=top;spacingTop=-4;fontSize=14;fontFamily=Verdana" parent="1" vertex="1">
          <mxGeometry x="40" y="640" width="170" height="20" as="geometry" />
        </mxCell>
        <mxCell id="677b7b8949515195-36" value="Usuario 12" style="text;html=1;points=[];align=left;verticalAlign=top;spacingTop=-4;fontSize=14;fontFamily=Verdana" parent="1" vertex="1">
          <mxGeometry x="40" y="676" width="170" height="20" as="geometry" />
        </mxCell>
        <mxCell id="677b7b8949515195-37" value="Usuario 13" style="text;html=1;points=[];align=left;verticalAlign=top;spacingTop=-4;fontSize=14;fontFamily=Verdana" parent="1" vertex="1">
          <mxGeometry x="40" y="712" width="170" height="20" as="geometry" />
        </mxCell>
        <mxCell id="677b7b8949515195-39" value="Usuario 5" style="text;html=1;points=[];align=left;verticalAlign=top;spacingTop=-4;fontSize=14;fontFamily=Verdana" parent="1" vertex="1">
          <mxGeometry x="40" y="426" width="170" height="20" as="geometry" />
        </mxCell>
        <mxCell id="677b7b8949515195-40" value="Usuario 6" style="text;html=1;points=[];align=left;verticalAlign=top;spacingTop=-4;fontSize=14;fontFamily=Verdana" parent="1" vertex="1">
          <mxGeometry x="40" y="462" width="170" height="20" as="geometry" />
        </mxCell>
        <mxCell id="677b7b8949515195-42" value="Url Modelo" style="text;html=1;points=[];align=left;verticalAlign=top;spacingTop=-4;fontSize=14;fontFamily=Verdana" parent="1" vertex="1">
          <mxGeometry x="860" y="653" width="170" height="20" as="geometry" />
        </mxCell>
        <mxCell id="677b7b8949515195-44" value="&lt;b&gt;API&lt;/b&gt;: OpenAI" style="text;html=1;points=[];align=left;verticalAlign=top;spacingTop=-4;fontSize=14;fontFamily=Verdana" parent="1" vertex="1">
          <mxGeometry x="860" y="250" width="170" height="20" as="geometry" />
        </mxCell>
        <mxCell id="677b7b8949515195-45" value="&lt;b&gt;Modelo&lt;/b&gt;: ChatGpt 3.5 Turbo" style="text;html=1;points=[];align=left;verticalAlign=top;spacingTop=-4;fontSize=14;fontFamily=Verdana" parent="1" vertex="1">
          <mxGeometry x="860" y="285" width="170" height="20" as="geometry" />
        </mxCell>
        <mxCell id="677b7b8949515195-46" value="&lt;b&gt;Fecha&lt;/b&gt;: 1 nov. 2023" style="text;html=1;points=[];align=left;verticalAlign=top;spacingTop=-4;fontSize=14;fontFamily=Verdana" parent="1" vertex="1">
          <mxGeometry x="860" y="320" width="170" height="20" as="geometry" />
        </mxCell>
        <mxCell id="677b7b8949515195-47" value="&lt;b&gt;Tiempo (seg.)&lt;/b&gt;: 4" style="text;html=1;points=[];align=left;verticalAlign=top;spacingTop=-4;fontSize=14;fontFamily=Verdana" parent="1" vertex="1">
          <mxGeometry x="860" y="355" width="170" height="20" as="geometry" />
        </mxCell>
        <mxCell id="677b7b8949515195-48" value="&lt;b&gt;Coste&lt;/b&gt;: 0,01&amp;nbsp; euros" style="text;html=1;points=[];align=left;verticalAlign=top;spacingTop=-4;fontSize=14;fontFamily=Verdana" parent="1" vertex="1">
          <mxGeometry x="860" y="390" width="170" height="20" as="geometry" />
        </mxCell>
        <mxCell id="bZYFK8MIfJOzmSP0UrmF-1" value="" style="verticalLabelPosition=bottom;shadow=0;dashed=0;align=center;html=1;verticalAlign=top;strokeWidth=1;shape=mxgraph.mockup.markup.line;strokeColor=#999999;direction=north;sketch=1;curveFitting=1;jiggle=2;" vertex="1" parent="1">
          <mxGeometry x="300" y="160" width="20" height="50" as="geometry" />
        </mxCell>
        <mxCell id="bZYFK8MIfJOzmSP0UrmF-2" value="" style="verticalLabelPosition=bottom;shadow=0;dashed=0;align=center;html=1;verticalAlign=top;strokeWidth=1;shape=mxgraph.mockup.markup.line;strokeColor=#999999;direction=north;sketch=1;curveFitting=1;jiggle=2;" vertex="1" parent="1">
          <mxGeometry x="440" y="160" width="20" height="50" as="geometry" />
        </mxCell>
        <mxCell id="bZYFK8MIfJOzmSP0UrmF-3" value="" style="verticalLabelPosition=bottom;shadow=0;dashed=0;align=center;html=1;verticalAlign=top;strokeWidth=1;shape=mxgraph.mockup.markup.line;strokeColor=#999999;direction=north;sketch=1;curveFitting=1;jiggle=2;" vertex="1" parent="1">
          <mxGeometry x="590" y="161" width="20" height="49" as="geometry" />
        </mxCell>
        <mxCell id="bZYFK8MIfJOzmSP0UrmF-4" value="" style="verticalLabelPosition=bottom;shadow=0;dashed=0;align=center;html=1;verticalAlign=top;strokeWidth=1;shape=mxgraph.mockup.markup.line;strokeColor=#999999;direction=north;sketch=1;curveFitting=1;jiggle=2;" vertex="1" parent="1">
          <mxGeometry x="732" y="159" width="20" height="51" as="geometry" />
        </mxCell>
        <mxCell id="bZYFK8MIfJOzmSP0UrmF-6" value="" style="verticalLabelPosition=bottom;shadow=0;dashed=0;align=center;html=1;verticalAlign=top;strokeWidth=1;shape=mxgraph.mockup.markup.line;strokeColor=#999999;direction=north;sketch=1;curveFitting=1;jiggle=2;" vertex="1" parent="1">
          <mxGeometry x="861" y="160" width="20" height="51" as="geometry" />
        </mxCell>
        <mxCell id="bZYFK8MIfJOzmSP0UrmF-7" value="" style="shape=image;verticalLabelPosition=bottom;labelBackgroundColor=default;verticalAlign=top;aspect=fixed;imageAspect=0;image=data:image/png,iVBORw0KGgoAAAANSUhEUgAAAoAAAAD6CAYAAAAx6/atAAAgAElEQVR4nOy92Y9t2X3f9/n91tp7n6Hq1p27b88Dm+xuNqdWkxJFyWxSpkxJ1mjHihLnIYYfMgDJS/6AvOU5QBAgiAI4joAIciAIshUnNiwZoB0xoiiKpCiOEodu9sDbwx2q6py911q/Xx7WPqeqbl9O3YqaVO0PcPt01Zl2nbOH7/oN3588Mv/bzsTExMTExMTExKlB3+wNmJiYmJiYmJiY+OtlEoATExMTExMTE6eMSQBOTExMTExMTJwyJgE4MTExMTExMXHKmATgxMTExMTExMQpYxKAExMTExMTExOnjEkATkxMTExMTEycMiYBODExMTExMTFxypgE4MTExMTExMTEKWMSgBMTExMTExMTp4xJAE5MTExMTExMnDImATgxMTExMTExccqYBODExMTExMTExCljEoATExMTExMTE6eM+GZvwMTEm4n40f+73P6+ze9tvFXXY/fZX9l23Pr+b/Tx27/t2IOPnrNZ+/3VbP/ExMTExA8XkwCcOLWIg+AnfufIeJ+eEIdF2D7SUNpRNxWt970eFBCvLyT1zW+59ztvO9hrVeoxYSeAutfHuVYB64KLbn/W8bETExMTE6eLSQBOTFD100kpaLjoCX21jQDeIpjqzwqv63Z8/Vu2RdzGW8XFED/5PJfvVr2hOLbdZmTz3PGve52idWJiYmLibwaTAJw4tbhwlBpljOSNik8cdIzOHU+1ujgG5DBG7dhE78Zo3Pdzy+3SuL6NzNVbw8RHkTlG807cHtsOV1z0KFIpY4r6mJBV38jOjficon8TExMTp5FJAE6ccnSM7tmJqFgAwHG5TahMDFMbawFrVE1w/Pu+lTEtq9vXrXLOj21LFXu2jfj5Lbf13YPrCTFpAkV0VIeGih+JQAyb+r8mJiYmTjWTAJw49dzaUKGM4g5gvC/4Rpqd5HgM7lZp9l1vBfA4pnrrHSfSyzLW8R37nW2fWwVcEanPldqcArW2z489Wv1o+zf36CY9fOsfNDExMTFxKpgE4MSpZiP+asMEMNbdbbLBDsciZ4yqTTmqpzvZXfv93ip2GxG2edCYzh0jhHasju9ItN4apdxIxPq4Kv4UdRsbQjap4e/60UxMTExM/A1mEoATpxs5ipIB4DWiFsafTzRLbIVa2Dy0PuZ1vrViKP342lVUOse7dI+naW2sHzxW++dGoApWHbt+6+vWekbFaqezQzBQl7GeEOzII+Z1bv3ExMTExA8zUyHQxKnmuFVebfx4rSRycXzzgO3z9ETtnr6e20069lb7l1EM1tZkORl1dEVdUK8p3+AQxuhe8IJgVEmat5G+zb8qZifBNzExMTExRQAnTjkuo/Ofy7ahA8YeWzEkCKkkQqOU4giKCLhV1RZw1B1xq/G77+O2toI0mFSB5+6YCzI2bsgYYhQR3AoAqgEZRVzOAypG2wSG9UBoWzAHFYrU5pGi9VegiNtYx1j/q69JPU9MTExMnBYmAThxqjG5NeqnY8SsNkm4pZp2dUHHbgtVBYl4LiCFWwxhvufbqu82ti1Owet7iANajaJFcHdiDJRSsJLQMQU9my1IpSfj2yifqIMZQRQJUEaRVwQEPdZQMnWATExMTJxmJgE4cWrZpEiLQCxHNX1F6oQPgEYbyODJCRqrfV+pdXTuirtgYqiMNs3f5y1iNaLoBRTMvIo412oV406Mkb7vCSEQQ0CKE0Lg4PCQ3AkalGa5ILsxHK5oQqQJQj9kQozVSEYAqdssWBW9LlMzyMTExMQpZRKAE6caQ46lQu2o5M6V4EqToS0NmNGFllwcwwlEVALmTlE7MbHje72tjR2FgG7TujL6/sk4yUNRBhJNs8t6GGqUMApDn5h1c1bqDCWR0kDbBNp2hrrhpdCgmJ2cZWxbu5jJAHpiYmLiNDMJwIkJjjzyypjSVZQ2NyyScIk9CommRCAiCAEoXh9rVhO25vZ93QaERxZvZSYdrTQEAmrVsFkk4JLJrfP8tRf5avoaazIZY384ZNZGeis0RVnMl6xlzTCsabqAFfAhMe9m5Fy2PSRby5sp8zsxMTFx6pkE4MQpZ5MS9a0lDKKEosxSwzvOPsLfeeKD3NFepPUZ6zTg7jSy6d49bsDy/RFMib3SMSdKRE3Q4mOEDooaSQdWYWCYZV5J13mhv8pz11/gC9/4Es+XqySMg2HNom2IAVJOgNO2LdnKdvSbjhaCdkz8TenfiYmJidPLJAAnTjW6tX6pPnsKYEpThDkt94e7eYB72XmpQ3tFwx6xUdQKeUhoaHgjbkriNRIoXps99JhCK650KGfnu6wPey6ww1va+5CLwmpv4Nn9b/CnL3+KT7z6J7w0HBJjw+FMWBsMaoTshCAnu33FtpOEpy7giYmJidPLJAAnTjW3pkOP/yxAXmfaIbLTL+iGFoJiayOUQoxLbDgKo5n4aOQM4j5OF5Gx2WN84WNhNxdqAwgFrDZ8iIxdxijmjqpiB0arsd7fU02icc51c+55yyXe0T/Gp775ef7w5U/D/iHMnSGv8aB48XHub7WBQY56ke1EV/DExMT3z2bxd+txpNvfKpvD36qfKPC9+HGemNc9GsDreP7Y3DcdvxNvhHCheei/fbM3YmLizcDHeW8+WqTUyr4ACCU4ISvrdJP33fcUi3XHzDtKKagoGkI9u1s1bA4qSIBeqvdeEMdLbfBQFXw8+VcLl3raFgEL9VIQ3WgACYIjmAteHV1ABQtCGbt3gwjBBclCzHMuhcs8fuYR7m4u8+qN66zyIclXFCkEbSjFiaHFSqkXEgEhUtPfMNnBTLxZmBxZGL2ef/I6yy/+alDwehzZaBZf/wniAZOAU50CggfUDKNHg2EEzIWg9XwjLtv53a7gBNBAKbXLv0ghBPDBEALStBSrtlQyHb8Tr5MpAjgxQZ3ssamVKwpFjKSZZEZRq74tLug4d9e9RvtiCLgZOSfMHY8BM6N4Zt40kOrItjLWF7o4joOPg4eLjWNIAsUNy46JIwox1sMz5wyWiaqAk3NGpWHWLJGhEE0pZcVTZ9/BhTsv8Zuf+h2+VOBmWFMCFBlIZaBpA0NO6MbOZooeTPwQIsdnX7/p2mccJYnVY1pstHCq4xctOMUKxZS2aZkFId/suRjOjyadTlOLQEgkCpkCOJFBHGuEbAPmPaUUlrM5ORfW/UBsA17e9A9g4oeYSQBOTBzDbgkoCIJtZu8qUI7uc3d6z1WoeQB3Gm2BgmTHByN4AFWCGkXq9aqIo1WB0XrADQZxJMQ6txdB3PDU4xSaEIheJwenoOQAxQQvmaBCGXoIsFMWPLB/mf/8R/4TfvPP/jl/fPhZXh6uERaOR+FwWNE2DSAMac287TCbRODEDy7uRwJHji2+tr97UyOAhmkZZ26Px5HrOHs7A5BLRttIkcCqTzQr4W7u4h8//ms8snsfB9f2SSmx6tcc5DVrOeRa3uerL73AV8szXBtW3GBgtrNgP93Ehp4qGp0gzfHT0cTE980kACcmXoMd+z8n5wScvPBAjeYFVYwCXmv4SGWs/dvU70hdpYtAqGndmnAOBIeSChIUQsQEQnGwgoihCqWAFgci2YwSQJqAKHhJiCsaBAmBdLDmXDhDd3PB33/iF9HPtfy7g/+HHAqv9NeIjWJmiDnz2GK51MjmxMQPAbcTg28ujpKP/ax1RrhsfioEz5hlshvuytnmHA+2D/FYfAuXr57B/QKhiUgjrMuKlawZ2kS6T9lfJp7hW/zTf/sbvLj/LSQAEVQVEaHkwlhh+Nf/p0/8jWASgBMTxxlTtTL+v2H0OdWU79ik4dQLkACiRhrWBInMmhYzKKUQghAk4oPg1O7eguE2podQxAtN15JKqWPlqDpRVSjjpiyaJUMyBgI0DRGjDAn1ARHHg5At06B03Zy8MpbNLne8qvzSWz6KPOv8/sv/ljNdw9p6khWCdnSEmt7eGF9PTLwpfOedbyP0vq3g8zc3BbqZHy6umAhJx4WfW60mLplgMI8tpQikwrm98yzsDG1aMEgilUJ0ZRYWLEJHGTJDzrRlRTpzBki0RKRb0pdMKYbGQLGETgu4iTfAJAAnTi3qr035HlEvLAUnW6FQXvN4wbaj2sShzz1mhjUwNJm1D8zaJdkNiYapMFgVkXMRimf6MJDHa0ZtQxltW4qhJXAjrQl0hNKhpkQzAjU6KEEYLBNUKaVQzGhihwzC3JZcboWn7/sA33z56/xl/xcMcaBpGkSV9SrRNA3lRARjYuIHkx+86B9U8VqbwBxl7N4A6qLKvNRjrGSsJKJH3IwYIykbENFY44hSAuqCDhncaRVm0tDlyC5LVpo4SDdq+UjbYLbp4p+YeP1MAnBiYmQTCTsZEXOK2S2F52NKF6WkRNMEzI0iGVvCjXjIN/UlboY1N1YrVuUQKwPr0nNtdYOcM6EY63LAZ659gTyaRfhYEH6R8zx04X6unL2bu/bu5Q69yJ35PIvDQujrJmRRzApRRnsYQCOIZfqhJ3R7tHnOA3IXf/+xn+d/+Pyvk9vIQVmTvOAh1GuVTGPhJn5w+e41gG8uvunqlyNbFnHAFScwuOEaUBpiCCiZTM869gyzQraaXUBr5zCqiLdEyUTJZKttISvrsdYhCKkMlGQs511tEJuYeJ1MAnDi1HPcEHkj/o5+p5icTEVt0sE1+tcCjlkmzAP7HPKHX/p/+Vfrf89V9nGUnp6A4RgrEgrMNdD7wGGXSJqoPn1K9MjLeZ+vvfws8eUGYcZb5CF+/Mq7eOf5R7mjPUvstVpISMSLI+aYCBTHJNHMImvrkSLs+ZKHFw/w9N0/yb/45r8hdDPWviZ2DTkPKDJFESZ+YPnBifbdHnGl9vICUptBjqryFNMGaEipoJ5piQTxaulSMsF89P2s55ViikrNBBRfsUoDCcfUKeqYOU3TEDyRUvqB/3wmfrCZBODEqeY7T8NwBGU99EiskTLVpnbOjkIQEcycEBpWwwFlUbgZDnmZfW6EngHDxFASJrYVmCuGsSO4Wj7I+G5JCqlx1kEJVlAtfHL4Mz733F/w2EsP8h8+8TPcHy/R7rfsyLIaTyMEq7YxQxlwyWgUigtahN28w3vPv5s//uZneMau412p4k+8jsCbmHiT+GGeRiMOMpZQ2LiKCpTaBewBQzFXXAKEgOfRdzMV2uzMEkQLAGSV0YpKcYzihouySplELR+p3od19riIjEMsf4g/wIk3nWnxPzEx4lJr/Ex8nA8MmUKyhFmuqVY7ecLNuaASEKsROQlwWFYMZG6GQ1Ztz7rt6ZuBFBNDzAwx00djCFBEMQJOwKX+nNUYYmbVDtzUm6x3V7w8v87n/Cv893/y63z28EuUM5mVr3AB1VgnhpjhEjAEs0zEsVzoUsODzd18+PJPIKmKwqDV8npiYuL1U2eIO4qDjEbrGDY2VykBBYLo2EDmdF1X54AbBN+Mo7RxgXisHMN1XDCOZjdW3QXcBXeZLJwm3jCTAJyY4Nt3whqZVHIVV15TvZuaORFFRm8GLTp6AAIBjILrAOQxSlBFZXCvUQ+v49lqED7WaAGKS00FB1PaAm1xYk5QDrnp17jKAf/kS7/DV9Zfp29W9ULjgqhRGBBtERqCKcGNVoXGhe6m8iN3Pc4ZIkuPyGhXMzEx8cYQt6NJj1Qj+c2EE/GCWkEtgSeKFK4f7tdFmsi42BsYYiKHRA6ZonkMLxo5D4DX49kU8YibbM8VExNvhGkPmpgYMXltQqV2AR+zhhnZ/L+GQM65CjiBhCFdoGeAIFXW3Xbe8Fg0Pq7+YSNC7dhjoI0NXoyuiXg0bnY9L7Pin/35P+fl2Q2GpmCWt8LURcBDjTyUOrnE+8TCZ+z6gg/c9RTdWmilIU0F5BMTb4jqClBr+NR1e16omYS6aBQ3zAtGxgN87ZWvYUEwDRTdjLUbo39S6r86Z5K+X+EU3MvWJUAAEUenq/fEG2TahSZONeJHYuu1dxqC4l4LtXU84267EcUxMbJnPCprLwwBXj68ScYw/MTrFxktI44pSfVczWSlCjgZBaApZFXW2XDtMGnIRXAvHHDIF3iO3/3axzjsVmgoOLnOHB7FZCMBLQrJaUOLudAx59GLj7DDDE+Ctu13sMGZmJj4TrhAlkCWgFoklkAskWBjG8jGDH6cE27BGcLANW4yaK7ib5wnLK7jsW/bNDJSWNsaoyBaf1YpKAMqCSTxAzALb+KHmEkATkzcgstRSkepdTgicqLjrq7sx06+CGghkSkNfGP9HCHGOnWDI5PY7QD77WsbSkHH6Z+3Q4Iy5MSQjdi1qAqpHbgWD/n4K5/imdU3SfNMCYKrgjliZfseUSM5GzHMSAfOXfEOzrKkkZYyXTwmJl43mzq/moo9iuiLH2tuccWsTu9AncELDS3ZM8Uz1dWzWslsIojHMwbZDMdPLBq9GELGfRoEN/HGmATgxMR3wOBEsfWJcXBiKANBUl2dq1DUucn+2PnrBKsndKfG9zZCL3i1jKj1gWPUT5QyNuarG9EKGgqxA0KmT4eYJEwzPoeb7POHz/4Rr3YHHAQo3hBxohiDZyxAQUAbcoGz8wtcLBd5avkkbRHI+Ye6C3Ni4s1kI/ZkbOAoAkXtmFhTlAgl4FYjfRvbpa1fIIoTxxnCilqdJaxQfyeKUOv+fPN4GUfOTUy8QSYbmO8R8eONAs7tLEhNvp2tgSMuuNTnmbz2+a/3QrxJ4d36/FtTe7d7/W+/vaeRY3V+rvh4QjcyWRJ1HX7SNFkcotYaQHcjzpRMIdLgudB0ATe2wb3bfdabzuPX7g+1aSTlTGhaLBW6tsNzoZRaS0Rs+NTBZ3k6/CR3SsfCx0iDF6wUQtNhXtNM7mB9YdZ03Hv+XpoDpYsNVkptTxnfPhrjRaieGoIfbehmxnERo28SRQu6PSg2D9xWRwLHiuPHv3PzqHAsNV5fwk88t95n4zHznV9XXMfUm9SLKJsoTDXY3vxtPtZlmThF7cTF2sbuy+P+j+M9gG+/I/Xj97F9jIx/mY+91Sdf7/jz9dj9R3/z8X3j+LF7cp8Z/R5ve99JjrYHbt23jj67o/356Dzi488n3+d4mcTRZ/ba7fxef1cl0BHhRB3sZrza5nvUcX9RxMdau/F8PIQyfo/139HfcfT9iTM2UUTEw7ZBqt6ruFr9lrVQ5Gi/eG1j2GaLj77PoyB6Td36tg5Qa32vyrZrN0hAm8h66Gljh2rEbcw4jClj3XxG4/4TpE4IcleKKRYEl7BtMNkcOie3dTJ3n/jemATgt0H8+AXg6IS6+d1mBWZyVOvhHD/x18erbBzeqgAsUnOANp4mNl3/rxVsr73I3O5xm2uRGduL0+bSclIc3nIxrsYFNVJ1ikWgv+biVE+eRbSKBAZeuv4StqwDQFwDRydXJVstzVYTLJfxs/V60i5GkYBv58PXC/7x9zyK+AHbhhEbL8CKSosXaDRu5wXHGDF3smcOWfGNm89wJVxE0ziHWJVWAp6sXjQjY41h3b75fA4oVmpheaHul1EiTTI0CTMWCEqk0NJSMCKRiLJi4CW5Rpk51ehCGNKaGGM1NkRJ2ehmDQwD7oY0odY1hjo9ZYHSiJLHC3GRKtbwQHAlGCBGkoKEgLuQk9E0EcsDzbjfJ4PWGnbSjIaWjkhLHPuqq7h1r73YxaGQ6EkcaM/QZLILRQ3EcQw3pwkdxUKtp5Qe04xpFfNiSpAAIiQriAhRldwfEGNEtSM5ZBKqoGUUBgKlOJ3MCSFwmPfRRiFD03SUfqg2ISLkUohdi+f6+pZT3S0DIPXvEHPMhCYImG87QsXr3yLk+lwXigEhUEqhVSWoYuP3ZNT9KMSIKNhoLryxE1JXCoUGIcq4r4xC1AFCxHOCUgghgMT6nVqiCRErQoiRPidEnLhZdGqkZEeiohghG14KtB0p14UVBo1BzDJ+rw0NHYFAg1LceMUOWDcDawaKFNpFx2q1otOmdu0LNAjLHGmspWHJnI52rLfLBLJ57fa3NWsSKx3I0cjKdv63SBV7onU+eHEDbeoxypEfIN6MQq7W9ToFQm0GcVHIdSoI3mFFsZCqjYwLakLw+mplFLSNO86KTlsOpbAudT+Za4sNdR/LJaNRQeo0kVKcOOtYrQ/oQhjPM/U2UMYzURjnD01C8TQzCcBvw+YifdTeX4VcdXwH/CiCZmKjCDx5MMn2+UcDw5XaDLDJJAon1+e36xjd1I35LRE7O7aNR80GhgqU10Qpbtk+mQ78k1RxVj9nhbFCruC4Zo6fKo/X8X07/5jN97SJOt1eZFfT1+PPkU0kBDgeYdjG2Y6JehOnJ3G1fxXbNUS9RhvGx24EBRQwIyjEIszjDKFGUxynlUBYB3ZtwcKFd15+Ox17aFbOzxfMmzl7O2fZ6Za0KM/ai/wvn/kNDmyNFsMQogY8OTOLxNLQ+pyw73RUwVySM4wyUoAOuMlNpHGGWCehbEfxjfsxVLHbl1yFWTODBF1uWJjSElE67uru4pE7HuSuvTs5t7jAbjNnESJxnNOMBg6HgeurfVb5kGv5Gn9+9St84dUvMwA9A6twQG4SooG+74nNYtwfauclZJyAuFKsIKqEEHB3UloTYhXQHCoNkSYsoFQvxoji1M5r8YYVK3YJDENmP/b0tqILEREhu9FExXLBcgEiS1kSMvi6IERmtDTUCTSFfEyCZBwbj/SBgZ6+cXIUEk4IgSABN8PMCCHQth3roUaOc84ogSZEUnaiN3QWaUvD3JS6tzjKRlQ4RiAgNBg9PVkCvRZoEv0wQBe5ebjPYncHccPTQM5GCErQQPFCTgMzVWbNgvVh4Vw4hw5wQc7ywF33MbPIMsw51+1xtt1j2SxZNDPyjvOxF/6Yf/3FP2CxmLEWuLl/g+V8SVgrMQfmruww5+HF3Tx+99u5cu4BZt5whoblYsHajJurQ4ZyyIHv88z15/jSC3/Bs6vnucmaXjKpKQw+IKEusMydZlbHsMm4sNbX1NMqTVFCEhZhxqr0dHQsmPH2+Ci6rp28wWtxSA3p6/b64qJEC1zUs9zNHbxQbtCWjkBLoiesoSWMVyTDkpPHBU/GeWW4wc7eDrlfnTiBhPGiMegmEDBlgU4zp14AnkyVHEt9bK+ix4SUHEV+kKN6Lh0PYsOPHUz14u1wzPetesepbV7X6krx2MlDtoLieEry6PZ4LiaYoKOTvGLbDtAxoTGm78b7bbPd9b6NcFU/3XbAt0+hfx/iWHxULEdC8I001t668Lj198cpaqzIPHPtecoeRyPqwihWnVG81H1BDChwZrGsMswVDcAh3MtF/rOf+kdcPjjLMi2wFFk0c0IpG/2IrIwYjTOzjliULnaEJtAfrmhDQyiwV5bsMOPJ7l285dyD3HnmTpZxwe7sDDFUMXhgh3yzv8onr36af/3ix+ijsT2Cxm7HzWE4DAVUCG1DPhxY2oLztsMOgQ9d/gBvv/gYl/Qsu3GH6JGcHQYhIgRRSiloDLU+q5QaCV0oP3n/e7lx7wHPXXuJTzz7ST5bPsvL5TqrztE21BS61AideoBQECmItJhDYqhRmzHNJ11Hvg53sscFznKv3M2FM3vMSmBvvsvOfMFcZ5zRHc5cOMd6lvitT/w2f2yf5XleJrsTQ0SSoSI0TTX87UpD6OEi53m8fYQn7ngLd3Tn2YlL9hZ7dGFOFucgrbgx7HOzP+DFgxf5yre+zOfLl3gl3eSAhIQEMdAPmaZp0FgoNlDWjriScyE2LSJg68JCZzRDw5IZjzeP8c4738G9yyucaXeYty1dzON+OufqjZdZ+wHPHz7P164/w2f3P8eNcoM1ynVZsZi3lNXBKJQC87bDvZAZ0DBmUpJhfeEe7uAfP/2fcuVgj3PlDJarSgkGkVAjw6mORLsZVrxt50E+zse51t/E28ROO0N7JyblCud4eu9J3n3xMe7duw8fIF83Zu2MLrTYtxKNKMZZkg0ky7xv9+2Uix/m2f0X+eKNv+T/+uYf8K3hVbRpWEvCpaPVQFmvaHVcXI2YgGkGV6IpszTnEe7lwcV9tGHB+flZzusub9m9l3MeaGSNFsFFKeIUKeTt5SbQDUseax7jv3niIZrlklVe45IJbqiNQtzrAidTKJpJ7cAXVl/l1z/1v/Pi4Su0OgYqqKUdTamXkT7UYH2cxN+p5tQLwG/H7QM7x+tKqpjalvP5Ns53ywvpGGrX7Wtsi3w3j77Nex3Jy/FlvusG60kneTnmJ+dy8j3GENZr08ynndd3NrTx4z1ZI/r/P0WNlQ5849XnSPfnsVB8FIHUjSpex73VOihwF3bDbLs/mgsLWhrgzP6cO1YXmO13NLEl3xiQonRNwzo5bReR9Ypd5pzlLK8erEkU9sIZZofCnI4P3ftBnjj/GPeHOzkzLGlzRFOkSQ2eHDWnzPbY7Xa52r5KGFNRFUW8eqBtavvatkNM0ENlkedc5Bzvv/NJfvS+H+FSf4aL/RmW6xlqTjbIUi17ooTt3Oa8NjwITQjgTlkljDmXmnPcs3MnD739Cu9cP8LHn/sTPnPwBQ4x1m2Ph4JqjXyVEuqFVAwJY22kF1SUgpGzcLE7zz989z/gEX2AxdDR5WoN0hIhFWYemXnL6qUVqx3nneef4JPPf5p2oZg5loxGIzEH4sqZMWOXJR+45/08ddd7uFTOsdfPWJQZTQK90WDJIChZ91jTYy2k3bfw5J3v5gW/yqde+lP+4NmPsV8GcoR9BrLV2rKaKhYajWjTkg4Ts9LQMWOPHd5395O86453cqdc5lK5RHfYogdOuxJUBrwUvLScDzuwdB7q7uapK+/gaXs/X3zlL/jDr32CLw1fY10S1ihJMnhTU/KWQOu+KggWIpoawNlbL7h0bcnZ1QwNM7Ip6lbT7WZkMVLMJDXOhRlzAjcNNAlLZsxzx9v3nuDHrzzJU4tH2TtYEK63CAFrDBJwKDBEogvdrAVVhtxj1wsejUUz5/LFCzx854N84sVP8++e/TjfSlZbeuIAACAASURBVNcpndLnRBdaKBnTTdmHjucABym41wjdr/7IL3OP3QnaEgdhZ2hZEimrFSYNSnN0DYG6QHFFPNDkwFl2OCu7pANjp0SaKEQVNCfcAiYtpoFsidxkyrzn+TQnAF0TKTb8tZyLJn44mQTg98xRYTLcUqM3FpuPAfUx7bbRWWOE0Y91ko63JkaQW5LAm4jjMWG5mQPkY6TJtmFB39Ycmvu2bqxu7ZiakHxMTNb+MydsI5K1Nuy4YPlu8avb1yaeVlwM/GRx/nfieOPNycaiW1/32z9/gwKpMV7pr8Gxfc42tYbu4GWsMzBUarNETR/WlGvBOaTHgFduvspdfgd7saXYmrYZa55ECU1EVKEoi7Dkob2HeOXGiiyF+dDw9OJJfvK+H+PunQcJq8A8B6QfCFqgFEwUkabGSxxm3jHXCBiupaZaNyUMGGp1+9JQmA2RC77DU7O385EHP8g93Z10Q0czBGZDRxjDJlEdQo3pZyuUXMYUMJgVVjkRRWm0pqHLUGijckUucH7xPt760EN84dUv8rvP/kv+crjKKqQ6wosGl5aeAvRENRqvDSc4BIkUc/q+Z2+94A45w+ww0jFDY+Bg1TOLc6ILZCNIpFNhHjtqmllZtDNWhwOqDe3QcpEz/PTFv8WP3vMezvku4SCiSVnKDmLCUDJRISpjajbQMauj/7xjxi7n5AIPnL3CY81D/B9f+z/5y4PnWSwWHOYVbaw1dEhglTOanTM25wp7PLX7OE/f/34uyTm6dUfrHbGAljR2sY51xkGJTcBzwQdhV5bMh8hOM+OOc1d49Pzb+djX/z0fe/njvMINhkZqij1lPBw1GRWHhDBrG4bBuLZ/nYf1AvO2Y50d1ClUU3OTgBAoQREdOL9zlgZHJND5grNlwc/f/RHeu/cu7mmuYDdArMUJJDdScoIoc1fa0AGR1TqRtKdpFG0C5plQlPP5Aju2x/1X7uE9557gX3359/mT9ee4GROlT2hXSwBs49+3OSrHutKIcmc5z5XDc1iIYEJbBCsZ0YaiY3BgPNiDe+0lcduen23IIDWOv1gscOvxNKASka6ht/ohigZcEoMUbuxfpzBgnut5YHOdUKPfZhg2ifyJ08ypF4CvqdwYa/teaw48xvGcsZGfjQbjqH6pir8Tnk0i2wv9plVkc3dAEDkSjifYRJXGLTR0k8eFMcIj+FHaVxjfWxB3auWSIXY8mljbE2x8fV77rhOvg02A1cRORHd988HfUh9qUqNxbxQTIwShkBAdi9VH4aeiNW+72Zbj27vdQRX3mvpbp4HnD67y+PLRur/mBCI0sWW1Tsi8IVlBC8TUcsUvc96/QfSWn3rgJ/jwpac4u79AXpkTvUFGWxy8h1AXHhoUFyeXAU0JTXkswbCxs1NgHIUHEEtgT3boPPBL9/w0P375Sa6kS8wPI6U4QWJtUlBFrGCbNLcy1ugJOWdi29BIRykFL7Xq0qWu23wwZtqi+8K97R1curjLlQuX+J8+/Zs8P7zCjXKTHDPezKqnIql+z9RaOlBKMZrZjG7V0b+6T7sU5rlFB8ghs9N04Erq18ybBvVAORy4dPYy3TMd4sp6P7Eb9miHwFu5j1967KM8HO7lzP6cpc9rQ4cBXifTCIJGRVQoJeG5Nh6FoIgpnc1YeMP50HLmzIydJ3f4J5/8Z3z54DnaeWAY1rRtxLJwJs6Zrzvu4jI/99anefLs4yyuwh3deYZVQiVC2MgFo1g1Ma5ibg1W24Wa0NBmw3JLl1va2YKPPvwR5s2C333h3zDYDVJTI3mhmZPzgOPEGOgzDCVjwGE+QKNw85WbxOUuG4kFYGNTipljZmg25rQsbE7LjF9728/z7vlbuau/hF814mxWO/i91kC61iiwlIJ7JiNIE+nUyZYoXqO+wRQ7dHZ0idxwHlney97jf5fdZ5Z8/OonOQgDB7kfQ6mKSx7netd9WL2ayC9szqLvWFFAjZJrs4xoR3YjsBGB1Qhax3PFZh9VUUQDxYxhGCh5oAmKh8hq1aNtw5BSPdc0RpQqSiOxOgiEZnvut3G8XG1Ssb+uRMXEDzCnXgDeLuK16cR8zSP95O3msabHHnssErSZ07qxpdiWFTpH0yS+y0BvuyU4d6wyEBl7uTbX803jh26K1y2gpX7FpjaOJwKXwqZ2xfz7KwL+XmrTTiN+TFDf+pEot7d6+X643cQO9dpl3o7NKzJGk919ax1RhSEUbOxGbshu22VI4wJivMI1/vLG1/nI5Q+Srg5EibQqSI5EB3clW0Y10qSWx+LDzGl5/6Pv41zcYXmjQXunDUJQQ0rt6sxSm1WKD0QxooPKmiADrdQpKFL7TceI2rhMEqNLDXse+I8e+nu8d+8pzhwu0Aw+OIvYse4Hcie4GtEDmCPuo2+j1SL7INjQk0tCNaCqGDWNSCuodwxDYt5EchngcMZdcg//9Y/8F/zzL/zf/NH607zoLyHW08QOcldtdbQ2bIg4WZyWuqB74aUXScuMRkHzqA+85lxjW8fvxRCZa6DJWmsJpSFoR5tafvbsT/DRB3+Si/0OO3lW58WaIcUJCBpGPV0CnjN9GdAG2hgQiaQseMmoHKIq5FRor8M7dh7kv3zPP+S/+9T/yAvpBuuoFIWI0K2Vp3fey08//GEuymXm1wO7rXJ40LNo55Ts9KmOGWw1EkQoWO0qblu8GIiSLRHVMS+E1NFZy7l0lp966EO8POzzR698klfsVQ41ocVHWxfDrc6r3vhlvnpwg3zO2N1Zki3VuulxcSWiRBFMMw1Gg7JkwTt4gKff+mEeae7kwrAgFkGWDYOtamMLgVwKPnYQtwj4gLdWG2+yMBOlqFMwlECM1UT9zHyX5A3tEPh7D/wcF5uL/M5zv89NyQQRLCSKUuv3bLykSm2RMVWSCBKljm/bCGkPWCrEcLKBZGMuXTbnFHfwBBrrc0NdAKg0aKtE6r4vqiSDVXJiCQhKCB2FBscQr5NDTGpXep1Wwta2aOJ0cuoF4K1NAN92LFh9NFA7tGrdho0H7FbaHf139K6ijD5WVps2go8eaPVdb7MIuzUmd/zKX5N7vn1WHRpe1MhBGALjbMmxtUUCRW0Un5so1KY2cGNXM8UA/+rY1Hf+9ahi8WozEghQRqsJr7YnQYVCQVFGgxMERwMkN0AwClGUwXraecfnXv1z9vNNLrZLSKXaVKRM2804zENdcIRIY4F3XH6Ud935OPNBadeKxIBp3YachnqBFak2HyqUMkZIR1M5o9T6RDb+bGPk3JVggS4r53zJP3r8H/DO+dvYeaVhSYcFo4SCmNCGhpWM3dpe92UViNQoEeNs51oT2FDTYQCOeMFccISgEbOCEgkJLs8XNPuH/Mrjv8j6i4lP73+Ol/tXcOkRE9CICLUpJAaC1ZmtiY6X+mv0M2d1kGhDMzZ5KcOQaWNbhVIuhNhybn6BXXbpV7DDLh++74P8zB3v59LBDot1rA0CTRznvlaRX0q1dwlSzYObpsEoDKWWeqh0xKbBLJHNCKFhITuk62vu3r3Irz76C/yvX/gt9mMVeGdtyYev/AQ/d+fT3DFcRvuOziNWBppmTu4dCUpoGgwnlTx2tgkhBNJoGxO1wQqENuCDocEhjaqoWfBTD/w4n3vlTznIkfVMKZZQrY0ughEkjHtkYmUr+pK3c3aPL7zdC4IQihEHWLYz3sYjfOCRj3ChvcBujsShkLygWlPDm9NlFB1rYutsXbRQx6zVfbCW2CjgWHE8JyQouR+IpixjLTf4wOX3su6Uf/nV32c/75PUTnTzHz+Hq1arI8FZp4FF2zCsEyHOaWMHnrdlIVt/Rdj6ZkapgXwvm87tGjGsVjuj4ZfVo9uKoFq/i3zMYF5c67pqYxW0vQ5sOrunVfxp5VQLwGpMe2TMqmOX7XERKGHsJBxXbikl2rYjpYSKYnJ8HE+tCYoSqfZPgY4GS4lzuktrNeD/tisP88Qjj6MmPPHYO3ng3gdo25aUEiE0QO3oNDM+//nP0zQNOdcD+s+/+AW+/OUvA/CN699g31esSuFaWSGtcsAAUbCgHPRrZrFBEVJKNCqI1eHkUQVVpc+ZbjZjve5rd6AqwzCgTaSUso1UHtmaHJ1UJhhTc7bdPywXGmJN4tzmMzrZL/ztuTXit7HtMKsiK8aIJyNaZEZTS/1ExtSvjxYVdX+dLzvWQ40EJsmsfSBRcJFamB8KRQ5Y03LQ36Ave7ShoRRFmlBTv1pr88wLasZSasSt87oIsaxIXFAKaOjIJVebD6vipWlq2raIkzWQmo611fq6zmf0JLLW0VdnmXPJz/Crb/1F3jp/O/PVgtYBTSS3KqkiWBaC1SinFydoPWbMChujwM1xFKVGB1VGy5RUU9+jlS5FqgBwhTI4c5ZcOGz4jx/9DwifKPwJn+Jlu0mQQAgzymBEbfGSMSt0bUPuC58pX+KXdx1ZJc43DVJqE07UOhowiCChIRUh5jkP8wgLnuFXHvxZ3nbmIS6VM1hy+hBHcVwv00aCEAk2q+nk0WE8esQJeKMMJdd6OFUGg9A0teEDgdAyS0t+bPddfJEv8PH1n9HR8st3/12evvI+9vY72jLGg8wxUzRENBZSyZhlpAlkBMVRsRpp1EBORhtbojplfUjXRKzkKjhUkb5wfzzLz1/6EL9x9fdAV2TLtYluTOe20iJB6W3gIK0oLlipiwHgyOcQqsG3wTzPiIeRX3jwZ9htLmPr2q6+qVVVibV7XaRGfXOm7VpyGiBCLla991odI8Qtyar/YdMEclkTLBMcWo+YtZR15srsAn977wPEOxp++8XfIze15lRLQcIo5pITEVQKkUIyZzab0a97JMRtecImYVQjc7UcYmMzFTBEqnFSPW8IlNohbzlV30WgL04TWlxLDQiUUp+rA7HUzy5zVG+ot5SkTJxeTrUAvB23RgDNjG42Y391SAiB2LX0KdF2VbDJmCrwIRM9YL3TAB0db7v3Yd75yBPMaXjiwcd44i2PstCOsko1bJ8dWxmL9ZzhRqYtSgiQcz04Q4g8dccTtc6v1Fmw7zr/KPm9mfl8zsrXfPprnyPNnP/td36Lr66eoyOwoqdQmLdzSjZcaqqmlDTWiQXEIA2JZtbS9/32QuleuyjhKE098Z3ZdJvqKP5rCikCA8eDw7cLLn+nRhDgqHZpNKTd+LW5O4t2TncgPHL2EbpmRn+9ivgQhTwUogZiiNXXLgQKhqlxmA6wjX2FKKKRdTrEEF66/jIP79xXzYZRim3qGo+ixwbEsnEgL6MxtZLda+pKYdYtGdb7tXC/gKVca58k0JcVfYSrBzeJzHFfV289CSxjR7cOfPTKh3jP8gmWhwuaFOkao6RcDZKLMCSnjQ0wMKQBa4x1FHIsDJpJjVOkRk1aDchwQJOV1ltaIm3TgCmenRAa8miqq02gpMQsdsgg7A0Lfv7tH+Xq515kSF/jIGSSD4jUjtUadRPKkCjSIt7wlZe+zru7R/HDMn7HtrXdDSaIGObQ5cD7Lj3JYvl+3n3mIearUIVpaAmxqULAnMLAEDOZBB4Qq9G3xgOSBSnO0BfmyyXe96xWK2a7C9brQxptyBQ0Nkgu7O4v+ci9f4uvPPMNnrz3KT548X1cWZ0jFMOTAEaILRaEQ8lk7dE5dc61QWwjkUAzWO2QDgJe97EmKiE0dZEcWoplJApahB2b8da9+2muCmrVjNopxKjb6TYmEaLz6uo6oYkcj6TV2rpa2mBea7FjUfwwcLndYzhMqAtt22yPj3UZsFZYS66pXh3IktDoeKoNQaE0SBIWszmSBhpZou4MZSAI1TuxONkcihCkxQ/grrDHj517gm/m5/j9lz9G10X6YIgVSs50TUPfD1wtV+kWEW+qv+TO2R3iYORhjUqtHfcx6rjJCm3KhRxYacG0gIda4ylSG3EkIMExd4JGihhDGaA1JAqOUSzVSDFsPWjDmHbfRAOn6N/pZhKA3wGXmi7LqSfEpkYXckEIpKHQNR05QTkwduMusXeWNPzaz/4yv/J3fpG5RWTtxCJoDnDoUECkRUcRRgskCIMTxgtEKGMqudQURimGmGAlsQwNxIZ0mNiJLe+98g5Q4en/6n0MZD7/1S/xW7/32+SF8edXv8KLXCMp9GSKOrN2xnC4gqLsLvdY5TVBArNZQyl1tR9jpIyCcCMGb02Vb+1mTjniWm0szMfia6HGbo4aLW5lU5R9O26N/Ik5MSoiThlFVKOhThkZEjPOcOXs3YhB0zTV5DfXJojq/6WU4rSxNnxkzxwON9nUgLoHShKW7R66biiiDO60IdDnAQmxRoyNcUoB4zi4zSIhMAy1cD5ZT+hqcf/BqqdVZda0rIae5WzBMAyIZbp5y424z7Vyk316ehJdG9ACul/40cvv4kfOv4M70nlyqlMoShlqgH1Q2jDHozAMa2aNQAerM4Vn0nM8n77FV298ky+/9AzPHr5AwZjT8Na9+7l/9x4e2r2X+2f3sHPQccaWBItEsxrxpJBSnY4SxcjDwNnZEglX+OUnfoH/+bP/FJNDkq4otiZoQKjCPIwem72vSdJXA2jbRPDq9Ah1oxm7m5HEMsGP7b2HNkTaG5nGqwlzKY5bJnumxELfDPQL50DWeHSsTyyZs0gdZaXMdcmZtuXgxgHztkO66rvXBccZSBw1EzQl8NblI/wsH+I9e+/g0sGMNhfMoAkNVhrWQ0/aDbxabpDPDNAO5H5NzIEzcpbYR0ox5nHGenXAYrFgwCleo4buSvFICYFBEq7QWeTSmctc4gLX0gEeC6aO59rR6qpkK6xszVev/QXZe2qJSy2TyaEeS+qgJuBhzER35OJIEBSjtUDpE3HRIkvjxeY6X97/Bl959eu8kF7gT1/4DI7RIjx6+W1cmd/J2/Ye4eHwALu6hH5Vy3R0rKP9/9h702DLrurO87f2cM69770clBrQgBgkBJaYJ5cNyO3CZsbYDAbbYOMhuuqDIyoqOrrLUV0R3V2OqugOd0d0dVR32D04PDRtjG0wkw3YgE2ZwhiQkACNaJ6VyukN995zzh5Wf1jn3vcylUKSRZUMyh2RodTLd8+5Z9pn7f/6D9lTXUNWAeeofgKpI5bCs/edyxsvfDV3Hb2F+8tDZDdQUqZtG7qcmPvC1cNNHG22Ed/iBfbllvPjQda6lg1ZI1vz1rTV6liyiCuOPlSONQt0TQhByItELDBRj+/F7i8ZzaDV4UIhh0qvPYoQ4pRUbMJxS0Hg2IJQlTP87TPjqV0AOj1JvA+cjMYotgLMpdJER82Kq4IrShsb6nZhgwmgvP/NP8tzL3o2r7jsCtriCJuw5hsYxtXWru7CNlygpGpkaOcIoy0CFUIYeSvFPBKcehAzp3XVOF304IqwphFRR39szqQNvHD6TF7wvv+aE2WbGx+6gz/47J9yw+w2ukVhhzmJnn0HDpC6ntm8o1BWDvel7Laz9yKBZ8Z3Hqo6qrY9DsdB9gEP7PkNN/Z+68k2MDy6EG/ZYt77d+eswPTVEwmc155j7VAf0Jrs/nBCqZWqiosBakGjMviBE4tNVsnG6vDiyJ0pMI/tbFH2Q051hWbCLlfU6Zj2NvLpqnhUDTmjFobQU1sYhp5OlFIT7XRKl3dw3uPIbNYZW03P9fObjKs0nhDXKRewnx975g9z7s5BwiD44gjRgrYET82ZENTSQabKidhx1B3hGw/eyKfv/kuOcIKOyjwkhnaMbCyVIzvHuHbzeiY0vChczmuf+yM8vX0a59aD1O1ES8A5TxkSTRuhJsuLTZ6pNPzAvufxowev5JMnPksMjuzFRDEjKuucteM6OvraQdkl2u/1OdzLxW2KYyr7qZ2ipTe0LARmeYeyXulizwOLw9x5/C5u+fad3JpuJzGwxpTnTJ/NRevn84LzLue8AGEzsG+6Qd8nJk0AMfFZohKdZ8iJJrZIgTDP/PhzriQOwkQnlDwgMbCtc4apY9gQbjp+B3fP7+WaG7/OUe4nAhfxNC5cu5CL9l3EMw5ezHnNOayHhiElvGvQqqSaaWJLSoydhmRFSqm4EnneBZdy1/33MZcBF8aoQ7WkEnHgo9AtY/HGyfikLOdRCLLk3JWSDN1Wm8PUBeL+yIMc4/ade/nyvV/nqu46Ntlhixm6UZh1cwKRI8evYXo48ln+hpfyIl773Cu5ZP189ucJZZGYMKWohXZWZ3xREY9zAZ8TcSZcsvF03nrR6/h/7/0Qa64lOWXR9bj1llnt+ZPrP8Z+NhiwgvIQE37s7Nfwugt+hDyr4E6pwkZjfnUwhMyt8zv48Lc+RqbwnMlz2WjW2AhTLtx/No2aWXvbNKytreFbzxYd9x09TMdA3/dIaEfl70g9We1umad8ZiH/VB5P6QIQlq2t3bEXEjeDXyFKoPbKVBvWXYOmQtt7fuYnfpqNxYT3/tQ7SHMrziZFYAAcpJ2eGFtyMnNPN7YKwUj6vnEwjEsyAbLaH7f0gBklYaM/lBMPxZCmNrS2rWrI0GR9A/pEqI6yU3laex4HzznEi3/+pdx69E7+4/Vf5aYj3+ZbD97Iic0ttIEshRjNiHRIxilpYiClRKWuWo97Rx17miclnjyFh1NZqUJNpq2cs34uzG41i5+H8QAfNhMDp1f5AitOZvSB6AM5Z+MZhsCGn3JWOcCzNi4mzj3DMNA4R3CBrlpSg6opD2s2sUSdCvfeez/LCCnIuygvlUVdUEJBu0okIAXjao0tpKXvpEqhjE4zEhw7aU5Yi8zYYSZz3DlKIpmHWRqIaQ1XPME5thu4j6OcYIcSBqCSsnKQ/bzpvNdyWb6QDWmp2jNRQXshtvsZcsL7Qqlz5jVRDniur7fyR1d9hPt5iAULelnQ+4SbNAxDT2wnlDSwLT2ztM3UbfD54atcc/3NvP6iK/mRs17GBRtnkecdU5kS4i7XN8ZIVxITmZCOJV733H/MN752PTcPd1JiNtRKKxGjioh4HMqDD92PP1+gOorzu7xZHNUZUmhFdKUOM2JsoJ2wk2aUOme2b8GN+S6+es83+LsHr2bGnOgt3M3TMvAQty4OExaBeORTvPXi1/O6Q1cSFxPEO5IC1dJPVCsxNNSa8LWaMCQ6QjRO4pDBTdZZ1B2GQ3DV/Fv81fVf4luzm+ixa7PeTOnSjDv0ftbnN1DnytkPnscPP+2HePsz3ogcE8hK20QW/RxcQdwUqZW2OmtjWzuFi8+6AH+/3du9U7wKtSjV2UI2CTgiuQS8a6BYtJ1T3WOWNVqaUGmikvKAk6nZ0rjM8bDFte7b/N6Nf8SMgU3mFFFc45C+Z1+cIkxY9AltlFnu+Fuu4Zs3X89PX/gmXvW0l3AgjYrz4BlqWu1ZspgKO0S0CtO58MqLXspVh6/hmuF6Qqx09CBCHwYWATbnJ2gn+3EaONZvsn3081xx4Aou88+CKquZYGkho2NkTwodt85v4ShH2WHBPf0Rhs6e4+aYtesnBLMTQxnIFDxZzMh8Mgn0pbBcgC5dIADjzp7p5jzlx1O+AHykUUdFIlXRrGyEKaEHp5mffcO7eO8730PbO9b7BrcNMRspfhkLpikTpy0lgQsB56AUjHPk7IHMw0DwjSXai7PPLleEo8CLYk+ploJEC6F36sALtc/UWoltS10kQwqdwxeoO8rERWKAF6xfyiU//HSGtcIHPvOHfPqmz7MzLOjFscgdYRqJPtgKu9aVmKCUcgYFfJSxTN5ALSdWqrA+XUNndUw5eOLbd84hIiuENgQT6Ayl42UbL+AcOUDQYKTwYopEJwLO+EK1GoqRXGEeB27bvJtsbD1EM1Qhxoa8KGzpjOQy4ltLmVhaXo7oC+pOsj1KITGEQtqXue34t7l/8QAP9Ye56vjX7XNEKnDF5EW0rmVjbZ14duCm7VsZpKdnQAus1SnPbC7mhy56GQfn60gNZvvhKjVXSlGEiHPKgjlyrvDVw1/jz+77a27iDrowkNxADEJVJWuiaQMpd/joyGVAWmGQHfxIq/izez/L9okTvPV5/5hzOUAzjAKePFIvUEJsyV3mUDxAv5P4kee8hntufpBF2SFsNBTNpiytS/uOQg1ptUJSsezv5UKziJlfWzug4oMySM+szhn2Fx7Kh/nKnVfx+eN/yzFmHImb9G5gEgXJWCGYlLkvUM1M+uN3/wXTruHK8/4RB2UfLpmy04shkzlngjhcUdzIRa19wflATyXFnuN+h6/cczUfvf9THOEEi0lHDYLPjp26QCcVcYWdOscVz1YpzB/8Gw6V/fzYRa/GzxxlyATvUDKKedB5tXkkOKH1DZPaEnF4CagODHn03RNHVehzT6KytdimcM5KJLH015Q9z5TZxhSit2evC5nNyTZfn13H79z6RxzmKLkxIXJwkT71NM54lm3rKK6yQ09YD2z2hzmb/Xz0vj8np57XnPdKDvmIr46yqIQQxmfQFvMeU2JLUdqF50cuu5Lbr7+Ho+kEcRpZDAmcsFVn+DWh0x27T6aB9UUit0LqlWZlyK+jm8T4bEmlusxm2WSLLRaxMMQFczWRSxMddehxVdAyLtYRSrV4R48yLAZ8DOMWl2Ka5cp9aR92pvh7Ko8zBSCnIlzLfoMhHkEilMKab/ipN7yFQ37Kz7757bQLh3aFWgZwAXXgG0eZDTgXkDaQk3l+5aqUZC285Ys8qBCaBk2VqtnMVsUsF1DzOhMn0MhYDDq06MoYULJtb6kaLtXhgrOYI8E+C0gq0PUcmDhSD//kR97Dr7zxvfzp5z7Jp7/1ee4OD3J02DJLBoGcDRVcon+7GoZTz5P996keJG7iD7OXWCKyUq1dpKO3GfCIQKnuWZU/0vZDCIb0FkP+BOMG7meDlz37BbQzI6rHaPYdWgouGnrsRRhKxQVH55R7dx7iIY6bD94yF9p7trttIo6btm+ia15LN2/xPpC8qeNltC9aGp5bZnWh9wP38iCfuuGvuXpxDQtmFAqKI4tSVRAcD3ZfnrdGWAAAIABJREFUxKHIXNEjlewSO9JRmkBMLQfzPl70tMtZHyY0ZULOVtBm5pSmksqC4FtyERZx4LZ8O39x52e4nXsYmkSNOpoDq3lrFqW6SnRWmKzFliEnkg4QGvq6xbbPfHb2ReKRlrccuJJ1Jrhs11ODKZJFwDlPrZnQKy8+5/l8lavpuIXtukCcp6oVyrkUFszZKTMGSVRfVwbwTuvYPl+igXb+1QUWvmPrQMf127fwZzd8lju4i56eBR0THwgysTxmUYpJOc3mJihbwxwnA3/20Kc5/2nn8Xx3CWf7g5RsN5e4Si4VcdYW9gpDVmLYYMgJmsyxuMkffPtjfG12LYuwQw49pILDozIW/HU0DpYWaazlenx2gs8c+Usue8azuWTybNiE1ptR4VwHCN7U6ap4ApFAqIHIhLZUulxoGmc+gkNHcA4i+FxZ0LGQjsYvzfft/Dnd+8pyaG0Q5ygysN1scXW4mf/z1g+y6TbRfYIOCaeQciY2LYt+gY+OzXycZtpQsqdkpWkatrsZCvzpQ59H2sgrD72E84ZDeCdUr2OihkItkAQfIEuPU3jG9Flc0b6IL/VfJqVt1qZrdKlDwoQQIiwGmtjSl4pgopnGB1wa3QMkrWyLlrGNRiFwBNaoeUaqhcnaOn3uGBbbtMETYkuvSq+VEFukBHRUQk+8o1SzgqriqDhb8KGjF+x3mJjOjKfE+L4pAPeqd1d+Snvu7cdWqMj4sjNT2lgcLpvZ6M+84e38zFveydrgiB34LKARnIxKLkVTxU8bSFDHVVlK5vxexUi43guoo+SMN0gFFw3tyMXUvs55ilQCgTpkW2n6sRD0toSvRY13pJAWldh4EMjW+SNEqINZSEzDhDzvaGOALlN2lHe//G286TWv57f++nf4wo1fZJsOCY65DFSsBeZO5ad8h3N5ckHoTrkeu2klbk9LWcaLtczStESNutrOyQrZvUjkf6pV6+ObDN1Y3Ii3PFgRIbpISZUAyB73bxMCrHouu3tUY4adZBS95NuB+eZppZDxwRMlkuYDhzjAqy56BReEs1nrA1ToU087etSVPKCurjhF1SspVu44cS9bdBSv436KKWWbBleEnbJN9olm0lC36xI4MFXislhVa1sNIfHQ5BgfvPoj3MwdbIYdutBRxHKJJQSqCiEEtvsdnFaCmOJRVZEYyaqs1cgGE152wQvZV9bRrERMZU8w1MI3nqF00MD2tONTN36O27iTmR8oQRiWCnfvR26jCR9Q0KIkCsF7RBxFCxpgrh3zkPnMXf+BSy99BhvNGuekQINn0IoEZwpmNRucA+06de546aEXctuxe9kqM0pRXPCUCj44isC3HrqR4aJhT+t3+VzssfnACrq579hcn/OFe77Mn9/3OY4zZ9H01JAopY6cToc6++51RA51vI+k8Qy+cLzb4catG7nirGdR+oQPgTz69oUYqEmpamjqdNKySIl+mnioPconbv4sfzf/OpvTOep6hmHOWrtBGgolZFSEIAEVU3mnnEESoZlwZDjGTTu3cn68kHObfeQ8EEPEa11xV50IRQulKK2f0tLiqoktluprL0IAMpWejsQYtTaU3RtwzzNjhy9odRRfmcs2Oxvb/PGXP8rxZofSFLp+Tusm1FKtnT8scDHgGg9DIpUBLy05V5roSbEwDx1HO+VP7/kMZ599LuvNhAN1nepGKy2cWa6MFi7OOZoMh/x+Lj/7eXzlvqto3ITSJ2KIlFpYLDoasXnBj1xvcUopiZMD2fYy0scFuavssEBCJHhPThnvhBgn5LSgOocfzbh1vLHsLjO6kcftdrNkyeWtp6HynBlPxfE9398bGSKMDCz7o0uPP0BkjMTx1lJSDKUZ0TgvHirE2FAreI3EGlkbPGfXCb/6k7/A5/7vj/JLb/ppDpSWkBxRzPR0dNekdoxtXUfubcJywZmtCgVHxav90ZShFnyMFLWXQSoDOMtrVKdkqqEHroxFRDFvLqxxlBRqFchABu8duUJvWeuIt587N37AOSRMKdXT+jXaHInbyqGdCf/Vlb/Ev/2J/4bXrL+Uc/JBNI2xSXFpFCzEUeU4iS1STVnqdLdcWvopWsycWxXQxjOxP1UwKopT1ClOitksqCUCFHFk58hiL9ERQ1shj9U+vGd7uprEnsgwVOFhP33sn3eOnOuYuuZw1RHUvNIYA+xVFanLe8CqKBnbSAEze5WxBVRVgIBIRMzimZQWSCioZPKgnMe5/PDk5bzpwv+CfYtILIUglhBR1WwyJBj3TMVaorVmSkhc+9D1bIWOwZkZNBoRApKxrFrshNSSiCo02eOKtaDVCTr6quFg3iz4/JEvch3f5jhbFA9ahSANq8UUlZIHnAPxYkkLDkvSqAXRRCzKK/e/mHPlEJLHfZHGrNuIYAp1bSon1jb5+vFv8I3uVjZjMrsXtQgsj6PU0djWCdYMV7MUEUdR+35Ox3tVoHhhh44/v/Vz3Ld2jG6SyJqM56UFcZUQPEUUycKBbspLLrhidV8G55CSCcGRySxcJpHtohqra/TM3DXhFTIqmMpz35yrZtfxifs+y1G2yG2iuExWKC5QvFC8UKVae1nMBy6oqUClerJW5qHnpgdvIfuKC56hJJw3+kBVE9qoEzP+Hjp0rXB8/QR/cOuH+Q/d37HJJpVETsUSJMQWDerU2pHoSsPmnalPM4UZifu6wxTfW6ygn1IHT3CNKaAVsyQZH7RDBw6N1sPV1OVi1kDOB/KeZy+EQB15rKt5m2VKzK6C1Xuhp2e+f84Xb/sSxzhKlkwpEGWy8gMsNROCgFRySniJOG0MwQ9CX6qJO7RQQs9mHPjDaz/OibjJwi8omokuEmtAUzEUVECyZ13XWVt4LjvwdPaxjs/Bznu1xJNGvBlYi0LJKLa4ri5TXaLK8jjDal6tY/F39YPfJEVD2isZJwnRSi3g3BTBo9nuM2oBHfAu20JBhCI2iyL1JCsn8wM8g/491cf3DQK4HLsqRRuqShPNm0p0ObFUCmaWG51n0k6Zdwua0BIGaLLyK2//Od79hrexXhtCLww7iWY9MhSL1fKtXyl7fSNoZkwHsMkpD5kYAj540pBw3oGHOrZwS+2RqYMoFBx9ybAGeZQIezypVEKvTKKn6wspZbxrISlhJPMk4xubjcNSSJyUXMyfTaIjLxISPMFFhi7jxTFxkbpd8LOGVx58MZe+8wf45Nc/y+9/80OcWMzIEyFrooRix+gDi9l8lwtTTSBzetBsl669nHDspa5jisrSTHrpQr/7+8uUFdFi13Lch6OuZLP/cEjLSko9sW0QB52WMYAdls3zVIspRcfjd6rjeRBMX1EptVC9IN7inizhA7RWMoVJs87QDRwK+/E5cikX89bnvIFzZoeYlmiWGOqp6lYv14qO+qFKu69hU09wy/FbuXN2FzthG0Hx0lC1olpxuFWwfdJsL6yx7Wty+F0QxhDbwsJ3fOPB6zkWtlcRayYa2kU19iK+J9fZduM0zuFRLt53ERt5aukXalZLAEPK4CD4QOd7joYTfPKuv2RHEp3XvcmLu/t5xJ+dRngjldIU7hju5asPXst56/tZa8+hlAEnjqzFosjwSIFGYd9kjfObczlWtxlIVggsRQrBnsmsBfEOLad+E0uFUDUO2pZu8zc3fZkdOro2WT6uV1w7IaVhBIOXz0ddHYGMJ9SLp5JJLnG0P8E8d6RsUXSlVpxYrqyIoOPCVwN0vueWzdv55s7N3B8eQqIj+ojq8j7QEWeU3XN16pEIDL5w3/F7qYeyFXo62luZZha3KhzrGJ3nxmVdMQNvRto0u2p6cAy5p/q6ug9255M930ctGSWvVQ77E3zh8JeZMSdpj9d2vOg2v5y6xnNjZJs6HZ/V0YtPoUhmy89oc+SbD97Ilee8AukLscaVKXNRpdRC41p0UCbOc9Z0g0v3PYsHt49S6mDWNHJq58Iv8T2kVlTMAmbp/mxZ9IbcFweZTAoJVk6SdbWUOOl4dLn93XHyc/APZc48M/4hje/5AnBl3zL+d+9EJYwTXzZvrziahOZaEB9oJxNKqvSlGo9vqEyy51fe8XO8/03vZJIEKR5SJU7XqENFquJHpaCFshczavaG7ISptejitCH3margJ5F56s1uZXx5dmnglntu5+pbvsFmt82999/HUAtDNePfoB7tEy9+zhUwZF5w+fMNXcqey595KevBkxaVycY+0tyKTcmVYdbTbqybcLgmXFVCFKsSS6UVb0KTCiU7vJ8i23DQtbz7hW/jBRdewf/+mf+La7qb8NMJSQquhVCEtm1tkq+V4lqbzGsavdDq6nosycUZHdujapP8sh06Zr6qjqinuJXS1C9X+zq2zXVv7J6hR7YNQ9GeaDF4ei7jY9tmFcyMVRJJC+IHCBV1GcXhmgatjqqWVKGaUfFm8guGRLuAU29Ii1Zq7ZBSzeIltGQ3QXLkQNrPNEXeuvGjvPY5r6GZTVmPZ6EUMo6iDR5wrkcpFGevmVhhp99i+6xNrrn7GmacwIcC1ZvIw7MSq5Txhb9Ig70ynazOxF60F7HrNuTEQ/0RXONM5FTLGO+le86RnOb8jttUcFmJCE/fdwFNbnDFuHEiphxdPrP2Yi58+8QdHGOb7EeY3y8XEI9/uHExkSWzzYIv3fM1fvxFP8R8a04MAa1jAVSFqJbCUoMQQ8uzDj2T2x+4F42FGpYxfDoWOEpKaTwPj4yyVIFu6LkfU2VnrYbcUigp4UZ1JwCnbGr5v4qd85orM2bM+s5Oi3MmHMPhqok/qhaK85SgLFzhuttvZlvnJixz1rGo6Io/bEX9w8/ZSf/v4IHtw7sdF9VVhq0baStmKL88P7JaHIlzoHVV+Nl9aPvu+x7WHuUCiuKjow+Zb524m/vZIQUxSo2YIIpa0FVk53jP7eleLFHq5bUrDqQKuRTm2vG1e77F5U+7nKfJFFd0VawGhFIFvMWyOTHRzaXnP4Ort69hUMcgZbUfC7xTqrOFX5SA30uV+S50M86MM+Pxju/5AnA5lqud5WO0MiyuFS+Wmbnou1Wax5ASOVdCaKBAk4T14vnFn/oZfv6t7yLMK1IEUoHQAFiUUNOgFYbOVIainqHPNE1LKYWdxQ6xnbBdOsJGQ6Jyw63XccMtNzPrF9x6123ceOcNVKBnYEaixjEWyHsylaJiwe+lctOxW/EVPnr1Z4BCS2RK4PKzL+EnfvwtSIm84JLnQ5fxA7TNBGolp0z0niENNGECNVnv2LdQrKscRz6hK1bgxRx5/tpl/Mav/Bv+5Qd+nesWN7PTLCjB4q60mphARKilGncHGZE8Rx0nWtidYa2FvTuxL/lthnPaC0ow0rMKeK0n+VMtJ1AVHUULsOTInIoyfhfuosf9CQmeohZBFYLHD46NtM4h9pO2NqnYRB/clKqDRXg5oWAIwjSsm7ULFe8U78xn0qvD5UAmss4+nju9hCsvfjkvnV7KWf0GSMMwS4TQWNtYHc4pjkKRDDXauR0Rruu2buXqrevo6EbfOjOIRnRcEFnhVoAhJ8qSl6iwdI/VEQ1TtUK8Gzq7Bt4WQzhBRkPfxzK8Gpf2LA5y1uQswk7AaWIvapxzsnsIGKTylduuRmOgzzuEJlBGxPXvOzRnfPT0uedY2eTe2WEOTQ4gyTKWnShUE4ZUDFEVdVx84OnEByJeAyJlVfQuUdRlus6eEu60o68DDVMSls4SvS2OhlxwIfCd7kkV7LsFTxazKhlygujRPHK8EPsdA7jsulFZhMRt+W4cYbcrUooVSUvagsij7l+8G6PbMha7u0zrsHtGRMzCZSzA8G7JhNzdx55z58TK3mEYHrUAtDVlZk7P1XddR4mBEnoUi2ZDC3HsH+vILj4pW2SJmqlawoaYG0N1JuTKFG7nHu7pDnOeOxutFVW3SkjyI8/OORNb1FQ5b/1s85Q08sa4qBqRdDF0TxBiaAg5LE0ezowz40kZ3/MF4FIocGqLwo2ohsjIkcuZnLPlMeaEd462mZIzhKrsL47/+V/+Oq98zovwfcVVTy5KmFiBSFYLcy9AKbR+hO2zWDJBherArbXMXWGI8Icf+wBfv/l6brr72wyMHB4KwQdSSfgY6EKmqjKJgZJ6AKp3VBHCNHCknxG9J4zEe8pA0cwdR0/whQ99C0flsnOfzcbQ8rbXvJWXPfOFhB1hf1yn9Eoz2SANJg2O08Z4g6nYO1Y8avOf+YM1jmYInDML/G/v+zd86G8/zAev/2PmMjBIz+Adjoh4x2LYommm+OyAMHZb6ngtdoUcqO5+dwwRKqoUZyrrWCt+pKOh1dbJoqNa0lnuJ8vr68bC3pzyrTX85I6aFBVPkIAblIMauPL8V3HR4mIOD0fZGTqSz+ykbR6amwK3qwMWyBcZchlLRGc8vZqY0HAe53HBxtO4+ODTefq+C7moeRr7yxpuu1AzxAbaMXXBiuiM0wGVhNRKrIq6StLEoi381Q1Xcw+b9M5aUKn2Jg4ouhs9JYZw9CU/rI3qFPKI1BhqW1kMvSlF1RTKLixNqw3FLo9SUIs6Yo1cuO9C1mSCr8bXUtQWHMvFQxCGmtgpM+6uD3BUj1OiQ/S78/YsWiAqpWS+ffxOnn3xszhYW0JSvDiSFjKmokULISnnTs+mJTJ7BAl3Ko9emJrN55KrWPAxkNJgaS8xjjZMez/w8HlOtaBqhXdFjF+J2YlGdnmRImPh4pTslaGFE+ysCrEl4uuXnpB7BBzfaSStODxd6iiyVA7LaevGVWE5snvtuE/+dxjRstGO6jsOqQyamJU5d/f3cdRt4qOsYi29iM0ppwFiZaSULAt30aWIwnw9xSklFHZyxy1bd/Cycy4f7bHsu2kdHR0UnHdosczgg80+WgLeoHLrDtmZHAvekTsamhWH/Mw4M56s8T1fAO4dKzR9z8+Wtiu5VNq1KVkruR9Ym0zJ23OkOF5y2Yv4P/6H/5F2XmkSSPFUlNB6FrOB6aRhSTbSXKxF4hw1WX6lRFjUgkwcH/z4R+lD5o8+9WFyULZrxw4L1tbXyVpHg1lIKSNBoXH0Q4cTKJpMjSlKlwe61NE0LTt9xyQ2K05Y27YkFTa7TdabhquO3sC+OuG2P7uXFs9PvuQneMdrfxI3F4bZgnbSIkWpXTJlc/BItbe+CIiDRh3DkJjESH88sbHwvO8H38Gi2+bDt30C8S09CwapxNaxb9+6tbnEnbZ7YTwxtf2wa4ei4zWRJRKw4gPC0pZkKe2pVMqeNpTD2jMPu8hP4ogxkpOt6rUUNAvnxfM456yzmemC4sVMt2NlkIFBEsVZi7MiuDBBc0VLITh76RkHMNCUyL5hQtN7mk1nxsy+pQSlLtt7oiAF07nm8Xp6s38Jldl04PO3fYmbFreT17y136UypIR4EPzqxVxltLKUJbrCaF4OjDYcOrYHVWCRBjJ5FFq4k3wk8Y6a0nf2kVSH18i5G+ciueKqMqovzEhG1JSUmimucnR+nJ6e0irOCTkPZpv0RK5fCCsT9IHC7SfuYv6sjoNhDYYl8bEYciOCV7s+G3GdlsaK5z1oF5hIyrjAgjwKGKoOFizAOUPEnYkmVv6Pulsi7XU38OPz5J05CrgYyBTEe1LJNMvrOhopy1i8F5TsKjlUWwtiXqLidr//qZngjzwqqRqHrRu6kWmnu6w9e8D3dANGZG8U6RR2OwO7iOPu7z7aUMBPAkd2jtHTIY2SSrL5Mdk9QjHVtGD3/pLUsKwJ9+7H1qvLIhWKK3Qh8e3Dt5LOydYudvbd64guGNXGttmEhvW4jieOojBDCfcOqTq27QPlH8okdmY8Zcf3VQEID68LSh35H2PBoamy3q5Dl1gvnl9973/Ju9/4dmIPDQHNBVRwrafvlGatQYEhZwuVjx5qJudEbT2dK3S+8Acf+RAf/fzHmNGBCMkliig0sO4acu3NMqANVIRmfcqi79GSzQzagW89uRh3KDhvCtOU2Ziu0XUdbdvivKcfFmys7UOJzEvGtY5Mz/HFjHWZ8O+v+V1++5o/5o0vfgNXPvcHeeb607mgOUContIZ4iMYJ3D1qndKDNUyROOEvFWI2fPLr/oFXv6SH+LXPvLrrLUtCxK5ZPqZpQSE4Fl6dKF1bNUuESUrjIoBOav2oalW1LzTPMZR0r3ToSOUsV018iZjARl5f4C1a4Ank9zsFPOBpKLeE2IgZ0MIYt9wQCJahDRkBjLrriUET0ChVHJRqm+tBVUSXirOVyqOgqBFaIqjwdEGS2jJmpEQKUkJDqQOqBOqFLKASCA4T9XCcb/F17rr+eSJz7HJzNp8WqxNFyNOAnWpVMZewJUyKrXlpOOUPWiJFffWKjaxSR35XOO/O6GWR6p8dosKpx5Hy6RZN6q+VLR6nPOIFPs+Q6L4jJ/C9oktFnS4IKTU4YPfg7A8/rH03Y0+0qeMc557670wUfpZoXETMnn05iwo5gsYnFv5McLYunRWytRakLEYfDQOoNEg1EQAzoRbrffo2I4N4fRI2knHsFyY6q7wZ1XUqKFsy+euakG9Ik7tPsKeyWURveQxLou/JS/wYeds7zGILUqzWOt7iQjb9sYg2hHtU4w2oBRDCfccw0qgMn72VC7p6UYVKE7Z3D6G0LHeBE7M+5Ufp4mbRhvkutspqjLm/O7ZzvJ7+sooPKlUqXSSeKC/f8wmXopJrAAUsZQTrYXgHAHBSUTZ5Tjv+oDafOvFtr4Uge01gXns4zvfV2fGmfFYx/dFAbiE+PcSe2GcO0dEoSrWGlOHzxVXKu//qZ/jXa99M+vZo0NGSkV8oPQVKeC8rfBygTaYwabWQvaVvhHKmvC7H/kgf/KpjzJoYWCgRmGoA8VnxIuZ2WZDGJYka5VKHgqTpqHPPdEZ6bkNgTq+ZEQrNRe88+Qy4IPQDwtCCEwmDX0/s4k7ChlDlFiHbQa8ero840+u/SSfu/aveOHB5/HOH3ozr7jkpehmQWbKNERIAsFePjWZoalvG1gkgpsQOtBj8PxDz+MtF7+ez979BSLCAOxjH55dny4P9iJjieEtr4HixyJTR2QneaUParYho6VIHXljbpWoYat10bpqm+wdTke84UmcB6sYIulDQ9ZsxHVMTemKIUW1FpwEGglWwKaK5EpA8C4wJIeIEoloyYaCOmFwwUoDgxgY8oCLAaWSc0/0k5GzZwY8QrUCnEhHYsuf4C53H//fDR/msBwnRzMrLsX4irGJDP1AcB7xsuLwmXvEI5xUqeZLyMh+qMmQ2lp3UaNRil6KGYqfWkCcPByRhiZMiNETxJHUmXm0GOfQzKAzfR1IkmhpyHkHUPbQx/7+17CaX2fbtnSzzvZVBlTMKsZsQrCCopYVB8yPEoxVrrMsC8BdPtvSSF3Ge+VhQhipZp1CJNeC80IuAw5P0zTknFcI0vKj7pQ2sKplidt9YDSCGCOas9k5jYWcjoIIGHUzasjYaht7rrn3ftU5eTQkzkReeUSTHTomU7g9Hph7xzAM43wlq67Kalsipkrn5GLwkXdeGXJP01ocWr/YZq2dknKmCZGa0/hSqIhGM+U+5fztzRmWk3iPplTWoAypNzR3bP9WJyxVucE5qprh+M5QrUOEJ4QGqTsmsNE9paMukccxmeNRWaInH+/fg6Z8ZpwZjzi+LwpAOL3KsIpNyLZaMz5MrDCpjl98z3v5hbe9h2nvTUDhLW2BYu2soYD3IGOqkw4JiY4UCv1E+M0//SAf/PSHGVxC4zK+x9R0qOBdQ6WQshHnEbeaBFy1l3bt5ky9p+RsF0IsGspUj84iv2ox8wcBCfZSzFlH65eCd0acdgVADDmiIr6ibeG+YYujJ45x1aev5s0/8Hr+6Rvej6+KW3ja4Mi9EtYEqX7k4fndZb5CM3j0OPzqD/88l/hz+eIdX0SBfRzgikt+wFDEAm1c4/xzLqBt1gGLn4oxcuON11Nk4N6H7mTHbXO4HuMEc+7sH0SDYy6KtGYYVlFqcXhpwDdQE5OUqM7apirWZvSjzQSYTcyTVgSqUJ2nViNehZFwXkvG3ohKrglxY6t1PKnVKwMyolzZxDNqHDw3esZVdSDG6aqiY2EMTjxOIjVb8SwuUrXQ1kKLo3OZrXbOdfVmfv+6D3GMTbq2J4/cMFle5lwIzu9yssaX396/62hZY23gaoh0NY/KJc9PMfRrmZu9yroeFzyPNiqVxgdqsu2XoeC8J8ZATr0tIIJftSMH8miG7kb07IkN5+ylnlA2wholV/MNBJaRiFZwB1KxRZtqj9tzRVfnakTOVirXU7hwK1ENYxGggBcyA95bc9KP84cVXx4eA8Ip4/VZFk4lZZrRBDsjSCl4EdR5gmSkFMKehcNe4ZZj91hOask+YuGxe//UEXGT0ezbjtOPtI/RGNqbOYz51OlJK7i9+zx1/9/x2GXUwsdA2XPPuVFl/Ejfe9zCScdX0ZNN7LHCdtUeH1FdW9hnVJzxXUuGYPs0C0lTdC9FcLXWXVR1j8jpTEF3ZjyZ4/umADxlLlkN55YO6EJDwOWBFz/3BfzyT78P2U74ImaiN3awJAg52/rPVUFzhhiQqadEZdE4fvdjf8QH/+KjdBMYdMA3gTIkvA+GWoTIkDMxtnhv6mEpQkmJWMXQn9ETa0iF0DjcpCGVgWEYaBpTkaU0IK4ZvdROPjhl6RdlBaUCDr+KEhYqxRfqPsciD0DgT278JIePPMQ7XvEWXvHMF9NtVoJzdItMlFFwkSvSNDAA3hp20+xpdxxvu/zH+PGXvAofI01qYDDML6dKHZRps05NDq1LEjq8/IWXUZ0yy1uwr3Lcz7jugRv4y6v+mm/lm9mPZ5EGtthCJhCCCVNSNm86B1Zo7bm+S/7Nkz176pIHVK0QiX5M3aij3KdmQjNG6pUy2oq4kQO5jAUcRnL/qGoWw1J1+ZpwhpRoMT6aVuNYRbF/62rCOUWbyowF2+vCtds38YFb/pjDHGfRDiSfGbNJVon0sB8HAAAgAElEQVQUwnhH7UFa9tpw2D/JSnhgKMapY9dY9u83TAbQ54EwDZRUaYIfIwnNSsfOp7UW62D+mEVN2b+yjXsi36CacMnHSE555HKaT1sttvrzEqgVQpgY7zUKTTNZLufGYuWR97G0H/lO49EEM482dPXcM3Jpd9F4lT0Nz/FeDVX/nu3Hk/e5RNAefhe40/70uz0smU1RIllGy6XloS7FZSztotxpxIK7f7f2sIlD/HJNr8YN1TEXXUQYSkY0EbxlchvlRVetdKGuuM1laRHjA6pCrtk6JaViXuyP47rrf55zemY8dcb3TQEIJz9LOkLv4gK574neU7oFr37RD/Ib/+2/pm53rGkL4sDZ9KiNjFG71ewYumQvRE3MfOb3PvFhfv9TH2GbnuLVIoSmE1LqVw+4iCMVRXygL7bqjeKgChtuyhRHKMpEHZnKtq/spB7voc8FP1rOpJTGNtDJx6YYN66ME5s/aQVdjMOiy5WxoIPRsrdLx771/Xz+yFf42qev5hde8VP86PNezUXrF+FdSzXrf2sPAbOSTZk8KB4x25tmjbU6pWxnomtJXUJjHFtK4BcWWO8UmnGeqjMj8x/wG6RZz9pkyrnNP+LHXnsl7Atcc+c3+eg3PsOXhquZh54hzUllQTM5QFElF2xCVrc7sYtbmfg+uVFGivNjLmtVajbRi4qiwXzQ8mDKSD/a3VibS6lpoKoi3gRHLI1pxSZ5JQOm8HTicC5aFvRY9DjNaC1MgzB3HUeaBffF43z8zv/IV45dyw475MmumrqKGUY7Ck4zXs0Yvfho32MsBB0eqfKw83rqi1NWNho2Hvt1GNuOIxer0JPywtZghZVXZl5ywsR4n6EIrV9HGe9rfTz7PP1QMVXmeAURbWiYIFkQrXgZ2+rijUIiyzIq0ff9ScXyapvLP9+t9cnIeX3ESlfdanJwjO4HevJcWGUsB5UxoWe04OHRz+HDOX+n/z13mr/9p9boOzWRhXOBwQU654hqvOOKKZSjc6vWad3zOTn1QMZFTjFzSGsX14Cvnv0cILi4aolHZ4s0Rp5rVfNOVCeYrX8ZkVC7TwtqNrFq3paOMKYC6biQf7xHfob/d2Z8d8b3fAH4aKvr0g8caNZx2cKMfvk972NCxC1bBVUhimWdq3UMnFML1fVAI/Re+cAnP8YH/uIjbLqB0gjRB6iJlHqbYF2wVq6PNIipyRY9+8IElyCgvOeN7+Typz+LqTTEAjko/8/HPsS1D96Irw1RFJVsfmqipD7jnCE3qBttI+CkVaDunWT3KAbHycWHwHxINJOW7TwjtFCHxO997Q+57o5v8ms//Wus+4qbB5rckBJMIjTrwSwQoxUDk7YxU9eF4saolegb0jzjvUWgCeDqUv1n6ErEWUqKOnyaIL0gg7UIk8tc0VzGc19/Gb/11d/lLx78HJ00xGlg1u+gPiCiKxRQsOJgF3mwYulJKwKlkkuycxEaJNu96AKkWKhOjBRfZdWaEkCc4CQgbrSrUGcWFAQrcmXkUI2/C9amLHXkh8bK4HsWDAxNYdvPue7ITXz2ri9zmz/KscmMoXY0wa06YLKMP7OtAay8FlVtP8ZP0lEK/PD26ne71a5iGcc7ww6pDISwj6EOpo52YUwysULQFcfZ62fZuSZSi/lm6sOjNh7fcOYRp7ngCVzI+azrmhH2nVmD1Kp415JyJsRI9R3Hto+PZ7E+4vzzWG7L5Wd372F30n9PPecnc9b2fGZPq9MMYczTbi8auNyq251InvA43bNnRbvuFp6njBX6/ESHOpw61tt1clUsODoRnTeTfu/GuEi34gLuvSonfYexw1ABRPEq+OqYlimX7n82kTC2sB2ND1DNu9WHQNKCw1HUYgAzZo7vUPJSzFKWSTGe0hs3U1RPEsOcGWfGf+7xPV8AQj3tXLYk27oKIStNcvxP//1vcMUzL6POBtqmRRfFVmRqxqHBeUKtDH2HX1ujeuU4Hb//iT/mdz7+IUrrSMWi1JRKrQPqhRA9fRrQqriUcdUxKY6zdMILzn0er37By3n3m95F3lqwJhOkemopDK7ysn/xSv71b/0Gf/Xtv0O9g9CQ8sAkTCj9gFOhiKM4d9JxLmmHyybcqI01ZFD2oCyaCI1QiolMKJUaK0dK4QtHruX23/xn/Orr/imvvOAVsCNIEPrqkFIJav6DJYP3au1w58F7SjdANgUlpYJmM8nFrF2ceIu/y4WqBV/D+H0q3keceGKJNB3kezL//IXv5dL2EL9918d4YLFJaAXXVEq2lo6KFS9ltMkwttKT3w4R2c37zaUQxZNdZYsZGZiGjTFCyq9EG6oVVwu+mN9dEE+LvVQGEXQMnPKoeTi6MTqrAZrKdui4zx3hPo5y/Yk7+MJtfwMo23QcLx1uGqB6ihqn0ExoByoNSqQIDFJwZPOhE9ujG2GrwFhhq7AsLnRPpNUyP/mJvbosTSSFzAObD1DOE6o3bqLTQB2TdUQqqoZYnTU9yFkcYLvv6L2y6vA9gWHaFyuOYw0879ClbJRIRMzcWDyo2SY5EaqDJEpHR6JfeV4+kSGjqbkVZ3v+4XG2/Kx42RUKLAUPTrFiUHfboMvkjkdCnx4r8seIg56KOp70vWTvbz/yPh7vEMBX4dD6QSZMaNMCpwnnTYQUmnbME64jaq4nC2hOmkNGyHZ1PT2heKY1cMnBZ0DaK3BSXK2EYPnFuhQPamUnz0hkdFzcSTBaRy02TzgXSJi/o71FzhSAZ8aTN77nC8DTR3nt/qx1LbXvef+73s+rXvgSysysFkpn8XAhCot5ZroWyF0BJzRrE4pXtrTjX/2v/5a/velahomjJxFbB5pBhTCa3c62Zxzcd5BSCzE5YoH3vO7tvPKyF/GKS19InFWao5WpTiE7KOA0GBp3bMGv/eI/4yv/6lcoNTEbeqr35hfYxJU7/3J1ap5ey8mzrrIm93IgzSR5V5iitRhhXSsUy52tbUOfhcOLbf7dX/4m73vpz/L6F/04ky5S5kpTHC5XwJuQutSVdyACvmns7ZnVZNLjsl68N7UrY/HgxySAWsGZwjcs32tWN9IOnkle4ycvfTM3n3iQL259jSPpGLM6x4cG3XM4u5P5iLZ91++oxz7sGhgHsAJ4h0wCO26bGxa3sCM9ddux5teYTgJN0yA+jDYVBa9Ks+ZoXUPLGk4a7HWleC2IK+AcqQzM+4FZv8OxnWPcs3M/N23dzm3cz5brGNrMUHvipMUXR8pp5KIuxQbm1VbIoMaxK84WFm5lv8HYpK40IeLyLotrb8rO3hfoEy0CVSrFK/ctHiTHRE/Ce0uCKHn0cVOl5kJsGya+5bL1SzkyO071lU67h/msPd5RAa+etjS0NFy0/wLcXGl9pOZscK4AWhAvpFwpqsxkwYKFtQy/0/bHAuzhLF4bTt3qmd7tG8vuZ9l9tnfPvT2X4xawYvqU7Y7PiegowtBd7MtSe8xq6OQOwuMfy2fQ7dnOYynsvhuovSj46tgXNnhGOJ+dYZvBCRIwRe+qAHYrm6lVUbycOU75Hm4skkUhVsc6Dc/YuBBXzbu0pGp53ksJ+ij88+JQEY73Wwwo4kdu7egmUUUQ8aNnqFJK2hNj+WTb2Z8ZT9XxPV8AwulfTGBE3lCUX3rP+/nld/wcupNoqrN4uJGwXzJMJwFdFMLosSfTyFdv/Dr/4n/579ihUiaeEoxcpw5TLKoYKuAjG3GD6RCoXeUHL3kJL7nk+fzcW99NWChh5vDZUXPBiakqli/UkhItijQN77rybXzoix+nOKWXHhXo82CqMTFPquUL1+9RP8rYAtsNuz8ZKRSteB15iLkiMZKLkgfFh4btppKGGf/+67/NvTsP8f5X/yyThWdtlXyQbbsFILLMETYbkEoQj3qPiKk+PWbhYiZdWCvRmVl2zabK1lyIKngR6mR8sy1a5N7EP3/VP+Gim87nt2//EENUslgB7ERNDKPWyHSjwfTqvfmkDIfTtdXf1Wc26xZffegq/vDIJ7iHI0zYb6R7C38jE1ZqcNPAJjyBSGv8u9W2lzKQat58yMgMdKiz/NokA2VU5KpCHhLeKaGBlAqMVrMOqOoIVHztKQK9W8b3Wa5pHflNHs9anOD7ZQbz6Y/81B+v/v+R2qGn+QUV6KWwzf/P3ptHX3ZV952ffYZ773u/Xw2aEEJCEoMkJIGQsIE2eMDYxmA8AMaEBOOh2yvJ6n96pddKurOSTrrb8Uo7Qzud9upOO4kbM9hYYGxkZoMRgy3MJAkJzQJJaCpJNf2G9969Z+o/9rnv/apUIFNVbqGottZP9epXb7jv3HvP2Wfv77DgkdljnG7XaZPDiqVEhVEYFOeVSsRmuOKcF3D7XXfSl555iSD+Cc/St4ssol7MwTEdOp7rzufs7ixMUJLO6IWbS6E4vehN0irR7Q/dyYyebE5Mh3BnO/TbXcZPfH2vCB/L991ZpZWMKZWgVPGzwdTb8ztsoL9THEvW5nEVzL/x0Gt0khtecs7FPPStezlYDH2txCtwcwUTMWRi3TAvz5qsWu0y3i9FE2yH5SKezXntWdjeqqZszjjrqsJErhta1W7EwEMbj9GjwuUGWcoCians+qQSWlEyyahy4qk4FU9W/BeRAB5rfrRFd37f/8IX8/Y3vQUzRByVOWgNcUjq3QqUVFsiJdDumvDl22/kH/6b/4nsGyID87TAtg0lqUSLKYXGelIIChhP4Im87cfewi/+9Fvxg+A2Ci5ZCKLlflP1NzIrqzQDJnvSkLjsuRfT/oUn99tIh0oapFgrMKW2546cYA3HmkB0Uto5sRtjIOvzUkqElGnaCSEmgs3kBrrkuObOj3Hm+hm84YrXwYbABpoEpgSjTI7qfVRWpNOOU51EUxzrErIqUGStLpVUiCninacUq29QqhlUsUi2rNl1hns2eMPlr+dD3/wzZosHobMElxgrHaako7KNE8v+Rlbs6n1WC/oR7aKdrb6iAhpaVRFyqsPkCsFHDpotHuEwB9fmSFaLKCHU97SKYyy6Si/dFrJer5JWJ271mVXew6iTX84ZX6Ra7Gny1zQdMSdKTqQ+4r0hRsWBjdeILoKpMsY1ATDjV69+twZ1NxmFeI+uAppScZisruPjjSyQU8aK5d7DD/KcM89DZtBkp/cLqi3onGMeAm3XctH6hZzDGRwcDrLd2SqtYhgFf5fVsqNwb6OjxlhjG/9SssEmzx6mXPXMyzlnejqTzY4wRN0kFlDnBsMQB5z3JF/42mM3E3yqJJvVVXNkQpdX7hP1OHeWx7Syn5cVOj1+Wf7bygPnSBzft6sYja3Yo5Mw2VGdK9XGz4x4uJPQwl7VilfHWupI550jLvmI/cHRmnzHExahDZYrTruY6751HVtlm3me4b1hSIqnXp75YlZs7eWxjGOTl8dkssPHhikNVz3rRZxZdiODVvCsFWLRNvsov2OsIwyBQOTB2WNsMigL2AjWeMX/Slat1Ox4xq4zceLRDeTjx0B/twOrqKbPR7C2j70p2Dm633lgl6TCUx3op3U85bcfNkNjVQhUhVMtecjaVkuWX3rz32INh421B2J16jNKywLq3OyF3hUOhE3+6f/2P7NFz8IGTKfJTEqpSk8UKJYYChItu9KUv/tTb+cTv/0B/v7rf4ldW4ZprxVFI9UyaJTFGmq/JOnkE6WQ6sJ06UUX0xpHKj05q4h01rLbqlJQdDEfRTzGx+PPGMv2T/12uQiRmjyUoppjcQAixmaG0tMbNVX/z9e/k//0+XdysO0JvpCNJYlTVqrNFJO0glpAEtWLNLK0WzcwhDmDDPS21+pVqYK3ThPwkKJWt5zFRqtyO7YQUqaNU7pDU35yz49wKRfQLgSToIgH01DEUcSSrKi23QlMYLpYlu9Qtai4Q9kxIRdL5U9WXcKMuAg2kOgpJrKxvUXAEXBL7UJF9OnrbFHXADdWlEbizPjgiORPz2Ep+s8uQ1Nrhfq+AiLEXFtKpmCMJScw0lDGY0BIAsEISQQpgstgS8GWgqsOFKZaZsVUoLpb2KJsc1NB9wLVD3hcclbX4AhXOPpn53cZf0yBxhkWZcEtj9zFQT8juKgSkCaABIophJzw0tAuWs4JZ/PaC3+MFseECSVbstEK9EheMVgwlojV758FkwsuFzoxmJhUby8BxuGj47mcy8ue8SLcdlEyj2vI4jBEWpNJ8zlN41j4gfs2H2AgEq1WesRWjKZR32sLy7nFEGvymY84p6VeV0kyqTJGd16H2rZPqF9EPfms8JfqgpGXCV1t7GKzqQmfqSmDqdUt/VSRgpBwOdGgVdVjEzm+3fljeRz6QGEwuXaTU63YR4NeZ2IpMeOMnp8yKi4kgxR7QhVDU+egtdBxQXo2P3rmj9IypaDajcYmtVys3r0jzMHkgrWGkpPOolJorHZTinhMbpnGNc7lXK48+zLabctanmITUAWh9Twr83eQSPaZjbTNTftuZ9sOJFcoFb8dS8RKxKSeNhWeufsMyuCQ3CJl5Xf+uO9WoFDo2hY7JNpUsEnNCLIUGNewXMhSKKYAPZSwQ5ZovBZWEjhCWd73J4rDPBVP7XjKJ4ClFOIQ9KYUg/eexjpMhCtecBkvufQKbX2KBWOIJVfRB8AqPi5JJnuhTBz/5F//OpsmIM6znRbM+gXdZEKJicY2uCRM8LTBsobj7a95M7/82rfiNwvp4BxjPGRD27ZaLTSQQtFaqykwJKxzLDVNWsNCInff902G1LPerWOMoe979QUuVNbesSoAq2rB0TEuFOPzHj+Zr2ySijNIJ8zcgrmJfOTuT3Hb4bvZaBcsLIgbLaEy5Oq/WtekWAriLCVFSlNIe6Gc3zA7OxLOERZnF4bTMv00wFQYcqBpPGbiCYuFtmCWbMWCx2G2Mj/30tdxGus0jDtlodRq485k42RFrpPkke+5s6qhEABzBOszo9YZO37q88aJd4zl2JcVZlN39kcu/KsF/fExntMjn7+qJB1JGND3PjoxG7kdy+vqyE/QNL4+L3PU+x71/CMrKMcXKWSSFG6Nd/OIOwQTmM+3q+sC5BxrlVShFLuGlovWL+DHzvkR7EKYlE6xetTKZYGSI4aVt20pBW8dzhjmcQHe6kaoWLotOIt1fuy5P8ju+YRJmVKyIWaWbOQwRHavT9nqtzjczLhj814GIkOJtUFf28TL3R5gxgT9O4eSMarwck2ujxzlvHzeseRLRlUAc8TzVy454zWnt+toyXYk0/hEYhQLH6u1plbGdl7/y2qyMfXzZfn7E40MTNop0zDlJedcwXPMhewZdtGaVmVbcsEbQbxQrEFcQ8rayfHG4jGkvifHQEkRj2USGk5jjZ+59CdZG9bwuVMy3g53F22DoNAeb5i3A9/cuJdNNjGTSngbE+7qICLF0IrFBrDG7zgPdSyRlR4o2hE4qz2b+eEFtmmJgPUO11hNPmMl1FXXoFQAscvxTkvwrln+uZP8c6LV11Px1I+nfAt49KuU2uochgGbM51x/Nt/8S8xQXdIeEfsB6w4fU1Sv81sCrazbC22ufqaD/KFu25mYRKlJCbTCX0MhBAwxpH7xIQOs+g5k3V+4x/8M6668EryVqYxDaw15O0e07UQwRgV9C2uEBJ4b5eVQFcMyRRmLpB2Wd71O3/A4bKtWoCdJlQ5luWEb5YLMit/dVlNpscTWSAGNU+fhx5TGY5Dzvy7j/42v/Wrv0lzMNNvZCZOW8CCg5x1B+/BFEeMicZ77tp/Fx+76VpmexKTZsJia8EVF11OMzdc+ezLGQ4GGt+oWPQ84ycT8nzAuAaMxTsVgI5DYJdMOZ3Tl2mqLSqrMNQVskksZ7DjTQTLjslwuVCP+CkqjADV67JEbIloBa8oQk9Wr4ERc5Ux1RHB5BGKoMdcGPNmUwW7n3wW84goVTcFQ6Lq8NlMtEV1JY+ZyJyMvaPB+ZYhw/54kC/v+woX7N3DeevPYrZVaNuWkrY0CRSvmm+554wy4VXPfAUPPvwI1/c3EVu9z2JUdqa2t3usFZW3IZOKkEjkrmU2DDTOsSs0nMseXnP2K3nxaZewdmgNkRakIBJJOdBnwbgJfR9IbeKR7jAff+haZiaAs1WM2i5Fs7W+ZijWE5NoFbWYxxFmZEfSpt4YNXYwnor+4+MGX/j27dNotbMgJVdiRq4QXlurQI5oLL1tGervTixUXssVq12BoiQeW1Bd1CIIlpIUxjEmjJGkGLgTuAWSQHHC5sYh/LTjdLOL11/4Kg5/4zEenCfa3YZFGBRpK8IiBtYn66QMrgwYEWRITIwnG3XqyNs9u9jFL5z701zuLqIdpiQsaQcbp4JREKAzLQdmh9g4a871d95EqhU4stFNSFGf4IxCX0xpFBfoC8ElNSLAorMby8RdN4iWC05/Dnfse4Dt0pMaT8kDLoHEKlBejHZ2rLanbcmE0JNE8N5V7PkIIcg1CczLjsaTq6N6Kp7seMongOPOUkSIfaBpOhqxvPVNb8ZlA4NqNIUQMM5ixJAWQfEczpIksZkH3v/RD/LOa65mZiKls5hcmM3nuMZTEjjrcQGaPvH957+Yf/OP/1fMRsANUKKAg6HvaaYtJBiGOU3bEpPueX3rGWaDJopOGBYDdJa4bvjApz/E7Y/cjfWObCK5JBWB7oclW23nfbrEDZ2E8TPGKVbGFqx19EME5hxgiz/43Pv4tVf+Mk1xLA5u0xaHWAdiVsUuAznpMT77gvO46ZabuX9zPzP02D/7yF+wRsOZXz2d8ziHN7zwp3nu+gW4uZD7BMZBUUiguiYpS/vAoU0uPPt5mH1fBXTBFMaWhUFZtKMg9vFHlnHnDRRTcTbfTpyh4pskLytpUqsrOxftZXcMFaU9Amd1UjBXJz+kjMdbKmlgrHqygkiW1bV4sqqvKWUCAd96/vKev+RHrngJu+IeWr+buIi03hJSRHxZCvHKwvBMcwavv/jVbN5+gAf6fTzGJtFFnPNkdIFzTu26MIW+WtkNMdHZKet9w+5o+bEzf4BXnf9yptstLrlKAxCcgRgzzk3IOdKnyOAzX3rgejbYojTqVtJYh+JuRSuAomNoq/h7NlWGZxzj+jjLCpd59FAWzKoK/B1YuloR1AzdFq2gZ8lEA9ZkyFlZwEK97nJNLMbzeHTF+7sPKUoiaq3DDoLJBlOlmgxAUVHt0WGyNU5/L5ny17C5e8Kw0E46LI5J3/CSvS+gecHf4j/c9i72bRxm0hhym5jHOU3j2dzcpOs6Yq8YT1fJa7mH3bLOXia89rwf5wfOuor17Skm+zp+qY61QbLsYHcncle4dfMubh/uothMDhFrG638xYBYg5GGitjVtaqoBaSp1dLH52GZJhqe3Z3N7jxlkQv4TIyZnALTtkW1CBPeeRYl0/cRYyzeTUgE5sOciXHKlobl56wq+8cm85yKp0885VvAYg1DDMRcWFvbhUnCFS94Ib/yC29jglWdugpQsVbxKKBtiiEOBEnccOdN/PYf/7/MfaE0gnEC3mKc1R1qzuSQcRF+6JLv57f+8b/AbybWmt3EPiGtqG1ao8lfDJGm64ghYKVCNYaAc8KQF0SfKKc5NrvAf7rmPfzOx97BjMhWWlCsthhKTDgx3/HmPNH71hSDtw1OHBghmUwkwtSyTw7yp3f9Ge/8+Ls4XDbwXVMNzIUSVrIvMRa6RogDtKXjZWe9mHUMPQv2yyEekUe4hwe5jq/zSb7I/37z7/CXj95IWnfgLMYZRs5IGiKNsZRUaK1OvlJTYMkJW7GHq0X0BAfg6PFgB0Z/2XZXeYeEI4kjiiWJ1T+x5IrtK1jVaxRDtKvKouK0CmVHi1gTLXVtfrJDSJiSsEV1AT0RnxOuBFzRqqe2vfMyec0yYoqOtXB9l2ELYjKFnp4ZNzxyOxvrPckvaGyiDJlGWmyVEkqmwZg13MJxcXch/+1Vv8Qrmys5mzPYZXYRyGylBaFk+n4giRCNYav09JJxpeWMfg/nxtP51Qvfzk9c8BNMN9Zxyde2reJVJWecQB5mFCJ2fcKhss1nvnUtc7dFMpnGeigJQ8CNY0bBkpmKocmCT3qfuWyw2XBEulcTMb2+DXJUsrdsxX+b63wU7jYlYcqKbnHEa2o1UCuCBZczTY64HDGkE8KAjZ/vEDrn8UWJUWS9vo0EnNHr3hrFa+9qOjoUiyklKbP/uA9A9TTTvMcEYRI69m43XCLn8Pcu+UWewzmsDesMm4l141kzsO4MLg50Tjeyg7NIs856OYNJmPILZ72BnzrzVbhDES96f0jJuJyx9X6Q6vSRJTM3PWFP5tpvfJ6HeJTBqU6sjkMZScboWVYtAOdUV3LEiQJLpQepc4Ml0cXMRe0zeQYTTosTmFclCOtIBfqwwLuIlAWOSOO0PTSEBVkG2qlFCLiSaFKmSdTr0CHF6TGdoAzQqXhqx1O+AphS0h1dzPTzBV2y/N23/TJNhrwIkNRKyztDCdV5ofXkUJDGceOdN/LP/vVvIE3H4TjDTyyLxQJrDE4MUkTxJPPIFc+7nN/4R/8ct5nwNISNGX5tShpQgL6H3Bc1Bw8Jay1iDMPQI9XvdxEz7/vQH5E9/PFn/pSDzMjWE11UkWDR5DQOA1YM9igc2ckOixBCxLRCKaq3tt1vUhpL7hN/9fBX+Ttnvpl+X2RqJ/QbC1rfaVupzzhv6AfwFkyGn3vFT/GFD36JwGNsNT0DRQm/xpH7Lc5gC9kDsQSaotVVqbJmRlWedYedDH1QWRn1zNT2hXrSapPvZFSidorlrvQVtQ1X0XqrylddYY+Q2RkfFF3cj1ys8zFwdt9bcQRWrMYRMiLLJGXkjT7eJu74I5PLgJjMYkisS8efP/x5LjzrOTRcQGf3IknZ5vM4q64LKscyKQ3tQmjkDN5yxRt51mMX8pl7ruNhHiVIUAa0haEPGOfYU6ZMhpYudVxkL+C1l7yKSybP5bR+nTQfcJ2tbbGI8YacIs4IthE2bQKdzlsAACAASURBVOQROcyn7rmOQ2yzsD0STSV+pGVVp2SqHZjQ2gYnhlxxnkcmWrKs/H37q2PJvz7mv67er75Lbb3qor7CIo7XnwCUrJi0em6VInL8VbiRhJSxONsi4rXqRdEk2kApQaEqlUDU2UYb3rViWszx3x8jC7/xnWI1Q09TDKf7PbyomfD3L/9FPv3wl7lh/40stg8z0AOOSMFjGAChpWXKpWvP57XP/2Euj+dy5mydKEqQGYdf2/iuMt8zWQy9iyzWE5+/56+4vb+HvilEFLNaRhKQQeVjUqrn2hJQjKrNQCWSKVGnQEEhJCXTJMNzJs/idWf/KH+07xPYfo1+aAhloKXBMUXCQKZg6XC0OAoDkU3mzMNsae0JjwecjFX/U/H0jad8AmiMGrWLqJ3TD33/D3DV8y/DJ6OTnbfqVBGLsledI8VENpAs/O4fvpuDwwZlvVO7npzZPZ3Sz3s1nk+FMkR+9EUv49f/wT8lHOrxpUWcxU8bhqgg4xJypcGpKbhtVBrASia3hm2f+P0Pv4f3fOYDtUYQySQGiUQpYCtbTwo5RRrvsWKIMVG+zW16DHjQdxVSICx6Gq9+tCFGUulpu4ZFVrD4vf0D/O4n38Xfe+V/w+GHt1mbTImpkPtI03qGELHeEQLkLWj6Ka8+/9Xcet97wQ0kQRmAAToMaxjifBPfZiQlbaHmUit9QggJ27UkN8e1iraxtQVZFWiodp3kHfI4xz0GaGViTO7GhbmwwgKOy+loEE9ZTaZ2xwmIZZVIWtStZVzkd4p5w7EIGP//x6r9LRiBKIZUHEksSTwZh93pRVtG1wcl5YyM4OOPAhLpJi0BYSP09OkgH//mtZzznF9gLU3x3oAJBBNxTiAnShCc8UhocMbAIcfr9v4Ir7jqpdy5/26+tf0A9x2+j2/Ge2hwhBh46d6XcRp7uOiM53De7mfRJYedGfI8srvbRR+2sRZSKYg0YISYlYE7m2zxFW7hY5ufY7OJmKYlb82Ztg1zKZUwY8kGjDgiHrHqvVw4yjG4Xi+2ZFwCY48ek52SKke+LMuR11sRQylGMXbqW4lkj8FpK7bsSDxFK7dCIS2JBqtE8XgioxXvgCfYloChiK1t8KzqACUDKpWUxVCyp6BjlMQes/n51w9DignXeeZxIJukc2/yrG8Ll7bnc/4F5/LjZ72c+w8+xP5+P184dB2g7tzPlgt45u6zee4Zz+U5pz2f6dyyPhhKyng3ZQiqxiDZ6bVeAKOfkyUz8wvujPfy8YevZdsMDL4AjpSyUtesjlExBeKAGE/wiccOP4I5U2izI+xQMlBIidRNV8Ylz97FHn74GS/jjOlebn3sDr62eRuZwpyBl+y+ks52nLV2Bs/o9rLOhN3thGFP5tP7/4o/uf2jDC7Ru0yxZsfmNINEHrebPRVPu3jKJ4ClFEIINM4zsR1vef0b6VAMn9Ljs6rCY1SIudpxmcbxlVuv54a7biG1jpgVFGxKYVjoY2KiLZ4O4a0//gYmC8E3U9Iijex7DFVeoDOwrXphlEJKhdQIC0lc89mP846Pv5dNAnNX2MobNF6xQ8YpW3HIAyElJm1DTlrZLJWxd/Q9qoswJwEEmGmdI6TEkAJd15H6GTEOFHH09Myd8In7ruVZ7Xn83FWvpz8Y8cniGk+KucopVJJKgClTXvvy1/Ef73s/dhCkFe10ZGU7nskeXnjeJdjD2vYakwpKQpzFRMc8Z2wn3LPvmyxZkBiyqa+RfFLav6O8TkXvs1p4K55PFOJeantmKcZdzJHA6h3VmmxWu3kpBlsXuJV8j8rH5FHW40nfgdfKJQWKUxSgGEptZo6A9CND21QqLHT8MYrpzodek38vRDPnlq07+NyDX+Q1F/ww6/OGSfZYK5ScacQj3kHI9d6zTFlDDgoT13Ha7t1cdtolLC7cprRJOwTS4Rctk9Ay6R1+y9OHBY3zuKYhLHqwil3LKRPTAiMNwWW23Yz72Md7b3ofh9rDLIoC97umIeSEsVZ5t6IJYDZKpEFWmZ1WWVfXsbbUv922bjwn47/J6ndHXKNjKCxDisFg8NngqMnKMZDCo4e2yQ57Eqb/Uh1FlMSwY66qu6gsmhSXDKa64Ei1RdS58vi9nItkXCsshk2Mn2CsJSYVvZ/Q0swDk2jpcsPzzn4u27LND1/ySrJNmEHoSsM0enxs4YBlYjochVQiORVE7BKDvZJrsQSTmLmBg5MtPveNv+Jh9rNwA0MaaNuJSoZZR8qBUBLOOYpJiCQChQdnjxByoBj151FDkVr9Y4fGQzH44JkE4crdl3Lx6RfyE+bVJAMNHXkAVyxNsuwKDU0w+Llw0GyxJ6yzi10cKJsU1EJzx0xaz9g4d51KAp+u8ZRPAKkEEBuFl73oSn7giqtwvZZ0cm3BuMbAVgTvKCVhWsssD7zzj/6QmS3QCBJRfSjniClijENSZj1bfvMf/S+87PxL8YMQYkRwxAxONPFBIKdCtsoYFQMDiTC1/D9/8l7e/9kPc5g5MrGENKdbdwxxIJEUF1RXWW8NKUQFupeVy8XI/tVYOYKMvzyRTVwsqkHWSkMZElYcZLBGnRDm0kNMfPTOT/KK73slZ5o1DJYcEzK2LVLCiceRiUkwC8vrX/ATfPDuj/NoOEBqLKZ0eHbz8z/4Fta3prh5UzMAJR0goz2SR6yhlxlbHKJQlO1nxt20JpJ2R6XuZEcR1OKrqMbbIg7gVAMRgRQiToQiiSItIQasE4IkaCzzPFCoMhc5sXMRL2iSZWqbOT+JbZhRezANmbXJtOKPajux+uNmwDrRc1PqBkcChQXGqHHd8YeA7Qgp4m2GNNC0Uw6HDT6+/1pKV3jts34Ic7iwS1otWogmD9ZbhhQRYylFdB7I4Htht1lnt3QwU7vHnCEnwRWPL1aJC6ZV8L9kpNFm6NAPNI1TsfQ+EfbA7fIgf3DTB9jiMNiFVu2kYS4BK0KLJQ8B2zpizlVLUdvD5MTYgxsFo0uFLrgSQRLe2+VmQKqeoxGzlLB54nOo5WgHeArrTYNs94ipItn1vVQQHkKGFAtTWs5gDw/w6HGfPQP4UhQ7alSH1blGyWT9HNdaSEKoNpBZtDWsCY5q8FElUoxRMoaKj+sxP/EYZGLepps0xBAowdD4jhgjqSTtDkXL1O0iLwaMdLRxDRHBp4xPGUchDgO+WcOIMJsnnPE0Vigx1gplworqn5YMxWU2Jttc9/BXuO7AV9h2C5LJeOOr9Jch5gLUTUX1I04lY51lq99mI2+TXMQkwQE5aVuYbMglYWwGHCV7WtviFxYrjtYqeccmrzaORl1PbBAIUIwliyVIIahTMaboPLMDkPg9sPE8Fd8L8ZRGgKp7h2p8rbuGv/1zb8JnGPuFxhqVYonAxGkZ3lkWYeCrt32dr919G9FmFjHoxCNCCIGum5JCpi2OX/uFX+Tyc55DWzwmG3xF5Vnq2l6gXwyIEWgtQ5OI65Y/+LP38/P//du4+rPXsNH25HXDrMwxDaQ0sAgznFtVjnaaqY8tzscnfyd3r3ZsoVfdg7qkVYRBAoMrPMxBPvjFj9DsaVX93qj4bYlJd/EpkE1kMAGZmIqDzORYYJ7ZO0x4Hudx6ekXY7YqMccBjaAqrBnrDNbqBHvHvjs4yEF6CSoqWw8yV4wkSz7biXz/stTdG3E42eQjtLLmqadbm6ouXNHF04pRyYhYGKLa9okxYA3bQT15A4lSzeePkJmBJfD9yfYyBnDW4BvDop9hFXGJFGW4qtOBsm+NMfi2QYvoKmB+wsl3MZRssValmVIODHEgt4l97OOTD3yaTz/wl2zsXrAtavsmooz+2dBTjIqc649qtJkIfhAmvWc67+i2PdO+ZVpafFYZklxbX7kIfUokEXIqNE1HiD3ZF/JphYebA3zoG9dyN/czd70mLwKiYncqlxMDTdOoTqbVxT4waKrvqguIfiLJZJKpf9Z7e2s+AwziINXNWB4xhaUwXjlHV2FH/T9MQkwkSyDQszbt8Nbp6wXUCaPQ94FhiHRdRyMOhsz5u887oetPSqZJmY6CpEjbKON0MZ/T+oYwJGKurepaTXeNJ7CoG8yKT1x+1/rdKMtk8DtFMokwSXzqlk+zzx1ivjsxlIAVh3NKWnNGE3Q/ZNZLx2Tw+JkwWTgmsUEWhTU/gWFgMd+ibT3WO/owUMgMoSdLoU8L6AphPbC/OcTn932Bj9z/Z2zYbRZeRfVtGdnzK2ztKFNmrZILQ4oYHPcvHuKA3WKQAUqiGZ1BnEO8dmWMtdpSzwYzWNq+YX3Rsta3rA8d09TS9R62Cx5P106JWBa58OjmIcKod1vxzKMn0BLjm0/V/p7u8ZSvABYSBCAFXnHV9yMDjCbdADnrZNIAxRpSTvhpwzuufjebsYeJJZeEVKV617TEIWEivOSSK3jDj76e0+2Ush2RZFEleVSJRDd5WjUsiZ6BNDH83p++g6s/ew1bLrJVFjRdR4k9vkQcnpwyU2kwg4Kjv+M09zcsG7J0HqsSEYWVbpmy0ixlIjy4uY+PfuNj/PLL3sS695SYVs61xoK1DGagXw+899o/4YOPfJJD0tNMO9pteB57+dWrfoZmQ2jMhBj0qxmjyYaTRA6RGB2cbrj+rht4kH30TZW1KEC1JjuZs9b4/cdGLejkmEUwODq3xtAXLC0kj5NGmchRcT1t6ylGyQZRCska7n3sYTKGSNkBwi5kWbEu7bhQPKkzcGEeZ3jvVROTgJAxFpwxyryugP2YEikXigg0Da4rpG13UiqwJRbECt5NyEUoFnwx7B8OcvWDH2LeZH5i1w/SmjVkgG66TsxBk5ukVXiFRFRtoppwZZKSi4xiFbVYZrS6r2ItJHH0/VCvaW0FbzULbkvf4P03fYjbeYBNMwOnLE5EXVZsAWsN2SaCiQwxYcTjnKVFtMISgyYg40YLW5nTVnUWncU4jyCElChG5Z8WQ78UEDZ1E3Gsc5cFQllgLXijpK1MJmZts2IMOQnWGNbWtDIWB3X0kZBoj/Ce/u5DAPqeNQzEQE6RnITO+kpwaLDWMuREyIUhBmXFUxPl0GOMA1YJ4CgOXUp5wgpgtJmD7Zxr+Qofu/UW3vTSN3LpcC6nzUCMq530Gd6oukDKA646EjksKUR82wAFL7r5zAwsolYpm7aDOGCdBTthw8540D3MXx74Mh984BMcdgt6N0AFd0idM4sUklFWtxTdSKVRdLRYFiS+tO9mLn7xRbQHDG1sVRtQDAsj5JRxVgg5gPFal18SeEbnogGy4I1TkXwRFklJd9J5eqJCTZZe1VXaqnYcXNZCw04M4ql4+sWTXYA4oRjZiI0Rvu+yy5GQFM5VjblLQYHj1C5r4xhy4B2//25uvvN2cmsQU8ghqUWRGEIfyX3iTL+bt77+jez1U/JW0DYT6KyXsm6+FX5DMSofU9Y97/r4+3j/Zz/KfmZsmwXN1LLoNyEOdK0nJWUoNq7V6hgrosDOn6Nj/P34ncfawIncvMuFqQqD6mPFqI2fZYyhj4HUwQYzrvnCR0i7MzRa9RIcFGFOYL6WuHl2J5965PNsMAcv5O1Mlx0/fs4reNGu5+FmQIScwXjAg/EOsRbbWoLtybsyd23dx5YEBqum6aUkZS4WbduMLcoTifH7a1XmSLkNU8kPcZQNwmCt7pdCUo/Ttm3VDzonnBWcNxjveJhHdPF2o6tGWbIHEZVbluXP30QT+68XWdAqA+qikYkkAjEOWBmTVx17K1K17QxZcxuGIXBCU4hkrIhi+ZISukqB+dAzWBg62OwCf3zPR/jMvuu4v9nHAb/B/nCAZBIpBEhRXWiIVb5lTOULuRTEGHIp5KRJhVYvIzknSgq6qDYw2IHttueh9jC3lG/y/tv+lLu5h3kzJ00KEUFodEMUV+fM1mqNc06rVmHQTWmVzTG5LCU/JIuiHTKkYkjFgAiBYVmBhhFXvPqMo1nXY3W6SMZ4o6LKKeFw5KTeyc4pw96IkGMiDokUom62jKV1ozjz8YcpMG1aLjzj2ctuhpWCd44SEyYXQj9QSqFpPeI00XU0JBLe+KUh0vh9RVQrb3z8nSJJZuYiB5lzDw/x3us/wH3+QQ5NDtP7HiRRCDirta8Y9fpwOZNSJJbEIiYWISNZCU8lZVpncc4wn2+TS2QjbnGg2+aB6X4+d/CrfORbf84B2WbRBYWKLKNaZI7fSUBywY5af8Vg8AxEvj67jdvndzNvepKJpFK0ko1BfItvOr2eUFMCqq2exaplXQkUIsMw6AanRGJY0HpLzAMbYYu59Evf7vF87Yxx/jsVT994ylcATSpYDL/69l9CYgZbwdej8HlRFqpYGHJCJg2//yfvI3gIOVFSwjun7dwEThpcTvzyz76FH7z0+wiLpFN/49TLF6poneJXyBnTCAfLnH/yr36Dr3zr62zbgTIRvDXEfoE3BTFSd8AGMYZFKhjrKTuqTkfEuBjUCsBOWzfQRE3j+CuEY5VvjLFVactq0iDXnbEUFoueT9zzaV79sh9hr5kyzZ16jzro/cCd/T38j9f+upqhTzMsMmdzFhdzIW96+VtY22eQkCilp2km1QZM2dq575HOkvYWbnjkJu7I93LQzshmdElQfJopgmSp/rwnLkmynAQLS6afzdoKtlkrAq23DGFOkSmBhHGGngwx4ltLSgMCxDBnGOZMaMhlUGzYeD3KUTvxJYnkyduDaeXAE/qA847GdZhoMLa6Zoh6uKakrUlnLaVkUsh475m2u06ogmQKxNzTOkeMEJN6sWI8QSxDDGAjdPD+R67hjo07+JlLXsMFa+fRzgYahMaOi6uQ6nVRaiafMZRa4pWiLUcjguREIeJMoY+HMY1hyw7s7za5bvMmrrnjQxzmEH3TUxwMqUDxVVM0I5LBGkJWzGxK4DB0xmCdocHgm4ZUSqVorDYUsqPiXwSGFAlkrLdkyQyxV3iFyJKkdOxLXL93zhk1NLPLccgJRLJ6l4dE6y05RLx3WGfYYpuhJIo7QQxtMaRBcLZjKIloM16siuAbxfY1TivhcejBRCXtEfF0hDwotk50Ozu2gkdZHbWffBxNevXxgurAEpizzW3xNn7zpn/Hr734bVzO89k7m9BUp5s+CTBhYqGknpAj3WTCEHUTWwZtaVsyMQ4kA23bIiZx2G5zi7uPT3/rOr786Nc4zCZ+fcKi38Qty8+rMGXsLGTEFJUEaxtSVKkg6YQDiw0+dftnueTy89g4DLu708kBQtAK5bwPTLpWPecRxb5SSChERcwoVu8oJWMJtJKwRFJc8MDBBwhdIVZ89cgIN5VA19sjZYJOxdMzntIJoBRwYihD5KoXvgi3SFpkMYYYC9YKaSg4IwwhUBrhy1+/iWCFRR7AqxyAmKrij9DiuOr5l/O2n/l52kEBXKJdCmJOOOu0HVSS7s4aQ+wy7//QNXz9gTsIEyEASMIVoaug8oiQUtIE1VWLHufU5or8bdiWGuYYC8FSTuQEx3CUQFnh3rR6qlZmmqCICH2YIQQe5RAfvP5j/MqL3kyYRxBh7iJyfsvvv/8DbBOZr/fYDNPs2EXLG6/8GSaHO8qhHmcM1mhi7LquVgMF71q2ZJvwjJaP//m1bLBN9pok2VLJNiRsVm/bKjLGiSTAoFImueqmjckftY1TzIDvJnzz0W8SL0hspG2KoPqOVhmsVL9RZyx9k0hrMKCJnzGyqvAVc4Qv65JpfAJHfzLCZkHEEUOizwMzFiz8wKxbUErBjdhLypJsYVrLwg1sHN4gnSAOU2LGeKkt2oJ3QjJqTWe8IZTEtu1hErh+fiP33Xgvrz79h3j5+S/ljG4Pto9MSoPPbWWVO6QSH2wpwMozOudMTIO67dhIahKDG+ibzO377+Mv7rieL4avMWtmbDFH2rzEeYz+qjlFjC04Yxiq13fnO0IIWsUR1WA7aOa4zmMfB+EY/ZYLs6bHtR6LVTKW082N8qoS3ntKTvVVx7jSi2CKxVmLxMRAYOgyG4uFvsaqyViPYputtQylMPhIv1aY2XRC5y8LSNtw/+H99BcJGxXmIj4i1c2oj+rAFHMm7cqktcxApHEtW3mBuJU7xniOCqql+kQJIEBxmgBiCws3cCgb/q8b/zM/e9preNXz/ismfcO67CEHiwyZJhskW1JOlJDIxhBDAKsahqEEUleIXWbDHGKet7nh4K1c/a0PsY8twrQwD4kUFnjrFP9cxkrakr+r/6+wFdWIVDkyZ4WhDEQbuW1+F39044d54wtfT5YZsrBMZErqA23n1Q/etlAKuRhy1i6NsQ0iPaAV7pADWSLZZ3oZKFPDQQ4xFLX33OkfnpbzvByhgXoqnp7x1E4AAV+El175EmJU1p3LFkQoWdt0zisJRNBW4zve+x42Uo/f1TFPPbYIYRjwTYfHsJ4tv/LGt9JhyX3AiYekuYZWnbJ6kjqFd8/9wDs/eDW/98n30TuhLwVxBu8ahvlcvVVT1PdvW2KM5D5UVw2NXMUGjhTjzasvOf69Oi/sJBVkjv8GlqIeuxSIRlbtDElkEbUlFWE2mzGdNLS7PQ/PDnH1ndfw9pe/BeNgZmbksz3/3Tv+B67ndgYfkSHjs7CbCW86/7X84DNfgjwMnW0hJUoacM2ENChJsgwRuoY86fnM/V/lS+FWEuBFkfJZdFEYE1XBVomVI7F7322Yismx1fFD3RQiRRLJRKKFEA/yzSHxcLufYU9PXxKH51sswpxihNZ17GqnrNmO0BT2+Q32s0HvAsVo20932SunkNVyPjodPzkhRWFznW+Z5wULCWQcd4eHyGuGyaQl54htnCaAKeOKQaywXbbZd+gxgm53jvvzvW3IASRbrC2UNCPFiDENrfM0xhFjZJED2YIVyzUH/owPH/gcrzzvlbz47Et4ZtnDWXkv0ziBoMxKE2vrFYOxtrb4E7SZ0GUO+G0elf3cdehuvnTzDeyLB9lgRi8DKQ80rScWvU/FKiQi555CbXunKqK+6GnaCd57AoHsIETDHekh4plN1cFTXTxT8lJYO5nMrO2576H7MECMA9KUJWngiWLZ1kvKyI8yUJxwH/uIeyC4gUxk4/B+cs60Xcvu9dOwyZNbwwFzmEfMBtGcQAJoMofCBvfGh7g7Pcyz1s7SJNYkHntsn8putcKutd20xrGwgbtm36InMJNtUhmwuCPavznpbOi9f8IWcBZDPwQcLX06TPKJrTID3/EnBz/BF798A6++7FWc58/jnPaZrMsEN6gYtZOGIUVsTlifGVymL6o3mdYLD8QHuWn/zXzx/q/yUHqETebkzjIbepx3Om8l3ZmX5XysG0kYMamZklUSJqfKcDbCEBZEB1ttz+fmN3Dn9ffzU5e+hhfuvZj5wS32uAkhFdrWIzFgaUi5bhyMEtfIgRB6rPNED0NXWEhikSOPsYnzLcYJLuWlfmkyQFE5rZVv+XGf/lPxX0B8TyWAR2Kwnvj5poBJwt9581txzsKiXulFcE6IuZBStbs3hijwtTtvQVpLHwLGGUqMNE2j0hch85LnX8b3Pf9SJBSs9yp1lhWk3nSOEDIhRayB5DNf+ebN/OGn/piF2oBrhcTAMAw456FkfNMQYyIMA0acMsKAFAdlQfy14m++VTi2CHZ+Vi6Rtm0pwCIGFnlgnQm3PHI7F++5ECaF//NP/wM3chtzH+l8QzODdVpec+6P8sarXkf3kOADOpbGIsaTU8E6gUExlHO7TT7b894Pf4At6VmYKqVSf7III2ColB3J4AlNYCv7rZ24nWWzVjLFRIY28O8//X+zRkdCiCR6Ag2NtsyxOAwTpvgzJwTJ9IQjEvq8HFOdyOWI8/nkJYEjy1e8VmkOlS3e8/mrWWOCx9S2UyQSaWkB9e5taTjAIQZ3YjgyYOnxOx6PbyymGGKKlIr09I0j5cihMiOXgjdrfOT+T/MX9/8Fz+PZXLLnQs5dP4fd073s6XYxbRu1FcxaAZyHga35JvNhzqOb+7n1wDe4dX4bG2wy2Mi266tf7UrLrsSi8kM5aYNVCjQOQyYOGScG13UMIWKckHJCWsumzPjdL/4Bu5hWiEesumtjPSujt4O6/2yxwHrDkBNDjnhjl8ScnUYZOzeJCujXarqIkCWzGeb8x+t+jwmtYjlRa7qsW2EsHodhIBGxHGKDwR//+csCZuKZzRf87hfexRoTepRNnghVDocqeqRiN9v0zMycvvT4TpMwddEZq4CCxdL6jkYa4Kj56Oh2q3cEEo13zJlTGsPhuMVWZ9geBu675WrO41m8eO8VXHz6+ew1a6y7Nbr1PZSScCT63HNwMWdz2Obg7CC33nI7d3EXG2xzuNli083wtiHFAdMYxXdiyCVWLLKekaOraaNtW065SkIVUg64xmG95fBsi0UTmMfAu299H5f65/LSZ72IZzSnsdZ07J7swiSLFU8pLbFAdoo8SsMW8/m2sn7Lgo3tDbbjjEOzBXds3s3hsEH2OyWojjquQi07nJKDeTrHk54AjvdzMqtd7dH/lnPWXbjTtoCqMAjEgs+Wl1x+JURwxsNC5fWruAoVtkMm89WbbySQ6EPErXX0sa+6U7WamA2/9HNvYS07SAlKRfAYAQPDQtu6VgxBAjOX+Ie/9c+Z+0Q2glj1Es1JCQu5VvFy1EnWyQhM1O+qud+xb8BV8rC6gXeCeUfs3ons4IqoGtc41rZIxRbKMjHKOVNMIVcspbcdIQe+tu9m9r50F//23f8HNy3uYGETrrGwHTmNPbz9kjfzhst+ku5Rj10U1cVV+h9YNYQvscrfTOHQ7m0+8KUP8wD3c9BukjtdtnIGk6tLSq1WZhGiJPIS+XS8kXeMs46nivgaTG6WE/2cwH6zyaG8vcQMrsbf6OahQDGZdDATvfZcFO8lSzxQETDEo5e04z76E40igINIggRiYcGCkAPbeXspur0ao80diXImmcJgj18MepQy0WJ4qVplXq0DAapzBUBMmkpIAbwS1IsVUwAAIABJREFUJ7JEDsYFN+ZbueXwHdjDFbIAy3ta31ljFMLNZAYK0USSSUQTl6SKauJaxc2V4GSWskOoWxAgxuq1ktJSGscZR+n1Wj9kD7KVNpefylH36/h5WSCaRJSEwWDqPqdUSZjV7b3zOhmxr1VBsNrjDT7xaDik2qJV2mhnSLVjy2gFMtpEPIHzZwrkVAg2sD8f4FCuDN5jVBWltkmjSUrqMgqpQTzUezulgrXKem1pIOq9pYOgxznCKMZzK1nn7xwT4rS1nq2e+94lchq4N93P/Yf28fFDhuqAu2NDlilkEqamypBIRIlEmxhMxIpXuVI7Cmyrpp+YcbMgy/EYz9P47iUrfi+XCOpDoMoUQ8Q7B6Uwt3MiA18MX+OGe7+u18H4/ZaPdKledTxWIKC847+CtsRDu0rA444JckzEn9Lsz1Nx0uLJTwA5Ctt2NCahlMpQVKsygCKCTQps/b4XX0lnLWmupuQ4C0Xn27E0H0okU3j3H76HpmsZxFRxTmgaT+gH2mS48pIX8+KLL8MMhlISKSdsUp58jipMap0h5khpHP/y3/8mC5PpXV4Kl44J5cmurB+N1T1Zpfu0EyNylDF4EWi8YxEGwND3gV1+nRzg/Td+kK8+egNfXdzK3EWtjMzgDHbz0+e+hje/8GexDyTMHKyxEIKem2jq3JVJJREIpF2G28O9fOaRL7PNNsEscNKoVEeR5cJNxU4tR3dk1p7QWBxLjmWc0Gu9xmS22/67fmclWTz+876XJt+jjy/aSLSR7/7bnpzPX5KcjvnsneOpLfpoYX5Sj+jIROvYcazzOt5DAmQWzXd/VMd3T4/HK2STmbcndzSeKEzhBD83K45ux6yp/9ckyJSjV4gjP3skyoyPdz4zGRX67l0gSw+SVU6l1iXH5z4xD+LYT/jOr1udl51/XzK9y+p50WaijcxP8l036ske6/en4lTA90ACeHQsXS5qKI62LKtp3nv9/aD6Spe94FJK2qG3JqjcvRUaL/R9xLeerbDgljtuYyvNSJ0lpIjznlm/YG+7ht02vP1Nb9EyfQxgLNbXrWTtkhhjGIKCbb9060184bbr1Q5kPNYnEC79XgxTqkFZ1lpawtTqDkAmJ21JYQzJGYYUKZ3jwcUmjz16K9uNjm9bprSl8F9f9Ld542U/BfdF1qUj2UCMvUoYGEPOo5uEwbpM7GB2ZuB3rrmab/AYxQut86T5QNO2LEQTQFt31yNZxieOIWJ9Kk7FqXiqhM49PYWEiNNquUElfSSSqZhT2KF6sAqpG9eqzrpMBMfUa6yAFtmB3646epoEnWqBnoqnd3wvFSOOGdZaUsnaBhZl0qYhqFdujlx11VV4LzgRUm210hiMU22xrlEQ+W133UGfNFkptao4DANt29LP/z/23jzGkus68/ydc++NeC8zq4qLNovWYtESKYriorVtd7e7rbEla6VEiZJsLbbsHsygZ2Cg/2lgMMCggRnMP40BZqaBHmPgme72tDbbkmVbiyXbDa/tsRaSoiSKtCRLsmWLFLeqysz3Iu6958wfN97LrCK9jGizWFZ8QFXWy3oZLzLei4jvnnO+7xtZmHDjVdc0yxiZyB+AQK1t0F0VPDiyjLzvIx9g1OZRd3x+afPnbxZldOHRBCUbv7rNd49ECm30ztEq9LGnuDEwUvbgdDjEU8DOQrdvvP67f5TXPu/ldN8S9nwBGcJGkRkTJU8ZvkkwGzjjZ9m/fOR/+7Wf5Wvcw74OjJpRh91uSV2XrXq2Eb0jgq204eZHNwM4Y8aMxws2StojffxGPHP0HPEjogdHxYK/6kprEwHcpivJX1ZTnDHjOwuPuwrg+XD3KStScZnyJkXpu46Umx3DmYcOuHS520hbBa9T2qpBrgVJyh/e+qnWfRSoZqi1wXIzZyGBF19zHb0F6lBIMZHXjUwGWiauKIxW8F659e7P8kd/chsHmnFtrYuLsfrXLoyBKhDECNamQ4RWcTNpVc8hjyxiRxkrfUyYFNZ2yCL1xGHBZezxz656I6+/5uXItyBZwHNpSucqBA9goKJoD6u8hqUTn7rL//F7P8d/tts5ywHeF2IUxmHAEWLqJ41pI6QmbB3s20zRvHqfMePihVAl4h4nQ/nNNTQCTQik3mygJn/vY+d+O/99ElW1r+1afLyLJNNjdIp69I0Q53Ff+5gx4+8cF5wA/nW0qdbafPq0zdeF0PId3Zw8Djz/ec8lDbQ4uNIMWiVMc2ZWSTFgUbjry3czilPN6LoW3WbFSBqRCje/8nXIUEhdj48Qupb5a6MhfcDWBYlOjcb/88H3saJivf49JCHbBkoz6i0t5QBpg8+RSKeJZI6fdU6y5DVP/2He8LxX0t3jdNbheRJ9yHTl1oCX5ktWK9SFsDq15nOnv8KvP/T73M8+sgti4xQoH/HSxrPb4H8jf5s2MOgjioZmzJhx8aBV4ppRs3jz9RQ2ebWt+rd5HmwEIG0GvKXrtOtAE26cW+FrqUFHP9c6BZvh8CPy5zK3gWd85+KCE8DjeKRxXwnNhDVbxcyIMVJzwXNhTzdq0qb8RaRdCMyIFQiBWgtG4OywwqJSxTg4PGD3xC6UpiITM070S6Ir5KaGHIbJ5kGb51fOmbjs+MwXb+fWr3wOFkINTYBw/lDt8Zbw4xnqTFU/tsrBuvGZmohWqEqMiVVZo0Gx6jDAibrL5ZziTc96DTe/8NXINyuhBuo4tnzPLh55M6ZWASwVMhm/NPCbf/YHvPuLH+Q+PWS1GOlyZhmFs2MhLncoQK4V0SNFo08zgMYkEES3mbozZsy4yOBtFljc23nsLWRZKSDe1Lna/Ops0x4WwAM25SrbpHStetTmpWVnTFYnINYqhXUu+s2YcQ4eFwTQZWNt8vD/q7WiKcIkHkgaKF45sbvHNU/7nmbyvJVzNfPnEJvnEqWisc3i3fmVPyanFt+2t7dHLhkpDlW58bk3cNWzr0bX0txfKiyWSh0aiRNz+r0lh3XFuz/4PkqnZK1U/FHGqV9YNAVdO3h10yLZqNSmZAwRMM/EGNAK3Rg54T3fxeX89IvfwT+54qXIN42+9lAdSQncGXImTPmoY25ZyrqMrJfGXYdf4v1f/BB/zrc4kw4JfcBqoRRn2fccrFakbtnIvheYTH2OZ1f6dDM4Pg80Y8aMiwtyTMnbQuBgE4/Z7GqO7g3qNlXsjpX2jlXvNiRRpt7BZvsbS6DNvzfJHc3qal5AzvjOxeOCAB7H+XRqE8G0+fdmHnA4XNHF1ObVkNYDUAXx6Z+NzZSSuftLX2FdRmrU5t9VCkHbyb/QyPOvvoaUIjJCyUbfKXUilhtBB7lg0VmHyiAtSDzEgI/WIrKO4fFe+dtCHLdmAryiXVwDkS5EwjCi7oQlrNdrxCK6Vp7KZVwtV/I/vuO/o/uWEO7PxNpN4ZeyMdIjavNsDJomxbUwnBj4nXt/n5/73H/kz/kW+3EgRrBcyEEwF6Q6XUy4OUiZrF58Owxu0FgpOtluwHwRnzHj4oMCbo6K4FawIGR1RpTs3jwCJ3++QGkkjs0QoJMcOncSQrB2HxhrJaggRIrnIz+9Y0SwdYN1HiGZ8R2Pxx0B3OC4urPWim0Mm1tJihQjN1x3/dHAbxsXOyJstMdp0fPg6dN0XU8Jk7mqOWZONEcqXPOc51ILlJxJMTEOkLS1gmt2ihdiF7nzy3fz+S9/kVUaQafW80VcAXSaWbW44sHRoKhFxtXIUiImheFgxW6/IKwCJ9jhR5/1X3DLC15Lf4+iDxlR+6OZmg0h26zE3bFSCVHJi8Ld+1/hP3zuPZyOhwwxs7aBRGomsNLUvtFAXNr8j4OIoxhHo5bnJnfMXZ0ZMy5WGCoKVIoYBcM0AIGgCaridbJtmZ6/tT92QWqhjiNCIeKoOTE0j8ZcDT1aj54bs8k8PzxjBjyOCeD52JgsCyCqqAvXXHPNX/EDbaU4DCNf/frXKFYppRJCaLYkCEGEZIG9tGQcm9JVBBK0fNJJdFLdqep85nOfJeN0i55iI0MeSJoeq0PwdwBBu55aKwtVyjrTh4DEbuJyAc8RPei4zE7wmme9gnf9wx9HvmloSS1IXnQi5iBTr8alhRMoArXAEu7pHuK9v/cB7uEM95fT1G6kS4qUFoxWAxShWbtsd8+3X5Rji4Jzhrgfu6M1Y8aMv004zrqJwwQKRnGnTnnL0YVkbc5XCLgIeUrfEGvXm91lQik4a6iFLnUMtVDciSkx1tLST7ajLUfXEZN5ATnjOxuPGwL4SDnAG9VXCAGvdWsI3Yli1Vh2y/Y8jqqAx/MyXRpZ3F8dTr58YfsabbYPIs61V1/LsgbKQQsiLwU6PTKglgD7wyFf+uqfUDFWq0LqhWXfU/LF3X40c2o1YuxJOF4NN8eLsxsXSOnZpeONz3kDr73uRwj3Ot26iW80KdVaAzZAE2toi2jDY+PgIWIp86X7v8yf8RctI3epVPdmMO2tnbvp7JjYObOJG1ewxueb5cPm8Uz+Zsy4uBGiUCxTaeM5vXQs6Chl5DCvOaV9q/7LJhWcbfnOxDi73seodJpQH6hjRjUgMVJqbtF6m4bQXPabMeMcXHAC+DeJOFPVlrmpihXDpWVhDsMmOuf4Ok5aBBfNRtSjEFIjI4GmGnBrUW8YJCJSwMYWJacCIQDWWs8AVRwWicMyEjTRJ0W0Mozrlhd6ESO6sLM8wZmDEY2RmIRYnB0CO0Pg+06+mH9xy8+wfCixOIzYao0giAkium3JtIQ2peoIVNQdUFAYBKpWMiMVY7TMsl+Qh7HFvU2t37aho8Hvtt3jLd9jqSvbnvDFTcBnzPhOhm8Wi3TEooQqLIh4MHZOLhnPDrRxkin1e5sDXKgCcrJjjbG2NXQQVPBqNPOGJhixSUSmU+VwxowZDY979iIiVLOtB+Amo3cRUiOG2yeyrSL5JutRmn2Lu1NKwUQIOmVMSovcfsHzX9DUwq5Eldb61XbZiLG1G7IYFoQ//upXmiq1Tpm0rpMg4eLExhvr4GDF3t4pylCw/TW7LLnEEy+74h/xUy/7SbpvKMsxNmsdemQSZrBJPDkmxvBpDjNMFbtSKxICBKVSyIzEGBnHSgqt/SyTOevG4gXOzYQWP6oHHi0Y5iv5jBkXN4RaBJOEaodWQeqaNfvc8eCdmBlXXHoZagqeUI8TETRUBs4uDrnz4E85S+FQMhIEcWn+f9W315TNa8nFIs6bMeMxwuOeAMJkBr2ZARRBjaYCi3EbYXZc7bWB4WiMqCoxRoo6qkopZVtM2j97lr2+g7M0s+IEdTBCp3gtjFYJy8i6jhz6wCIt2Lc11Y3QJbxcvETEBVQiy93I2f0H2JMlT/KTXMoOr3vGD/NjL7sFHhTKuhDjxLFXQAyTJb+h9bgyD7Qm3MM2bymGyOHqAHehTV4WMEdCR/ZJ4LHdoSnzQ6Yh7609hG7JYbug25HD/0Uswpkx4zsdIhE3KOakqHQLZ384y6/d+3E+fu/vUFlN3ZyO5lGgBCrGmkLF4y73s0ZPLRnyIWEY6dMS10Qdmppv0y3YpIjApoMwTwDO+M7GBSeA589ynVv5aSTO3dHQ7Fs6UUJQajXK1KI92hjnyLs24oEy5kkZ7GwsjuOU1dvtLDm7HjjV99MOgIpMBS4nxMhBHrn7q19GRFnls4Q+UoBSCuFv4SJyvv+hnvc7bLA5TsefH+zh/3/uz+g5tTLFtsdcfFI+F+GS0rNH5JbrX81rX/AKLj3YQ+4FsrPXLaCCrSsaQmujV0PUJ8vVqSKIAOnoPXCwUuku6bDRMIyOnsFHypTvnKbhTTn2ITj++/tW//fwcYHjn5UZM2ZcfHB3ksZm7GyFwQuxF+7xB4hdwiRPqT8BPNJVRSi4Di0XuBZK59Q84jhd12HVqGVN6pqPqLlOvd82b3xuF+HiXcDPmPFocUEJ4KbCc7zyA0cVvY1JaERQhGzticVbIsinb7uV77vmBgJHSzuXySrGmwrVc2UZO2qtFIVuIn7FKlHhM1+4jdwZJYAPI7EIIhFKY0mugYLyyc9+hsHHJkIQw6wS/xYqgBsn+3O/d+z331ygplk4b79ay++dfu0g3qLyxCeltCDmTYwREzVXJAoKRELz3MKwWtnRxIkxcQVP4oef9YO89cabiQ8JUiJeJyI87YtuGXVz1hcXrNIqsjSTbbPJjpG2qrcIRSpGJaIIbZZn2713tsKO8wneptoHmzTgI+isAJkx46KHiONUhNquApKoBrFrC0t1PZZOaU1ohoHHdt3UJvRoF4uEOZi2i5BNJvIb8+f2ZTNOYnP9b8Z3PC7oObAhM8ehfm6pXkS2c2WqbebOcKobqY/nbOuRoCJ4rXRd11S9OCEpEgNVICfhvR/+APuM1IUgO2kaSDOkjxxKRk/0vP9jH2StlbjXsz8csFwsqHl45Bf9/4kjN/xWndtMKrf4s82Tjlarcqxt6u64CeaOTWTK/Cg1o5QyzUq2AeqcK2qRblRO5SWXjLu8/Fk/yL/55/+aN734NSzuE/rDDl0FOgkogWEY24t1kTKsoFM0CXXK90XDZCq4sYMBZPLwU5AgWDBWjBiOEJpFzDbi6W+m6N18Nuaq34wZf59gx/7IdkHY0ER9zQvweMVusoWerovtuiDbPGCXR67uzevGGTOOcMFbwJt8xpZLezTR5UwnsrYLwibsWwUkKCVXcs5HG9o6u29NYQAm+5emDOtiJI8Z1IkhkLWyX0d+7hffTa2VH3/NG6m50MWIBThgZJXgX/6r/55VrwwqDMM+/XLR5tiqI+HRXVQC9Zi/HUxN76Zd25ZIj7fFjYBvM3xRKCKYxtYmdUd1uvhJpZPIWAeiLijZCHT44DyRS7mcHW665iZe830vR+6v6NoJtQNRooKNEAQ0dm0/siNdJJcCpsSk5MEmV36HoESBPDpuTghKLoVcC1/82pdYk8lTrq94neb45ivyjBkzZsyY8VjjghJAk9bK3JIbGgn06fsbgYdPM2dhEoK4g8RAiN3DRCDnQ0S4+uqr8VoJnVJcGr2ySkiRgjGq8t6P/DJ33nknb7/pzQSHYvD5L9/Nv/vAe6jLxNpHshcWO0vyuKKs1yy6nlL/khf+G0DwifwdH0g+YoPH85E3X8P0M+qOiUyB6I34sSG7kzJZEcZxoIsddSzsWM+iLNgh8LrrfoTXvfDlPGl4EuH+gKpheWRcj3Rh0RxcZOq6AFZAuualqBHWJUPo0KCECgyGl4KkQIoCI1Cd6EpKCdmLnGGfQm4qbfe5kjdjxowZM2ZcIFzwCiA0chPt4a29NuMhVKuA08eE50IuhcVyh9E37Ou4P9y5utBcCtdffz3VCuPa0T4hQcllRKxuYmV5cDjD79/5GT551x3Umokk1mQ0RsowEDqh5ILVacYwRUYMkW+/i74RsR63P2ktj6P5SPWjauiWMAM+qW5tegujO1Co6sg2QUMpqmBCGoQdhO9iyWuufgW3vPQNhLNCHENT8lYl0KOXCAxQVpUYQus8V8eTMNZC0QwJHlw8wCd+/Td48VNfyjMvezp7ix1kyNSxNKX2FNlnpZlN3/6l29sYYx8gFMRaS7/azAJnzJgxY8aMxxqPCwJ4jurzWNUPwMwIoiBOLQVxbz5yVrntjs/itzx8exuFKzSyFlXZ0Z6qmbFW6ibirVT62DEMa2LXUUQYy0i3XDCUgpmQkoIVas70Kba2c2jlMfMmafj2MVUjN8q06Zc2geCT7GFSsE2uKq0aNwlA2rGb5gInQrghjmJCNOhzT18je/S87tqX886XvRW5t7J3poOBozm+Fm9MPcgEjYQ0Edts0CtDPmTcccpJ5df/6OP81lc+zg49b7z6Fnb2l5TVCKUdV0HBm3ejosQ+Efc69g/XlGlGETNUdU70mDFjxowZMy4ALjgBDMfIXz0mCNi0gDFHgyLueKmoKCEGzIzP3nHHX7v9lBKnD1Zce/Vz+ezX7qaUNU4jkcWcWiup75qliwa8E9Y2IkFInTLmdZsf7BISBCRi7tRspBg4JtP4tmAiW5XtRunb/Osn7zvR8wiSTRXC9k2htAqhK77xSjRBi9DnyBM5waue9zL+q1e/i3JvQb4BvexCbYHpMTVfxK4DqhFCR14X0jJS9jNR20TikFbYk5f8r7/5f/Gfvv7b7BL5Hr6LtOipDxasOl1Kzbg7Z6SChoTVggF/vP8Vam+46iRcYTLRniuAM2bMmDFjxmONC0oAz6/8bbAN7nYQUWouRIQUE2bGOI70fT9JQ/5qlFJZdgtuvPYGbrvrC6SouMKwGtCoFDPcheJGSj3DakWMEQ2Bw2FNFwKxT+ScUZ/IiztdbKriR01gpmijo5DyJmY5XgXdQCbyx+ZVjxn+mVfUE4sx0FVlQWSXyM3XvJq3/KPXM37pkD3fBQIY5OrE2Dy1IhmvzaKljoXURcZ1hV4ovbDuBuolkf/5/f8Lv3P6dgqGULjyimdThpGOHo2BVthrVUBEsZyRFJCOlrHstRn6HEtPmat/M2bMmDFjxmOPC14B3GDT4jwOAYIqjVk4ZtZauiGgxUgod33xLq55xrOb4nSoxC5Qq1NKIzg1Z1wguZBcGEWgGovFgmEcEY2YQwihkRlVMMPN6KZqVUsOUWyqvAmClZaEcaxz+21hM0EYt1zWqNq0wIYhZvRdxMfS/K6AbBXvIi5CRHCDYcj0ufAELuUJ7PH657+SN/3TNyCHih6041uqEyOUaqS+JZ1IHkEC7j05Q5o4baVgu4GHdJ8P3/5x3n33L/AAB9QuoaPzJL6L73/2S+gsgXnzDBRp+4yiUxXXY+ULf3I3hYqmpiDuYg9B8G3pc8aMGTNmzJjxWOJxQwDPx0YAUYaxJXb0fSNi5iSU3oR33PJWnnPl99JFxVZsK0viIKqYQdclCs5bb34TP/+L74NcSYuO9eFA7CP1PKuoc01kHhYugsvxubWjmKFvH837z/TciqiKIwKhU8bVii61hI2NNU6ulZQSdYDeAn1WLmGHN73oVbz+xa/iifkS5JuGFkVjG1vME4OU0A5SzgMdCi7ttSKtOpgq46VCuVz4wG9+jF+5+yM8EAYOUgHgJD2XcYqn7V4BhxWla9t0cA+4G2ZO1ULpwNQZGRnHkb3dUxweHtKnhJU6J7nNmDFjxowZFwCPCwJ4vPq3IX6bwlCcsnzXeYRqLEOCofCTP/5OfurH3sHCwdbgbsSoWG2WKFGbtNarMeYRDfD2N7+Vf/uLP08ulRACgQCTknijsGUKN+PYfhw3aNnMJ7o0kcZmf7/9372pNjaWLyrNBjVOr2d5ZLHsyNUZ88hiuUNwRwxkrezUnhMl8rbvfz3Pf9LVXPtdV9HnnnHf2A3ddsc3gSXOpsnsxC6BdJSVNRlygJIK42WFf/O7/45f/fJvIAgHrMl9UzyXMbPLHk/gEp4cL0PLRnHMpJBux8alYn3gcHHAR3/7Y4CwSB15GOhipNZKTEo9P85vxowZM2bMmPF3jgtOADfzfueTrvNRx8yJnV10KNzw3Gv56be9A1kbw2gEU2Jo+WNm1lImNqU7dzoNhC4Rq0Np9iMuLaf2kVq451cBH/Z4Y9si54pYvh24t2iLuj0OfqTkdUCVsRimSkwLbHAkO8mcXTquvfwqrnvyVbzt+99IesjRw0CwiO7AcLaSRFER4uadrk41w63iJgx1JC07skNeGHaJ8d4/+AAf/vLHGZfG4bAma0tSia5EUyzDzT90E8NDAzssp+1u9hfMm3DEkyNPCHylfJ2BjIgioqgqpYy4p0d38GbMmDFjxowZ3xYuOAE8jof5AAr4lHjRx0Q+e8g/ftFL+df/6n8iFCeY4CE2GxODWppljASg0NI6JCBulMOBt978Jn72F9/NaJNXXQxTBcrOMV3e4LjB9GbXjE0urj1q/cem8uk0qxedRCCbF3RplTsPkVKFUJRLZJeFVZ7CSV5+4w/xEz/6dvyhCg8ZmpVkgVIquUBchEbKzCHnNtuIEroIOVKpxASrMLDaMd7zhx/kP37x/WQtlLjGqoAqO4slh8MBUQKx9ijK0777mcQ/T9S1NyscnWLgBEo2XCq1q3zyq7fyLR4kxISRWa/XLJdLQgiYVeYe8IwZM2bMmPHY43FDAB/JCxCAKcZtJ3b02vOWm25mGSKschNkaGysbOP71zxUsNJ85qiGmJBSj3vljW+4mfd8+JcZbKSMuZFFzm31wsMTOI52rn0J2wSPR/k7izYxBNNs4fFYOBeSJGwUFrWjq7CH8rrrX8HbXn4Tu4cJ/WYzrc6jEzWACqpKUGEcSzNzLrWFqqtgpVJsxC2ge4Gya9z+9c/zyTs+x0e/+Fs8GNccxAMuWyyp60KQxDAMLHcWDGcGOle+Nz2TNCrkVhs1pmPdvKhbLmeXyDvOr3z811iT2S8rLCnL5ZJhXNGF0FJLZg3IjBkzZsyY8ZjjghPAR5qfO5rHA6lGFMWHzFve9FZ+8CUvQQsUdwgBG5vhcNAwKYY5d6BQBF1EytlDZLdn0XXUUlBtM2mjjYC3yb/jIgyOyN/xFrBOoo3N481c4LeL6Gmyk9mQSZsmC0EtsqyJripP5BSv/4FX8qZ/+lrSSunWSl23CtpYMqlPeKlYNcZcWO4s6UOEDHg8njCHLgMHWlifWPNzn/i/+U9f/h0e5BCLAaKx6JascqFPPWIBGYXVfuWUnOCpfop3/MPXstiHWAQJSnXQYlN2X2uxixirvGKMhYfKWcKyw4KRa2G5XFLGFbUaQRNzFXDGjBkzZsx4bHHBCeD5OC4IUYfgwkIC/+CGG9rcXwWpU7WLpnD1TItUc6cWI8aAhokMiuCrQlwuMTduee3rec8v/xKnV2epLhDYMrjjpO44jgs9jsifb/9TXI6SS4StoTMcVRVlSux4JLKoBMQ2FUAnuSA10BHYY8Grb/xh3vnKNxPOGHtnE6wcL04f+rY9rZgZuCNBWe4syQcjSVPrySpQjJGCXBJd0dZHAAAgAElEQVQ4m0Z+7Q8/wYfu+Ch/zj2c1UO0S4yyRgIEN0Ra6okCIbRZPc3wvJ0ree6lV6IPQQqJ6jT1B0yvpRCcg7LmGw98k6+Xb5BTpYpj1qj0MAwkjYieP115IbB5h+wRHm/27/gnork2bt7PDR7+vp77M8fnWo9/VtTPqTsf/YSf+9zz8fc1QeX8invwv+RATAfIkeMP/8pjImx+phmwb7fvgk+Z2u2JhvpG3DSd7VPk41F2d3vgF/zzO+PR4JHmzR/5XJbpfH0MdmrGjMcIF5wAijfPO1Wl4sQYKKWg5iRROoRQKu94y4/Ra0QqWHY0hHZe1mZrYsXRJIi37GDVgLi378cIxRAxLt1Z8LbX3sy/fd+/Z20VCYGQEnUYAYhRKTkTFh3qjlltwhQ2F4tNXFsjBmGKc2tmg4GaK3FSuaoqXialsAREnVIr3aJjvV7TdR1lLCiJgKAGSxaEKrzoGTfyvCuew5tf/ka6QyHuQyggeapABrBawCORdixyqaQU8aGQYpr8Ew3DyX1hvch85puf59ZvfIEP3vFRHmKNdUoJAcWnCL2KuLUWtyrVDImO14Ki3PSPX8vicIfOF5AhTLpimn0iJhXvYBTn9HDAiJNDpWrFRQk1IZ7abKcYj7aN/uigU5aybSu75xBAMcwFDWB1AFdcl22kYKMgV6F4nUgE6MascYrCExHMmLwR49ZI3LQNTDqNaHddpNQ1UQTcCdo+Q0I4JjoywoZ7QNufR21DdGFxRMqkRSJO3zdpj8SsxQbGbvo4W1tnuGFAVQWE6GwXXpvjtfXY1EC1ESuZEBuBLwhBWpSjldrOgZAwMcQzLobUgpDAQ6uiI0fm81LBrY1wzCTwooQ4hM35Wtv5SghUa5+hGBW3ilmligKKyeTAIIJqxKxc0N9hxoxHgwtOAFu7kCmJI7FaHQKw2y+ohwMYvOud7+IF110HQ0U8IJ3ia0fiVC4sjkbBp3MxpEAdDfGJKFYaOxGh7g/8xC1v5Wff93Ps9kvW6qzHoSV+qEw3447VONJ13Xl7e/xC32xgbGp5mrV7QgoRFZCo5GGkjz2iTs0FqtH3PQeHhywWC7zCwjokG4mIYtz0/a/kRF3w5pe/gXAo7J4WWLfqWxBahc0a+XNvAgz3JoBJKTVCrJFaRkiCLaH0xkHK/Mr/++v8hz96HwPGQRpZa4XYyGzwdsNtdC6grlMaieG10GfhBDtc9eQrWf5FRx4qnbeZQ8wobkhQDKOqIKcCv/6R32Kk5Rjbw4jKpkILF4oE2rG/t5iylzelgRhCI+1pQa5Gro2clZoJ09CmiCBTZJ9Zq8aqtESUXIwUEkpb2FCNsOiQ2KyNeg10QTErhBCIqozjSJnscR42gipT9e+R9v0iRftdNhW249GH7RjEGBmrYXZ0vXCcahnottvYKPpt+lpps7pjGQi0WEhxp+Ct+uxOGUdiWBBCYLRKrZkglZTaNYXpmuLHPEYRa+fF+cXhGRcdSpkEgTpFaZqDtoXIOo90IYCE6RwX1AWXtoirNZ+TajRjxsWGC04AXWAcR0KXmjdcjCQNWKn0KfHC513HT/3E27FDY7EIsII6VEKciF2CNoQm1HFsYgTT7TygFWttthARhd6FkuGfv+mn+Xcfei9DGEkpNBWwV2JQSh7pQ8SrcW7p/6hdJ95WhNUhhA684LUiZEotxC7RJSfbuuXeTq3mMoxI6LEakcPMpWGHhPHWH7kFzlbe9MNvoK8d+WymJ0LJBGnJGk0x0ap9IooGbcpnVWJq9iyendAJsgisUuZMd8B7f+dD/MrnPs4ZBlahMEphb3ePun8WDQGhUj1jOCLNGNpRHMOjYGczT+cKbrrq5ei+w1AIxKm17JC0We/QVsbWOZ/601v5fLlrun9OLtG0mhtTtbHhApKYqQK5mcDUSYgDbCtrboqbsB4qabnTiKw6VTMRJ1gTIflEgGMI+ETS3XSbM6203GVwcl6TSYQgjOvT7PZLilXKaIwaqIB2rVpYvTaBkrfFziYi8Lht0sWMOt1A27iHbquaMs3vooGqgbEa0ncQhGFco3g77yb4tFgxdNvOdTFEDQ2BKErNlZIdjUqKhpWRbtlRaruZx6DsxEgpTs0DqB5ZSk1k1NQwccpkJZWqXPTvwXcqXCDERLFCmay4qhtRIcauOSpMJC9sRnTEkKlqWJkcEGbMuEhxwQkgsF1d5ZzpQsDNsPVI6Ba8650/AQZJleEg04fUKnzrSkgBVgWSYqUSuoSoUMaMVkEloqJUa63a1jOCWjNvec3N/MdfeC8pCUNeozERorZ5Ptr+lFogTNm8NJ/Bo5m+idIEZbSKudEHaa2+qeUUUkSoRE0tms4TySOSFTHnBCd40w+8lre8/CbymZFTYYfuMOLrzJ6mlqUr0i44wfHcsnRRhSqtA+nWcoA14kmwhTBGo+4pv/CbH+HDt32M+zjLtzjLKo7osmcsxpn1Af3OgpzzRCxLi3LzgEvc5hOHYuyy5Jrl9/KKa19GPwSSKEEayaGbVs3uDDaiMWB7zoc+8RHOcEjWAq6ohal80v48PmbYJuonTG0+fdg+VQORiGjHwWokLjqGYcWJrkNypc89qabWhm/vDjqZiTtCXcu2HdlqTyOmzkpglMKi36NaRjBSCgTtGhmsTqUSJiIqU2LLZhaNbQ72BT+I3zbavF+r3Ym3OVn1JoPazAJbdaxWjIDUNuPrCEGUGBOWy7StI6OmZtPUSKABpeSWChQ7FosFRsWsoBEODtekfoGFadzDQEUQDfix2V5xmxYFfux7F++xn9FgOJWpWhwjqm1sqAwjSgCNCEIwB3Oqytby6tF6wM6YcaFxwQlgKaXNwrkRQvPlU4edxYIXXHs9Nz7vWmw0tAoxTtWW6oRlwAdHFgEi5OrcdvutfPb223nX23+SuipUMwLN/qTaZE+igZ0UWJfKT77px/jff+nnuXTvFAfrFbUYaMCDYGZ40CMlsNrWpmVDjgyaCpaC4GQ1ah7p+kgeC61a19S6J8MJWBun2ON1/+RV7MmCm3/4tSxLh5+peF3SS2BcT/FsQdCaoFaojlfHNKGh2cZUAy9Gp0ItGaJTeuEBX/FLv/9RfveuT/HV4Rvsc0ANGUkQzNA8sJci61IYS22ziW6twiRCDrEleZgTayKuK5dykjf+g5t4wvoSulEIqWsEPAQQyMXougAGQ5+5/S/u5PPczZm4pqqhIlQP0/yUIzpRInsckEAxxHVbxbGpKridBDToFgvW44oQImpwMiyJB4WlLdhlj2d138PVlz6bJ+8+gd1+l50ukcQnRXTi9P5ZHsoHPFjO8LUHv8KfHH6V+8bTFCJjKVQ3ZBkolsmrQ/p+gaLUY0KTJjo5qlC2ybeLuwOp7tPxb7OArdpmuPpWRxUkEiosljuMpVBqoU8LalmTD1akuMTFUOrRttyZtB0Ug0W3A5bJJSNepup2RFOi2+ka4ZwsKbM4oVSSh9YWnhYJ7WZfqWIEV2JttZ8L/vmd8ajgFZL2YIaMQtSIuCHV0NQxuhNEUJq3qYhgfsx3bMaMixgXnABuh+LNmhAiBKILNhbe8dYfJzh0k6JXHYbVSL/sYASJwkDFgZycf/E//Ev+2dt/inUd2O17PEMdnRCa39yk22A8GIgh8LY3vIV7D8/w/o/9Mp0GhmqINkIjcXKX3qoBARwTmZqjrQJTS0FUW/VQAlgghg4Ngq0qO54IVdnJwpv/6S3ccOXzef4zrqa3RDgQUga10GYIMyxDBwgcDDSH6wA1IxLQqFO7ygmxtX2HcU06FVnHwnt/44Mc7Bof+uxv8E0eoi6UgUzqAtRCFzvGYcBqRVNoHbaaG5FwR2itcKeleWgWLvFT/Mj3/BAvecbz4RsV218Tutha8M1mEdXWjg+LwOnlAb/6ux9ln4GzYU0ibpXTjmDihKnaI6LYBawEtmrT+epOnVqJTaEbY2RYHZD6hBiUg8KJeIIdgxc96Qae88SreEp4Ck+sl5PGCIOhYyVKQasjlrhcLmEVK+tl5tonPIdD3edPz/45X3ngT7njgbs4wyHrsmozm7HZElmp7T2IOskjaOfARhDy9wIyjVK0fx+3XTJpCT+LGii5oLmwCAp0CEbxQAo97kqVJj4CiNOxMgQ8IjKdW95mdTuJxNITxgU6KgGjUjCEGmGQNTVU1Au1Viy2DoCKtyrutI9hEp1UtZkEXrRoHZ8okVQcL5UozXlCrIkBLSpVIVMRdTxMF8iNOn2eAZxxEeOCE8CU2uyfqGDViCFAqSxTxwuuux6d2rYqUNaZftHhddN+bSNosgz8Nz/zMww4//bn/09qLrzrjW/DSiGG2Aa5W0EGr0a32+OjsTpY8d++87/kwx/+NaQaskisLRO61CqApRJUt5YQrTrUbi+b29YiduRasLE0ZWcV1g+uuHznMmKpvOTK67n6Kd/DO1//NuIAvnbi0PKNx9UkGIjabi4rb0oPBxY9jO3lTMM0q9fEH5uh5VVdkXcrpxcD7/74L/Arn/8Ypxk5YE080bEaDkixpw6ZqIl1zqSQWCwWHJw93exyxDEcI+CuBAe3glToivLSUzfyzn/84+z/xYqTtkCXu9iqoJ3iBUIEK1DWI77nfOre2/lsvpMhVUZKaxXTKmxVjobz4+NiAS0wkV6htdOh7WedRB1hHDjRLxnHNVoDl+pJugy3PONVXH3yWezWk3TrnjAmrIKFiiqTArspgNHAQhb01bCzHZezxxXhKVz/5Ofz4ktexK1nPsdv3fc7rGxF7IUhr1AWLBY7rOtqsoqZWsGT2sGOzc5d1PBm53Sc1JoU1JWuCsusXMLlHDLgtT3voK7amEUIFPFjXpzWlLk0fX4VCBoY8poUnaTKeJC5hFO89NQLue4Jz+XJJ58MYjy0PsNnvnkHf/DAZ7g/P4guE0UyRTfbFppmWB8xNWjGxQdxSJrww8IuPQsWCHmqRsOIsVZl3wdWYYXHVpHWKoRp4Wvu8wJgxkWLC04Aga0FTNd1+KTKuu551xJ8Wmlbq3rFRdqMqiGhtXcIyic//RnuuOtOPLTV3P64pqoTUsDGgqbYrGNSW9mtViv6mIh9ZLVe8eabb+Hff/D9DMMAO5GSKykILpFgG1vmNofVqhNN7RpcYV3orKlAgycwo6fjjT/wGq797ufwfVe/gGUOpDOOFAVJjbXidKm1Tb14SzVZNMUvEWwFmgBvNzMHMpnaVeJuz9m8z5/c+3X+6Lbb+PAffYIHOcs+K8a+UiiICim1CgdRqbUQU/PzO1g1FXKtBRFDEEzCFJtXiVWQUTlBx2tufAXLhxLLGKhDQT2ii9ja70GoI1SrxJ3A4e6aD/3mRzijA2M0QkyNTVkT04grTBdMl6N25oWEum6rf7ZVJB/tWIjCOByQtGdhiafrE3jltS/je/3p7O4vSJbQquABCe2mYV5RE6IEXBLFAlYUdWVReyKOi9BpR1xeQX/lgi/51/jC/hcoPiJRiPSs1iMSFaiw2c/Nh/HvgQXMcWyrfwKtMlNJJXLjk67l+579Esoqc7has1/WfOP+b3Lv+gG+fvgNzoaBokcejs5E3ttWMTIhCCEorJ3L5DK+/7tfzMsu/z4uOThFf7pjGAaetHeKy592AumUP7jn09y3vo+69HOsnxo2lUp9xBzxGRcXaq3sseSl330DNz7zucRROXvmIc6sTnPvwUP82el7+aY9yD2hMmpBPEwiJf3rNz5jxuMcF5wAKsJQMpoiPqmrrFReeOML8GpNmSnSKmNthKy1c6dimZXCe9/zfkIIHOaB4sa7P/h+Ti13ueVVr6eLibGMeGjVABREA6uaKTifufNzXHntVTz7S8/lU3fe3qpr0HwINeK5oG5kq8RFR8UxN8wjySMnpCeZsyM7vP4Vr+b6772WG666jnJ6xY4uYW1Iae1Vt9Lm33qhDgNCwEyIKVKHQvDQSmOiVGtkywpIhCIwJjjNIb/6G+/nMK751U9+lIcYGdWbNUaoCE4vgZrbXGKhAIqrYORGwoKyckFVEGu2OV6EkAKlFnR0nuonueXam3jJFdeR/7yQtdDHgGdHTBBpZZAAyE5gPxzwuYf+mLvt6zwUD0GdYNp825xtq6SlngjmjwczY0Vt4x1n+DFGGnzTIm72LHVw9tjhtc/6QZ6Tr2CnnsTLNNeozT/RzElRcQJWDRdFpYlmxmLE4LgXrIOBQo1gwbnvvvu45/572gJgQq1txtL4++sz1uRWuX0GJj+9I8W90NeeZy6eyVP2n8iidmCOxEB5KoypcPfwNf79F97PkAaCtYVZlTZ3q9B8HNVADWqkzz1P50m89PLruWR1kt28oNBmBOv+yGXhBD94xQu5575vsGbNt+oDdNrIaCOXso2prHI0Czzj4oQLuDYXxyvSE7ni4Ekshx0Sz6TuQDlRWT2t8MfD1/gPX/glTrM/kX/BvCLiW3ugGTMuRlxwAphzRlVJKXFwcECHsAyBG66/ni4qkvlL523d4a47v8inb/s06yD4ImEi7K9G/uDzt3HlVc8hELjrzrvJtTLWzOc//3ncK3ff9UUqxlqMmpT9OiKLRJ1MqXXqVXaSiCL0CIcHayLKIvasypqTJN76ijdw/bOey7VXXsNSOuIa9P7MgmVrPZtu7xKSIlYrntuMWUrNSNRxPMKQM33XgUHcic2+sIOcYNCRX/rND5F3Kx+49SOc5Szr6BzEgqkTaXYUm5sn1pTMG8+yhja9uNmhitL3iVq8JYEMheDCjnc8t3smr3reD2EPjOyFrs37ldpI9GZz3sydD32NP1V5/3t/mdOsyF1Tc6rIeVF50w9u0xX+tj5F3x7OT+cwac3INm+3edMCwSInOckPPfMH+Z7uaezu7xBITSWqBU3CelxDJ4yWMSmkhRKl2RDhEVTw0E63wUaqODkZD4Wz3PpndzQDbXcCYesj6D6ZZW+8547TDTEu9lvP5qO6/RyIt/NuarMmAsu8YG/YYSf3hLFVqXMwxlQ5aXukzUjG1MYvojAp1BVjLGtSasbjCyJXXvI0TpYdwqBIVWJsKuHd1LfKuCtXnHgKtz/4ZUJKiOdtg7qKYtNn+vFQvZ7xaGGYtMXCYlywt9pjd32CVANVjaqVZcxcZifommEqm/yBzVjAjBkXMy44AQwhIEEppWXE1tWaGCOWy9bY+cjltYkwjl98b73ts4TUQXQGKqZGt9fzn27/JP/5jluptRnxFnNSarN9qkCqFMt4aEISXXZUMUoppNiTh0zQjpqN6IHOlV1O8qKrr+M5z7iSF133Ap7z9CvpLKC5pXh4NkKN1FKOJJqTUVTJECOAoiq4C+NY6GJkXA/EsEA7GIaK4XSLyEoGTsshv/Z7H+UBzvKhT32MNZk8eZERBZVGFsTC1P5q/nEG4K2CasdyhrcHdDqGuYLGyGpYswg9l+oJ9kZ4+z98C08cTmzVkWIQrFnhUHMrS0pl9Ex4Sse/+fjP8rl8F94FoBKo03FI043eztuTqUpzASUN57dQNwTaBYo2IYE67Oae53ffywsvuY40nKJoIuC4ZaoNOEpZFEqC3FcGBkRaFa/znlgTqfRttCBG1JYkr5y2h7jt4E4+PdzBulvh4kQPeBUQR7QpZeXYMdqQpfZ9LuoUikam2lydTBXhDfluhE4J1iEl4RYns23F3DFplew2XLCp1m7MoG0rZupit3WGFpqdVIxK7pRUwcZD+qBtpmSTSFQrhlCad09TXG9m/6d9D8cq2Bd6ITPj0UIJ1hZ6EDAiJiMuRjKjUwMGahiJshljCdvP2YwZFysuOAGsteJW0RQZhoE+NNd1d2+EKU9PnC7wGxsW3wzDm1GLM5ApEYoZcZGQnZ4igtXWOS7FsSSUsRHAFALrobWOll3HsGqu7wtP6FhadQDjhudcx3XPvoZY4Mduegs7kij7a0IR+nVsAhUEy0ZIES9OXEQYmKpmTYUcpyNdi5O6NlAepaWFdF3zfluXzOLUgqrO2TjygU98iF/43Q9wMClqx86oQSg4UVo1UTkqEkG7Obbj1ciauDcrnOMkAraPvQqaIl2nLK2H/ZEffeYruP6p1xLva56DZchET80CoVqLO3NjZGTYNe6878t84p7f5kFZkYPjXhuBmRSrdsw/8fgF83hc14WDbefOjh+jo3m7SKLj+sufx+WrE9Qh4BqpVkELMXUc6CH3Lfb52uFfcM/93+KL93yRM5xmQc8zl8/kRH+Cp5x6Kk/YfRKX9pcgo9CZsb8Y+NTXPs1hPKBobqJv1+m4eWuzb4yqN5/3x/z4/F3j3Nzs41m7beEgLaGhhfUdm8c9yuttc7kbcz47ZzZPCeSc6dMCz8LXznyDBznD5XFJyLDX94yHB/R9YC2Fw944bYdIhKBNU2KutGla3b72JhFkxsWNTUKRTsb+Gy/QNpbQ4uHC5jz0tqDd/qxvpsJnzLg4ccEJ4KYqV9zZ2d2lrtesVitSSoyj0T/CsK1NJpwurYKoqvQhErvIYIXV2RUnu13GcUQk4CrErmc1DOx0PbU0W5W9uEsslbByLmUXauFFV7+Aa559FZ303PTqmwgoWoUuRPLK8VzYS4sp9qulh5iAJiHnQkSasjFCHjOpS82KRhsZFTtSb4oImnqGfNgUZqcS99X7+aXf+gjv+b1fZE1lCIW8yYGbPEBacjCAELxl2TbjXENUj7YPSG02Ij5VOEyYiM0kPEGphxVSwA8qP3TZS/mv/z/23jPIsvO88/s9bzjn3Hs7TE7AYJCJDBAgKZKiSAWSirUSd2kvFajdD951ufzVVf5kl6v8yXaVq1zrKq/DSrvUrihxRVIJTFqBASAIEkQcZIDIGEzume6+955z3vD4w3tu9wDirlVLlobwzlPVBXRPh3vfk573//zDRz9NeyySe1MQE9jqj3pNOGeQFEm1cGq0wWe/9ids0jOzHTkPNjmSS0SeDkksi+fzFu8v/wQ0fxco+IYHgMq275vNhc83YcKR5csY957gakJK5NxTe6FLkdlYuXftKPe+/iCbnCORGFMBM16an8R3HnfOogjXrFzHLYdvYFe9wvHNY7w+fxW3lIudkLqiVDdCEhnycMuabSW0DK93a6j/Dn7+FDVteSdWF6dIOSbZZAKBYHNJaTDFr7Ek8kZsipQRQSaZC3/n0BQOSmlRg7Vlg3Umr/NsfoMf6DH2Lu+GFpLWGL/CNLXEXcKL+QSPbD5Nb6fQt1jjKXPqqhh8axp+/yX7l/9f1OD7uTgP84X7wOGeEHMR/Lgtg/fhR4fc7kt1qd6pddEbwBgCiJQx5HxOJYKrPI8efZx3X3/T1vh3C9iSbf6NKPzOp36Tm++8nfsee5DvPvYwzzz/HBMqXK80eLo+Ujcj5tM5S2Kws8R7br2NMG+589bbabDQBd57653cfuPNMI9U4rFiCzcuSeHGueIPlbMj9QwjPsUaS84JMcUzTjKkrjSe3pb5b8oB6yqMgGoxpc4K2Si5SeSVii9+6Yt0PvC5b3yBlsSGtMwloo0B58kxFoWx9aXxTKnkV+YyDl4Y38oPwYh0kVs88JcWJKbib2ZpjKOfZnazxN+78xcxZwVPQ9WY4ohvzVbwhPOekHqME/IOy90P/xWPzp7hPFOkKZY5Jblh8YcWT/b8N47f4vOLWhILR29oR3W4ydtFHHAwXL7jEGOpcWrJmlHNODElRcALL50/xr2vf49j7jTUCaFkRMcY6V0EEg6LS5bHp0/zzJPPM8IR6Ygu08eIGDeIpRU1UqwolMJnG14Xw/Ety3exF+7HVGoGbG+7eSt50sWcKKMl/WSYCiCCRchZyanf2kQkMVs2PtsPaYVUhuQZpVkaMZ33/MVjXyMc2uD65WsY+xbnanptefz4kzxw9jGCS1gvVKZca+iQW41uNQxbnNFLz/93dJWN8vam4S00GUpUYddHZKAp5KSIdWi+EI++VJfqnVkXvQGEYgODMaWhGYyh+77He4oX3lCL8PWFklQU6gR3XXcTt994I//Vb/0jQtdTe89j33+UytW0sTj/e+951/XXU8A0xWmxbslxGD11YAMYW0GCtu2p6woUal8NhoOCpoStLSlRRqFR8YtcYi2kf+srCGW0LRa8NagmUkokW/Imm9WG9TjnX33tc3zh239euH0EnPMF8fOG2jbEnOi6gPM1feyZpkDTNMz7GeN6TAwlKxYjQxzWojse1tYublJvZdzpFhKYMPPMIXbwiRt+kVsP3YScKtTFbh6oqoqctDxcZbDsyQZpLI8fe4o//cGXWbdz6mbMNEwR0xdPR9wQWZeQwax78cJUth/2F6JaF6MWI8c0LFjJAy7oqEsGp4bLV/cNFi8dGiyV8VRSMc8dbdXxxuljdMyxfmhZVAnkov9x5dgTAxihzTN66+hzxnhHdDUpleZGJWEXjd9WH29LswGFR6k/YQ30j1QFYcksmre3WvAIphDv1WC1fE9R95b1KhnLpVnHXNAYK8hgOJ6IVL4hdZl+3lNJxRnWufvkffzFsW9iMQQSCcWJp5WWnkCKgWwBMYNbZE8WLVnAwBa591K9o8toIRcYzQgRIQ081EySTDaWeQhAsRjrh6jAksRziQJwqd7ZddEbQDOMLHNKBdUSAWP4w89+lv/it3+X5oLvXfQ3ZYw4jDCd4EJGcrkY62wwIfOBm+8g9QnjPCEVnqDtBKdCbDuquiZ1BclJg6Gxxu2xbWUrZEDqFpwso4JtSg6xDMbMxgqEwhUqnw8ZuSKohawRaYQuB1IDyQpPv/gcj3/rSb54392cZoNQK/MYMN4wyy0YHYCG8nS32JJ1bEs81Xw+ZzRpmLczKu+3Ukq248y2xQELfzWjmcxAogeQWEZwEWoablu+nt+485cYzWq8CKSMqcpIMqOYyhD6HrJFRsp0peMvvvEV1pmz6TqI4IwtYzeRrUb97f3JTxpqUjYVZuDyyBC5xpYlTINlYnwxgDUDx1ITOYE6IfjMK2svF6Py1MF9RboAACAASURBVBc7HlVyjog19Clh7GD0bYTkyrnTph6RQB+gGjX08xZxFjXlpDNJy3pqWbNcfgEs0LLsEB1MrAcD70VY/eKYZ1GCzRc0LbyliVygWKDYC5yNt8bMsq2/MhdcdwsDlLfb+IgaXDLYXEavW3F6AFIEWml4fTqo04t+feu7hn/b/p1maNDLta9bquEoSsjpAmX0gPRt8U0Liuq9p2tneDfGWE/oE37kOB5PY0am5C3bYsdEyjRmQHcKIZPtZBgd1raosW3eXoe3okZvv+7grUzXtzcNQ9u6tRF6y6ptXS//vqZ/6+sDos+WT2H5rCSWyFt+Ll+wAZMhX7pkHV/werZ+wGGzwWW2jitAMtvNejaZMCSilHOq/NuChlI2edt/r3zJDBzgt6/Hhe/fsFDjZxO31sFmV875xXm2pdgvxyeLDirebbT2b66fbpGnt/bCw3qKLhT3BgZhYFk3Kcp8KNeotYOJPlt80O1jtX1e/LBN2uL1vLM3cJfqnV4XvQGUxVgyZbyxiEJSpc2J3/83/5p/+tu/U7zm+oxkBV923jFFnPHF7sGYEv6eCpcKCqJorUGj4hEqDJq0cOhshUYtTLohZSQA6hKVCsSEwcKADmoGnKGPCa8GW1k0lOlcTsWwObWFpkdiGONlklECkd5nOol89u4v8NiLT/HU6y8wowPjyDaSCrGv4FAW3j7eE1FkuNHklKm8JcWId25ATIfvA4olhhksK0BSxJtBeZwSah2aA5I7Rr4mtJllJvyDn/4Ee8JO/Eygg5wDpqmLn50z9BKJLmNQ4iTx+9/+A+6b3Ud0aaujyxTLE9XBJndAai/s9xbN36I1vJg3wDIS94iAyxmrGTWJLJkorqhwk8Fh0JCopWFDZ+U8NRVZEz09x3kTkYwzUlTRBixmQIANqpYslj5msk2odlhRUg742pHDbFAXQo9BJTESwSo4GZJJVEvSjDhyVGzwjGWMy5YayxhfXB+1RzBEEh2RqQamLhBEizejKs4Ycii0hWQUJeGzxVtX0DDNmIE310ugch4XKEimK+NXkwQjrvhVWktC8MkyCpaGihENBcMTAj1CpE09MzpSpcUGBy2bBSBqX0JwnCfmtHj8kqXE+Bgppswhd+ANOEM3L+uVxAABJKKSSepAPaK2bGSsJ2UIkpBKSdrivEU1YdRCKoiOdZYQy8hBxA1IotDFSNVU5CxoEpwUb0CRwuuMuXCARTOSDRhbaBLGkPPgP4olairxi5Qmv4TkDKPGLuKrEbHEl6BpDlYQU/LRKymK9Kha7nVkckrUUqM5kkxCnCGplHQKG8toPbrCchDB1Q2zMMf6IgtLIWKlIatAVjKBuvaEEEDBUaNpxCjXLOVMjcXjUZQ2heGeFOlSYmoDoVJ6MilnjI2oJixVyWT3A5WhTxhX06kitqDtxZlhgQQbQgj4xpOSQrLFyF8TxoLtBdcbllkFoKFCEDwO1cScGZFA5zMbYY7xlqwJZw0p5a3kpV5bjACmsErJgwJfAfEl391U2NziRYpVF2XjEnPGupKcFLMWOoxcYMOlig4jFjHbDW7R85eNkR3yhBMXdwJyqf7TroveAKaUcN6TUiyIkQjGGroYefCxR/j0p36LhpJ7SwbtQhF1eE/o4rADHPbiIhhfoalkqRbS9vbVta3slNLUXXjhSWbLYVq0CDmAHBRsMf6sakueB0Qt4g39LGO8IUawNWAohr+1YdoFzMjx2S98AR0b/vArnycaZSO35NpCU7M+Xad2nr+ttvOHIWf5P8BFMmrKLjUljBVEIPY9vvHUbkQ4P2c1r3DEH+DdR24lvzzw4SwY48gpYMXR9h3WO0zliFXkufM/4O7XvkJbZYLEt73+v93d7Cfnprfgdy1GkOXTVPYQdASSCl5qQhcxlaWPheeHEZzxXFNfzfHu+7gM6gxiBZPKwzoHBWNK0+BNGYerkocHYEoBMMNDxpSxpxRUJamiqSdmaJaW6dtE1RtWZZmdrHDjZTewf3KAVTth73gXXiDQ06aW9fVN1nWTJ049zwvnX6V1malMyW7gEcaEbRzWDs1OiOQuFdFPcjQ6BqSgkrOIR2nEcaJbQ8eGJIIkGGmN6wwOzxVLh7n58ms4MNnHjmqVxo7Kg7USXj/zOufiOV5bP8YTp55lSgc+0jtBTcI5h0tg5xW1LqE5sZMVJjpBQ4KcccaiIoQcSSEz0Qm7WcHPDYYeBqpBQW9qApFoW4KPBCNoUrw46ljRpEyFB2oUJVD4hJ1t6aQHY2hzBGMY+Qk6S9TZ0eRmsIROeBwBiCitzJlrR2UMse+ofIUkoekdXj0Gj8djBsxIByS3pyUScVXNdN7h6pp5P8dPCuUjhI7aeDRmHJ46e0yCenBAtPiBi5aIXabHoqIEN6PPLcY7xJdzqwsBXzXE2KPkskmTXC5GI9SuYT6b0xhXYh+TZ7e/nGv3X8W1K/vYVS0x8asYZ+lMoaxsTNc5M1/juZMv8fz6y4XKMk5spjXEW2IbqaqGLrQYYxjVDe084KmokscGj8PgShI8DG1lO+voTCI5j6bEWCvMPLKbnVwxOcwVq1dwZN8Rlt0Ej6MSR5cDG+E8Z+NZnj/1Mk+depaNNCfaSMgtSTJN3RDngWVdplKLZNjNTqpYo6kM9o0oaCb2CWuVUefYy05kbgtVgIqybUoIltiVayu5jLVC1lgaQmNJXODDqmZY7wGj3gaML9Wluigl140+enEHcikPwoJYfBeg8PNCojGO//J3/jG/+59/Ch8VSYq1hhzToIwsQg3rBSL0XURUsDIYOQOa2HZrGHq8LeHW4rocGgAlYwalrmS7bSyWKWiOKHShQH7GFaRCoI8dSSDazDQHvnTPV1kPM/7knj8jkIgo2Qo9CesNXS4iChEh5x+NR7I9anr7YSyJCFl7jBGMKNZ6UizvVE2mmRmu0r38N7/6X3PH0u2M52Ns0SwgRotaWgvSEyOkVeENf4z/9t/+9xxngzNug+TSOzqSLA9YkyEPY7ABzRTBpYqlruZXj3yUXxt/iKX1EV2VyVbQPiKVYSY9L+mr/N4L/5I1v040MO3nVH4ERhDvitVRLCiWMX057mpBDEEzRgSvQlYhmsVoLCISCicQS+xrxqHmRneEu/bdxA0rV7G72oUkR46F2qCqBSWxFoLSaSDUiTfa49z/6vd5vH+KmWuZ2TnWOvqsdFpGzVXKVNlTRccSEy5jP1eMLmf3aDfLrmHXeJW4kni4f5qvPnMP3VjQTtmdlrh1dD3vOXAr16wcwccaFy2VL/YrBqGft0xWJgQNbOQ5b3Cee15/iMc2nmLqzxNsi1VluWu40d3ArftuYiSenezgyuZqVnWMjYrNGaOCGkg+s05LaHRr1Lc9dCtWHhvNjPvOfJtvvHgfXZUw4nCd5eeu+hk+cuC9sJaYzVrUgasMeZfw2Nmn+Pqz3+IcG6Sx0Koy0RHLc8sKE967833oRubwwUNMfM3ulZ28nk/yfz7+GWaTOTYHyIKXBts6LmMXt67cyLW7r2O1WmVUjahc8YSc9lPOhtMca0/y7978NhlhyjpT5uiSp9dAheDVUMsYnSZ2ssQto2u5cde1XLZ0iFG9UhonjczDnLWu5Xh3gh+sPcsz8+c5byKbtiMRMQbEmrLN0IgzQsyJlAXxDZrAJGW3TjgSdvOBw+/l2h03skyNTwmbFLQmqyWiiIWQE/WoIsae16dv8sCx7/NY/zRr1SZTN0eyYkyhrrRti/euIMSzmjE1B7mcw0sH2T9eZcWOWPHLVPsavnv2Ub750gOcayI5RHbHipv8Vbzv4Ae4ZvVK6uSgjzjnICsWT8yZXnrwQsyRk/Es9x17lKOzZzndnGbTzmioGLcNR9LlvP/Ie2mCZTWOOTK5nN12BdsXL8hslZgznopoI2fMOfISRLXD86EMo7JENusp9x3/Pg+8+hBn8jo0SjaWLveILY4IBfEzmFwQx+1JyE/SZvhS/adWFx0BFGO2mqCF/1/SjK8cs7bnn//Lf0Hf9/yTT/8uzgiqEFLCW0vsA956cld4V5V3hSMUilrLmP+PK8sMzZ8uuDIXsHm2+CsQ2h4/qgphblQRu55gFTNxdNqSRfn8X/wZPZk//tLnCcA6LbauaXMRBMQcWFqZMJttYmwZT6eUfmzr+NZwetlCRZ2rgEyKXUFYhxuYJsNYx3z8ho/wrpWraHJF6W8zzcjQzQO1tcUpWgtJcu46/tfP/++cZc5ZNmkJZXT5Dq4LpTHFTmQxsi4j9OgMx86fIkwSKooVV1S+tlASluwSB/1+fmbfB/jOyQdYY51xtYuZiQSndH0Z73rnyhgpaxmRiSOLK5sKkbLGmjB5GIuaAbWJPePs2Rd28p79t/PTB9/NZXkXq/Mac1YLD8HYMspKmZwLz8pgmVjo25Zdq9ey9/oVrp8e4c9f+iv6GOhtxNSWBl+uORQRw5HdV/NLt/wCB2e7WN4cMdaGKjpiCLSp49X2GCuMoPPkFPnlIz/LLUvXcSDuZLRWY1NVrh2rjJ1DU8ZKQ3ciUNcjalvTjJeprlnGveJ4cO27GF84Vg1jblq9jp/afTtNrjGdoUmTMsIklnNcTXl/AXbaJXRDt47iFh2OwuM6uwR6NlJT0eUZXWxZYTc70gqT0yN2xx1kU3KzQx/Y3GypZw2ow+EKSpsjtJFfu/VXuHl0LcvtKk0YQ4xlRH/eYpcdE5bo+h4flAkNHs+HDn+IW3e+i726ykpYwvUO6QWLJ6mQZIXD9X6uWrmaaw/dxHde/B5Prz1KZYS1GDC2KMd9K4xpuHPPrbz70M0c1J3sDSv4ziOxKadvSkRJHPCGa3Yd5oadh7mlfxd/9PxXqfyEqd0kmDLejn2g9paQImIFTeVcroNjNU64bef1fPzqD7N7vsxSO8F1IClgrcO4cbEqSgUBTyi2F0xsWKlrDt+2n4Mn9vGXr91DCkpqhGQTfUy4uiLEiG177th/Ix+++qfZ3e5mR1ym6QWfDDYpsYscSDtp1DKZJ2rG/NIVH+SuXbeyurmH0foYGzN1VWgWKZbYTLGOoBUawONYdSssXbOL+IPEt2ankCUpvNOUeP/h9/LulduZBE+tFlcI22QSmsqoXlTRBC559soOcqdF3EZ5XlQO+n6OmyTs+cLbtkYIkkmascYTJDEwjbBa+JFGzbZv5aW6VBexLnoDCGUMLIuGSIQyxFFMUxGT8n//4WdwledTf/+TjLD4piJ2Ae9csXlQKWKMDHEeClHY+q1/W6B4UH69MPD6AHR4fAyiC4PwdumCX6rQPhCIhBRxOxq+88hDPP7yczz07MM89eLTgNASCt9IM6bydLRIVXgulVjm8yne2aJy7jq896Qfu4+UDLYVg6whKymVh5wxhhQCI79E7gwWx0du+BA78gqmhRwTdW2JAbyxLBj36gwzFzl6+gWO5hc4wTm0sTjrSlP8Dq6FdciijVhwJ0vea0Yl8Py5Fzl3aMrEVFQ44jzh6/IATSGwq9nBL+3/ea50h7j/2IM827/IplPmzKk8yBDzFjNk4wZLCVMaNmuLAjErlVJG6iJABdkxsROWOs8v7/kw79/zbsbTmnHyuFSypfFlXCy5R8TjjEcHTkC2GYOl35izv1rF19eTr/Tc/fI9nHVrrOeNwmUDjLOEWeLMmfOM4jJL/RJN69BcGmORmtgFrphcxgF2Mk41v3DtR7iquYJ6VlFRUVcNuU/FINf7Msq0JV2hHjtiKij6KFmOzEb8yhXv5YW1o5zoS8oCJHaNlhkFS508xGKxpCjWZVSElB0mK8SAyRlrHNkoaeBuQuFX1RGcRLJNA+9QsK6mbSM4Q1WNoVPECpJLE2ODw9sRlgqPo+/n1FXFREaEk5ss7a9Y7cc0uaYwQwTJwrKbcPXOI8zXZqzQcGNzFR+94iMcdPtxwRe+ZAhI6nBSOJ4Gj4hF5spKP6GyDXuPfJT9ruGeU/fRZ2Ez9fhYs49d/PrBj3PH3ptgmliSijo7Uh/JJoKYIhATwUao545lu5cdrmHP7Qf4vcc+SyeGbpSJGnG1I6SMdeWY1H5Enkd25IZf3f8h3rP3TlbaHbhoyP0c6zy1WyZEpeuLaMZJJseEE4ezniwBEwz+tPLBnXew2uzki89/jePdOTbiBr52hNRRO8fYNxw/cYrVK3ewL64yaStyAmsMSiT0PTv9Tvazi2uY8MHrf4ojbj9L0zENS0QFrSzT3GOIWCMIQtRIoGyuNDlcq+zTJT5+3Yd44rHHSHlOyJusVqv4OSwvN5hWMWKJOZZIUqkKTzArBoPashFweEyOuIGD3ocZoVNGzYhplegtzAkkl0r+eqow1iHZkU0CYokZHTi9DEKRYmj+d3zTu1SXaqiL3gCqlLGEiKC5jMPEGKIWYnAiI0b553/w+zz+xFF+8xOf5H133EnV+C2LmAs3U877QuRQ0L4gAYVzMdB4dbCaYWgcKd+75UDxto1ZHqhhQRNf+PKf0frEH335T2lRprZnU+YwMYTQYytPzoXPNGtnjEYjQizNlyg4Z9GkGGtw1m83oT9CFTPdbUPjRZzWAhHUAWU0xgwReA4NER9H3DR6F0d2XoWcUsiKrx39fDDnsBb6QE6J0CjdDuXzX/9LztOiy9tq1B/He7iYpW+T48nA0yn8nEgUWGedFzdeZe/yKjLt8WLKGkqFSBnr+I2G66trOHDzQR468zRfOf4tRtrQhvMkGwb1q0FtXVDEVE460QRalLELQYQmQJUqFi7Wxw5/mA8u3cHudhWvFZIUiRnvHa3piDbSmSLGsckgEYxk0IyI4vHU0bELxx2rNyPXef7k+S/SSosbWab9FAw0VUPsA+3mFG1XaExTbFDEkKJQJ88edvM+7uDOG25lrCNGGyNq19Bqx3rehMYW9CNbqqZGsyHG0hSKc4UQ0UaWqejdhLsuezf3nvwu51MgDwbcqRuaPgzWWBLlvaVUuFlGXGl4jJBiUehGyYNgpKxdUsg5kkzJvA6ho0gxBrFW7jHZskh78DicCIqjH2xhmqZhlhKddsR5hxeL9JnUR4wrwKtmJU97Dshu3mCJD+//AO85cCuH233IWSUb8E2FNbZET1LEI2QgwtjWhJgZMWE+9bz/0HvYnK1z7/QRKpa43B7g49f9PLfb61neGCEpoyljjMU4S5TCJzW5XOc2KUTFGs+OaoWsjl+74qN87tW76XKL9TV96otQLCpWLLaFXXmZjx/+CB/ceRc7Zivk3mONoaogpUgbA0GEtgbxiUYVExIjGtrZjHpU47JhHD1Lccz19gi/cuRjfPGVr5KdlDU0hr7viLE8dsKsh3nEthUMYgi1lkrGHB4f5k65jdtuvJVRrtgRl7DZMwuJ5AWtYhFR5RLTWcR3Upq2XJBJb2pMMKx0DR+45n189cW/Rl2kCy3LozF0mZEdYXMRAS6Q8y03AGvoBr/VDCV1qusQGbxCnWM26wl1iX3vyUSr4OzgsFAEJ2RTpB+StpTzyQyK5kvN36W6iGV3+6v/h4v5AkS2uXDO2ILADc1LyhnjbJHpAq++/hrf+MY3iKkoD3ft2IVkwYiQUyLlhJgielgYGCulOZIyFxpI4mU+Kgu7lcE7bOFLVu5E5ctYyBZsbfjv/tn/yD0vfI/zBKY2lQvfC70kqvGIPoQCNCr4qqGddwWhCAnnyqgtJh1epyPEfssG50daQ7Z5JFYH7p8pTsbeubI+ORNzImtEOzjMQf7xz/02V/pDjFJdzKWD4msDISOxyKPVGrpV4fe+/Vm+eeY7TH1PbzqcQGhbzAIpfEdW4eeoLOyfi61EGb4mjGa8ZJrsYKYc2LWfsRaFq0ZBTEUyZawU+45RPaLSVQ5MLufWPTczyWPOT9fKOSYG61wxkw1FROKcYAhAIBtDNgbNDk0Wi2FPWuFjOz/Az+y+i5W4hE0OkYYYErUVogZ6E5g3kbVxx3wp0TslELBW8SJIUgyFh5iTYINh19IOJvWI4+dPMgszpCmNkIkZlw3X7TzCZdVOqgjWwnxzkyXf4I3FBuXq/VcxThMqHaO5phNlXs/ZGM05PZoxHyds7ei7QOlLLdlarPfEHBGgaVbYpCeuCk8ee4qeQKOed42u4fDyAdygqkpJhw3eoKBNbnhQJ1IORTFrBisTDIil5NsYZk3i4fXnOR7OkE2iFsMoWa5fPszV7gDL1OQQqHyFsZ7zpuXF/CYvrL1C72esxw2CVVaqZWab57n94G1MWMHi0RxREnXtCLkndpEbl67nrl23s9Ku4LoKb2q8t4Uy0iWMrZF6XHw0g8WJEOMcY5UQymZtSTwH9uzl8ZNHOcQ+/sE1H+MGe5hRqOhngaaqsM4y7Xq08qgomiNWI15ArGBdGTGmnKmkplmpefrU86ynKUny1o65shbJiZXQ8Gv7Ps5P7/kpRpueESMkCrVYNERCCsQa+hXlzNKcM35KbyMgaJ9Yqhv62KIaqYfko0bH7N6xF197jp19nS7MMJUCicZV+KgcWTnEZfUBqlBRGUPjarJC6jOj5Dm84zCNLOFSg3aGZB2zJrNRT+mWN5m5OclWhGQwsXC9xZb7UUZRq8Xixwsz2/HiqVdwVYNGuGX5ZvY1ezHd4PcpgsuC13JfiDkQtUykjBESERyIqzHG4jAIDluPWfc9j64/z7F4ktgkutRisyn+sTlhdfGRKXpiGUbAMgiKLtWlujh10RtANeViTSEW0+E87HCHUalCCX9Hix1Azjx+9Ch/fc89PHb0Mb5+373s2LuLg1cdIjpLlIxWFvWOXBmigeRKoxYcJKf0XskO1BoYiOXlxQydog79oAz+zxb6viUa4fvPP01XC8Hmwu+wJY2jawOTyRiNSoxlN+6sHbiJvqRCxETlPWmwCvC+2vaV+o+shZJsqwHMBqGYQudh1BBjwDmHsUJOwmpe5tbx9fzDD36Cpb4hz8su13lDmEWctZAzmczMReJ+w//89f+Ns2zS+4BxQt+11FU1CGjeubcwNUNusRZNZZbBGJaMkYjmghRvhBljv8ThfYdIbRmbaYJIaWgqa0p+tE4wnWWXX+Hgyl4O7T6Iy5Z2syWHouQ0rvjPpdxhh0Y9i0WkAhxeHasy5gr28htX/SK72x04cSVFJoI4IbiODb/Jq3qS7xx7lL989a/49hsP8trxY8ztHLtssZXFxwovvoyxrMdkwahlZWmV9fUNTsYzJJ+Z9zOcdYzziMvG+zjs9zHuigKzch4dHrAej4aCMHWamY0zp9w5nl1/jgde/x5//dq9fO+Nhzl5+gzqlWa5wXoHQSBkvCsPvL5LqBNkYnn4jUfJLhFzzw4zYff+PbRVojcBI4NCOscSy4hFSeCV1gc2mynTpqX1gd6lcl3aTHCRjabl2f41Xt54nUBHYz11Mty441qubi7HTBXnPDlmMsKsDryaj/PM2rMEmWGqstZpGlii4daDtzEKS5jW4Kwrtiyxx1vHrvEu9tX7WU3L+OyIFUx9y7rboF+JzJYiG37Opm1JBhwOq4W6mQFjfXl3qYh+RmnMXUfu4GoOMYkjOon0o8BGPeNcPWO2nFmvZnQ+kk0ujUtSYsqDtUjZxlgVoonM6p6Xzr8KVmhTR2UdNmQmoeJd9dX84qGfZX+3pwh4xENKJEnEumdz1PKaHuPeV7/H3S//FQ+++RDHz5xgPW2wvHOZoAFf1dgh29zgqbQh95ldO5ZZWzvNWlpjblsQg2aoUsVlS4e4or6cUawxCqEv6tlRNSHPApNqQsxKNJm4ZDihZ3liczjPXvkrHn7zEU6e3kArZbJc45zFJIujgAaqiqZyn57sHPPI648xiy2KwSfPvoP7SKNE8sUqS6IWiyNrigm4K/fR2GTO+03mo8DM9bSmJ5hE8MpMAtNxx9Obz/Pq9A06M0dN4SCmmBDJCEUEsj2pKg2gXGoAL9VFros/Ah44cN57UigPUysGYsYOQfALT+SeTLaDL1oO3P/M4xhj+HdPfHdLWn/7bbcBxQIl58xtt9xKzpmnnnoGgBwiTz7zNKqJCuGf/Pqn+Uef+FRJAVnYwyzEIVD8AofMx1tuuJn6K46pdjD4O9k+YTFU4sjTvoytrBsEJeWXhIHbaL0j5jzcnCDmHy0PV/Tf33otRsEqhdfmbEEGbYx4FT798X/IZO5wAcRYtGgIcG54RcaSHMxHHf/T//W/sMkmqeqw1hFDpvLNO1r9uyibt6PWMov1UtxCmGQNrSayTvn6sftZrkfcsfIudAoTN6JWh6gScsaIJXUzGuuptIbNJW4e38g1l1/Fmzte594fPMAP4qucTGuYppzPIrnYT4gtzXpWJlozCcJHb/kIY52A+sFbDVQjM+nZHG/y4InH+MrJb9KZSEeLRdhggydPPsH+tYN8+MoP8L7qFqrWI1IUn+IsNhtWNpf5wOXv54nnn2HWz6iqhqQw1Rnn+k2cemoakhYTaXWGNPjiiatombOx0vPdtSd5+I3HOBZfIdMTiWSUtbDBw28+wTUnruA3bvslrswHaKZlzBZyAhVqdUzaMXcs38G3Nr5J73u+s/EgDz/yGBnLKiv82u6P8e69N1GpLWpoCeXnfebptWf485NfoRkvs29ygD2Tveysd7BcT1huxkyrGWePncJUiZgSUSEixCwEHLWtSWoRK4Ph+6COJZTjnxJkLWKopJybr3HQXoZzFZITop7G1rRty8RVRM1glFBHTspZTtqzPHXueZ598TlOhtN4DLfuuoGbV2/gzsntMK2wuTT2YguKGfFUyXLHzjuKfUxv6Rthrd7ktXiMp9Z+wIPHHikTTxy37bqdW1av4fbREcazGm9GCIasCSsJi6VJjgPVXpYZEbspdWXxmqmDYQcr/Nx1P8ekW6JKFjSjMSBAqCOnl9Z44MT3uefY/WzQYrEEejbSaY6efpTvrj3ML9zw89yQj7BLlmmaZWIb8FaogrC8XvEzV72XJ545iotCZy0Jxxzh9GxGXC0+jklKXsDyswAAIABJREFUM6zG0qeIs0Uwoj7QjloeOf809732IK/kN4uDwUDsPpMe5PFjD3Hjiav4+A0/z+XpIKOuKtdxLs8Lbyxmmrhl5VruWf8O06rlwfnDPPbI41hgB0v84urP8r4DdzLqR0UkN5hXdybw3JmX+LOTX2bn6m52uBX2Le9huV5muV5m92iVc7pBb2YIEZ8Lslu8DRdkvwvvk8Xr1mfe9vVLdan+7uuiNoD5h3QvF37pQnrEwusumm2fNqDwg3zxWeu6jodfeJJuXkar1loefv5JnHN0XUfOGe9rZAQpGXKCz/zZH/OpT32KKkGN0IeIMw4R6PtMUxVF7Lgacct17+ITv/z3+Ndf/rfF780I5LTljs/g4bZ44UaGbpI8uG5tf15GVvmtb/I/skSlKNYGJHCLBzigg66uaGPER2ElVVxXX8n1e65kdM5hEmUkjSXlhDVmUMMprQ2EXfA6J9hgk+jKLt1VnmyUECJO3smRWMJ2ksTCejhuN9ZqyGoLj2winN04z1++9FXmh2bctusmVsOEpTBBO2V5tEyO5XzRlOjPb7JUVdSbjtWmYYzjsjsv4/4TD/G1N75Ba3vWUkdOULma0IPzDoi4PnPXyru5TPfB3CBqyRT/u2wS/UrgoTNP8KWTX2fNbxKaSI6KyUpLh4bMuTBj4/kN9h5Z4QZ/JT7ZEmUVyghwzIgDk71cs3Ita+ubBFeSLnqTOL15hrRL0OwwFO7qrO+QyiEibOQp60sbfOnoPRxNL3CaM2DT0Gi1YISpTdBaNCsPn3iCAys7aHSEZDDYEsOYoA4VS2aExRfft5FCCqgacrCcCmvMtMczQrVYwWSntC5zmvO8wQn6eIznTr2KP1XhECyWCsuMllD1zOIU9YNaGo+KI2k59nkb9GeLmDdcn1nMlpPAnI6NOCXnHkk1VgWRYnXjjS/m2tKxWU95rT/Oo6eP8t1zD3NeOuajQOc7arE8dO5RXjr7ImvjdT50xftZCRNMoPhBGkGwaDJMwggxhm6SOMEp7n/pO9y/8SDBF3ubeZ7jpeaBs9/h+bNP0u78EB+47L2E84GaunirxsJvtFXFsp9Q4TGm8K3NYOx818rtXCb7meikNNg5YCtLMJFz9ZRvHnuQe098hxPmDDIWqlR+x/m4geCYxjf54ye/yD+96dNUrkI7GFcjYhxGvSLsc7u4Yfl6Hpk+hfjim5gcnG3XEC3oWOHHFrN+yYo6CFXgTY5z33P38932KGdkSlg19KmnmucyojaK9PCCGg6cfYp9y3uK0lcXHocJn5Vx9CzLuKDPPnPeTsutWhNd23PGbDA1HV6qYuIumUjCNJaz589zgnO8vHEcl5XqjCdjGeGwFAuaU5wl0uKMKWFyli2uOZghSl3Ig2vCheKzSzYwl+pi1U+0h4doUbEuahFNFc32h/GWTCbkiKs9IUeqxuMqS9JIJjGdb2JrCw661KFWSZIIkpi7xL/47GfIJELoqStXNCRRaWpDPw/UzqNdoEmWpVbYaRqkV0IIxf/PZKIpkVvbhsK55Exq+a/VjB1yJ2ULb/oxlL71EBYUK2NyIRirkRJBplCp54DdzW9/7JMsM0bbsrbWWIylWJKoklOiMwm3b8S/+ut/w8u8TrayhWLmgcuIuB/axL9TKgsEYwnGkikjPZcZYq+KuCNFQ+XHdPMpybes2SlfPvYtfv+Jz/GUe4W11U3ycmbWb6KxQ3MACfgKlB5PxLaRVVlhaW3Cx/b+Ar951X8Gm4lKC3Eeih9g1ITkwDKeO3bfxt5+D2ManHNobxBT0Y17Hj1zlC+8djfnqk3UdOS2R9WipiaJg9qio8AaJ/nqK1/jZHOGPneYACM3wqnFi2Kjcu1l78LSYFJJlelt5M3NU+X6oqhuYzA01YS+7+m0Z7bS8ntHP8vDPMFpe4pY96QqFjV/LGunJhPrwGk5x9GTzzD1geANUSk8PVOoEEYSdeOJCMF4gqmIxlPSGByzkEnWk02B/m1SrAqtZE53UzKZ1s3Y9DPOuw3O2SlrZpNTboN1P+NsOod6BW8JWpBeoShmjWUrMiybBFLm3BmIYsq5gSEaQ4fS0WNMoNKM0wQpko0QfUFONyct9248wv/xwmf45rn7OW3OMmt61tsZSS19SGxKx3lmfGv2AM/zCr2bYzVgcsTmYRyoJV+891Oes8/ymaf+gPs3HmRuM2fTJvMQaXyFaE9s1jnLm3xz7V5e5wR52dCmQvnIqewAxRrspCGSCU4JJpGTMmLCjbuuZU9aRSK0MYCvaa1ytprx8Noz3HfiUU67Gd57bLT0GWZ9pAu5NMBahDdfe+pLnK/PQl1iELNJdLEnRWGkS9yw50ZGucH1HSltMLfnOL75Ck476hRxQwbvApFPJvGmHuePnvs897YPcM6skUaRed8Vf0nfo64lu0zvlDfyWR4/+RyzKtBbpbd5SC6K2ByoMCz5JSxV2VAJZGNAHBHHPBUPziJuiwwnMq22nJ2tkQls2k02qznnR1POuXOcrtd4057hdf8ms3GLLJe0lxgCW8nCUj6iWKI4gjjSgLv8Te/WS3Wp/m7rojaAf1v5u/yQ79XFh+pbch5TSkRNhUs4pC2oQN8Xla5zhjb0RQ7ohU4if/znn4fK4ZwjdnEwjFZyr4PVTC478zbxW7/+SUyMVDiqqtpC3RYZmCqZRZrIhdma2y9ykdmr/Kjw39bfphhfl1zPt2ZSqioxRkb1GA2Z5dTw7kM3ETcKd0n74nuVuohdKKE95JFhzUz52kvfILjCmQwpIr4otEVsURbrT/Qe4j9YymJTsdiVl6bZaPlaEsFUNfO2xzshmURb95wbzXmV43zuyS/whaf+klfcMdaXZ7TjSLQFyYk5IEYxJhfBQBsYxYrROc8tk+v5xHW/wnI7oqYh5oT1Do2JKhkuXzrInmY/LowwScgh4o2l145TnOVLr32ZzvaEukNc8R4TKeKpLvf0uUdtItWJNznF0TPPUu2oAJjNWrytsCgaIgfGe1hlCR8LZ0q8sMmMtMUrzeQcibGlqiwygkdeepRXOcZpv0ZsysM+pkQGvK9RKRY5QTKhUk6lM3QaUVtiv8gDEjIg1yNXAYtR4MDbtcWTDSNFkT7waU3W4qemSpt6EmWU3ttA7zPzumOjmnLObLJh5kgl2CEyMcWCxhTHgWKXtIjvWlwv2yp6IePIlPFkJDNLLYiUjdIgVnPOMc8dG37GQ8ce4cuvfZVN17LRTJn7lo6OZjLGiSlNmU9M7YyznOfN7gS9lGmFM5SWISdUI9lnTqU1/vzo3bzIa6w3c9btFGkcVeOJMSAm0dmOWCvnmPLK7A2yjVTesrm5ifdl9C8KlXXF445Y4vG0YX9ziCOrl2NnlKlH5Qgpsp7mnKk2+es37uUka6SxEnMidAmMRVyNreqiZK0MM6Yc5xg/WHuWjm4LZfTeD7GBliuWD7PKUrnH2ITazJx2iwKkJERTMT43MKPlB2uv8TLHOFtt0lcl5s8aT+MbxNkSs5kVKkPvEyfSGebS0UssMxezfaxNNDR+VK51sduomymYcbFocVvrJcPrypLpc1c8QW2isz2t6Whdy6Yp1/yGbZlrS58DKRfSeB5uKCrb93kdGH9bWc2LZ8WlulQXqX7int7KD2+NFk2gLP5fivo39bEYcGIgKd64YcwkgwpLGTejwu8bEkSMgqVwooKBVjKf/cKf0KWIGxczaWelqAyhmO3m4qk2dg2f/PgnqU1NbANWGdC9vPXKt96D5C10UIfmcOEx9+OqtPCVumB9LuSWiGjJrp0FlvBcUx+maX1J/ACksUhVeGGGwkPrNTCv53z+m3/KnI7eR6IUxnofAyH1WDHveAuDQRg+2DHkC4Lchd4KnTV0WhAi7y1GEmqEaZqxWc847c7ySDzKP3vi/+Hu0/fy8uQM51w38JkqYoZOlewMtjKIiWicM+mE94xu4QOTu6hCTQasVZwYxmnC5atX4c0ExaFqIEa8SUgdeGbteeZEjI1I16EhYq3FmEySHuvB1R5VYZ4Cp1jnhY1XWOvPE+ipxiOmXUsgM648u1PNFXYXlQ5NpHVkLDEnIOO8gpmD60h2TqcbrPfnMVLGZClkiIKoA1MRxRO08OyM+MEsODNt56WBoxheKwWdtlEY4cuDPyfUBJLtSLYj0yOEYnESEkZNsVABrMlD01Sh2YNWxR9uiJO01lI5j2Qp5NaUQXIRkhhbvjeVxB+b/1/23jzY9iu76/usvffv9zvnDm/Sk1pSS2qpW+oBdzcYGwobd8c2jjHBdFwExwYqmExVkKkq5YSCFAVVIYQqUkVSqfwTMlSwGWxsaA8FxAM2hQ2223Rb6kkttVqtltRqTU/vvTucc36/vfda+WPt37n3PT0rNi30LOutV/fde84995zfuPfaa32HSFc6uppI1dnEoSWHKbQKLcrRZmSsSjFhCgkN3gKmg6v7G3725V9AgjGVQ/K4YREHuhroimFlQ61rkIKFihB45eoVxyCKqx84SzRjKXPYrfnMK0/yDFc47AsrmzyB08KUV1TJaIJSOjY5sEF4eTyg5pEBmiVZ9SpTqaSWznZm9JZY6hnuve0hUu3ognslj6US+wg7xucOPs/LXGbYCUzrI2IMxKEnq6AhkCmMlhmZqIvKIYd88fIXaDRatAp5KsQYCApn41kucjsaOix5G17oOa7KFFriby75ZVEZU+WFo6tUEiEtCdY7c7oKNcOYA6R9ao0YCYlQGFnlNUolKqQimHRUC1TrMekpLaH3ecAQc5/1WIq3ohVnaWsgKq5HG6BY9vtMhWiBXnqSJUJN9LKgYyBYJHY90iXXjLUJoWkVUoleEwQpTWf0Zox6t+JWnMRNTwC3BtpwTTXNthWIk9fEU8nb/FyfOvcIrdrMzR3DlnNmHEdqrd6aEnELubYyrU3fyaIwhcoPfPTvUfuIjU4BVlVis/Hy3kSHBK8Q/vHv/h7GaUMv3akFnDVNvlNfvvVwwittr5VTX//6odccp7Ad1E5Wl57UhGqkyTjHLh/58Heyoztuul4LNdvcN26gQSMsA+N+4V98/peZyBxPK2IUUghYVa8c1txe/+YGMkdTIrOfsWM0Z6iBCUhQuhSY8oZSvM05DAPSC2OXeSlc5aCf+PkXfom/+Ws/yK+tHuO5/jJHaUQW0VnuArlO1JpZdD1xDNy2OccHL34NvfUEi5SpMlhkIHJxeZ5kDnIPGMMwUGtm1JGnj5/jkGOIAdFEqIEwQRiVYQzsTD3dcWBxPHBWz3GGPV4+epGUemLXk8tIPzTo76js1IG3714kIWDq9wrGOG4wU8ayZrG7IGtlKiMazDFi5pWelBJd17mQtFYmq659FyIJc4wXLVECkrjtngb144vjtIRGwqoNG2UunotlmCv6IYK4zqBY02okgHVbG8lihUoha6Za6wKoNdEOQ8hUdQFRiac8WeEUlvcUwar4ZwUCuU5ITJhET8bECWthiHz58EWOyVzVI2pvLHZ2GJtmXC4jy74jio8rJlBRNEj72TUOzcQJZx0chQ2fvfQEGwosvXoHijRsc4xCrUafFqSuZ8XEUT4GClYmhgaBQYSiSrKW2KIEFTqL3L57ByEn8lhAKl0PZRwJnfH4i5+npMK6rkihJck10RcjjZWFLVjWgb2yJG4CZ9nn5cNXQIX1NCIxeAUSF1XupsgdyzuwKhRjW409ziM1RiS0Ki2FKhnpDA1OKUK8fZ/ViBIYUocS2ExuH2pmaBuHpiatlXCBbxFBJTnec9b6nMWXzfz6wAhkIupV6JgQOuZqcUrJkXwhnhonwUwce+sOwuTsc4219+267uRaMtp11OY7OcEA3opbcbPiprOAT8f1lbHr277bgfrUc6UW97dseoHVfICNXfIEz4zSkr0QvPRfTSmmJAlULcTFgqvHEz/wY3+fP/Pv/nFYqYtTBwhDoq4zUSMsArVEhMjvfNcHePiZz6JS20pObrDNgRsneafz7q8ugZpXkfG66l9tbQ5VhU3mru52Hlq+g9/1nt/F+OyGXga6IboCqgGdQBFKnci98StPfIIXeRkEFnEAM0oeSaGn73umhr+SNzEJJJidDMRi1OCVrJkQkKwipZCiV3O7oUcnt5pSKrHrSF1ko4VxUMY88ne//FHe07+T77z/27iHO1nSkyxiyVDNKB0RIGfuPXsPd6S3cVgKqzoCkChcWHSkOnp7XYTjaWTol1iX+NyVx6m9MJpBWLBrnZ/D5l8xtK1fsMdteoEHzt7FPelO+s2AFaEjIFlJKVBKolM4szyPHBgSqq8dUEqdqFLpYsfV4w3L5R5Tdo/iOmU6IloLpm1ODBFNSic+HUZTdMrE2BMwaHgrE0PNq+EVbwtXqxjq5IQaSOYWXx2xVf3E359AMWt1FGsTv6eOSaBE1+aTCCUbxYx+6y9uJK0II9gG4oim3m3QLCJ467nEWQJUiQqmhSQdXfCEPKVAiI6TnSFc03pDv+gxImNKbHpjPR4zLAeKVYII6/WaRde5rmau9F1gYxskatuPSBcC1YxqmamfeJEX/EocK9YE5jPqMirW0SPk9UhAOTPsojqBeMVqXB/S7+wyVSghYrIg0lM0EDB6lIvdDmGKLBYLRjsGhSFErk4TLxw/x5gm1IRl2ietIgk41xZJVgaUwB473MYZHlzcy0NnHyBsIsNywDDW04aFCL1Fuqpc3LuduB6IlhtUxciam1xBg8ZEo1gmiJKCgzM2NkIUQpfIWrCcScHoh56Snbzk/xwGk5CtWLOZIkEcw2yVBZWhGqrezjZzRF4kIyFTgrqMDIApqoYWJ3pIrhC0Oc7o1kXGTInJx3on5DU5riKI9u293Pt7jjkpRG4lgbfi5sVNTwBnZfQbxcz8nV93zd/hN05IcYv3CyFsq30ApZSW+IVtayg3xfy+7/21AYqODItd1qGQpWm6AVYULYXYdVh2uXgxI1XhAw+8j8984XOUIWDR0TXX79eME4LZqt5jxs0JvG5SKnNrWwmtKuijSwyBZezosvJHvu3b0eOJPg3U4obmMUFe1zktoSSjLIyf/tWfYcPIxrITSbTSdR2lVNabY7okQETf5KOXnyf1RFoCcZZ/wZV+UozUml0XrLVJowgxLZjqRAFiH9nkFWWZ2NSRz2w+jz6e+cj7/hDvkLejKyf/pKF3jCniRAyN3HfhXp57+SVKrEhx145zu2cJB9XdCCS6tZVBqJH3xHfx6PQFCoFEx0Pn72MhPbvLfc70u+zLwJnhDPvDeZb0DJOwr7vETUeMA6VMhOD6aH2fWEl1sXICEpJ/JoqZJ1KKEmNk3GQWyyWXy1Vn0m/8enFNQwfORYloKZhVogldjCjW8FjiiV5rHW89mEOg0MgZ4vIb/l2BtBWKhxNJIw3S7MjcYUHFW79VK4iS2j0faOOBsT1vgv9twD1xY2xSUxKuwYPStm/+bNSopaA1t6qRNhH3sB1LJiY0CFUMiV4RJQi1KsvFAs2ZrMrQLRlXI3EWscbFhk3cqrH2SkiGURzCESOEbrswibHD6oQBse/oZWCzXhHOeZ5tZuzs7LGaMqTe2cXiiTIIXexZ1o5zww6xBMpUKFYYUiSERJcT74z3MZUJJVKnwvvOvY9z/UCnG87un0M4w4W9Ozib9jgXd+nXiX7qGcy1XHMe6bvINOYtBnMYBrY2iGLNFaX585amvRUjat7qNnNHmGoNxiJ+jlP0cW0c18TgCVYIzaMXx7KqFq/UqiJxPi5KQghat+OxzAsMO+WmJJ7sq7p2gxlEOlTX7uwBZC3EEInJmKaJzjokgLQFRUKQ6mOkX7veep51IG7FrfitEDc9ATyd/L0WKeT069zGrT3XBve57L6dLNrPM8h4fi62OpmVSsB8skqJ1bjhB3/8h/hP/sj3EjUQiUgRonTtM7yCM3SRaap830e+l5/+2Z/hK9MlalKGZc9YcvPkDORpIsZIqbURRAwlEEX8u7JlAtv12e2p2E5AN3osELS01o4nChqhmrcqd4YFNSs5bzjP7Xz9u95PeKVAdRZmEcgZFstIPlJiEmIf+eyTn+ax48c5CMdYL2Txdg1qhODHsLTpKLyJZUzFmhSrAOKpigVtK/jY5FcA6ZE2EYhM7tqhAaSD4AuNFCNBlSCBTVrxaHmSzaMf5T96/5/iYr9HkkCZVqSwJIZEqUqnkbvOXCC8WNGuoiESaofoQK5A1xG1x1QRE3ZXS/7Eg9+D7MCmHDvIvbo8cgBEAx1GqIIcJ0QFsUgfFyjO8lx2HVpGRIxRR8a6YpIRiJQK0gUUbYmJVzpFIIk718gisamVjKIhONOdE0CTW17N7Vg/zk7nyFio5CqueVjV5WUsocFbhUZBQ8dEJASoDTBvpkSx1tJrrdvqhBKjQDCKCUF6Ask1RKHhu8IsvOTVNSJq7tHay+AVIkmotWSvegXIK8I+mWv1STyFzpNx5ZpxJmtFgjCQSHpErBlpDj+iETF1B5QgxJCwYnTinsYytz3EXLsvNeJCdbkcxP17gzlDOM5jRpiBC4LUwjI0i8A2Ho4TxLDAqtF1gVJGDMdRkkEp9DGgNmIS6WUJGhkL7KZ9/sSD30Ue5kRJGgSnkiwjFqHuE8aIrTMpCFKEJD01GyEF+q7DrNINCzYUclReWV0iUFGbnFSHNUKNj+UhdlhRYupBakvGAx0dQb1iOMuUVjUkJHRW7VcjtTGKoGjTYpUGbZBaiWIUlBqbFZ+1RYJBZaAyMBh+/kSR4OS/GDoK7htNq/hJ7CgoaoXQgVmmgRi8SIA0shOoBJeSEl/wG9pw67eqf7fi5sZNTwD/deP10k4KwRnCw7BDnio/8o9/nP/wD/8xGIHpxDaJ6KzXWgqCcHYY+K4/8O/w//zc33Mz+ob9IEWO12v6mHzQF9cGlJk92LBdbCt1v8n9PpXQikEKEc0FSZHNlF3MuXeZi1IUG4075A4eWN4HVysL3G6JALlA30GeoFsEplrZhJFwvmfFhk2YkNi1z5yrQ/Dba9hqlZHWjjkdM8Pa9cQigmFSmS0FadXDmGgTuR+X0ikH8Yjnxpf40pVnOLd4iMEcq6pqaC0EgmuVTa36WhWRnkokhoEYO/ImY9qwTCFwJg0s15F8MHHHzq6zsiVuvU8dZeqTtZlPPgVnb6eUUCkc1xWpE8ZorPvKenfisSefZE0lSE+tEwEXso3JW7EzinWult4owjU/uY6eR8NWtraZiQuSz6QuP8hhi8uqMl/jbuM49Eu3fmvsX98EX9yF07IdpO15vL6yvvXFllNYXGssZMKp864ki9vuQg0QnbTsC4V5uwSihYY7m+/nmahmRLNm9eXHI2wXeopZq5xaQE7d/I4fPl0fOjmip+82H0IUJZ10F2RmMdupv3VPXFPHdMbk22nqVdBZoU6kLZSLgARCEupYuRDP+RjYjos1TLGYESyCdc6kloSKUtUluWISihZURuIiclxGpqFwMBzx3PQ8ExuSODHIWodERZF5f7c4zJOKZWDGZ+o1+zwnpqdjfjyf85moNo9dW6qehC2GNBAZuqUv/BWCKioVFW0VbHOGNu6t7Ujp+TjOtWxfaPg1doLzC+YVb0/MTzo1oe3PV4sDvxW34quJt3w1WtVdSHLOSIr84D/8IS6Nx4y1wDKi0UHL5lYBiESSBerxxDd+4GsJlpHc2kwhcJTXyLLjqI7IENHoN/7MwgtSHWsVMwQ3na+4l7mKvOpr/p3Zjb6MOmWGYWDUTFhGZ22KNT0qZZBdslU+8q1/lD3OwsbX1MlgIVA3GakVKlgnHC5G/vZP/X0KgWGxQNukMstjyLXT0Rt+vv6NhEWwAWxAraPSNTkSJcfi/qnzSwWqKCoZDSOEkUB2vJA5g7DQQXCZihcvv4BGI1TobdGYiB0ahWqGkYDkjMJGDJos08dEBywGI6WC1RU2HRFlJEhGNMGUYBRihS4kYugQid7ODIEahboQypDJaUXpD6g7K670V3hxcZlnF5f4+Rc+zqPjl9DOE4GZUZ8amWqWF8LCVmRcMMf53SAXnF17fiPh7GvXyPRrS+kaoz5aIQJ7iyWRCCpEBKkuFzIvhOaky9M6129ztr1RwwkjX0WcMY/rh9YwJ/jXLapa4nZ95f2NjnnbTh/i65ddM7FgftXM5bqmq9KkUETEcXKiWPLKmEZDg2OaAwZaWuW1gnWEGuhKpauuU4gaWjuKBopllDWqhRg7Yt+T6wmLe5M2XLYrXF1e5svds/zCi/+SR44eIQd3e/JWqt1gr9648Mq/H6yz/ZK+eJV1JtchkSlUVCqRStCJUH0JEamuAKEd6LKNHQPWpKG394D49dyrMhQYCs4Mr9K6DDdp52/FreBNXAF8vSKkRKkOCC5S2YTK419+iq+/732Mm0wIidAFUNBi1KrEEFhI5L33v4s/8Qe/m7/1Uz9M1Y44CKqugdYvBlZTdrV6mycqb19rm4hOx40mnOtb2K8OoU89m9XGrbpqRcwnyliEM3GPlIUP9O/lA/e8n+Go88xRgVIQM/qUWksIpq7yxOGXeGzzlFcyxxWx8zVCbKxL814jweJveKL/rRpzQgO+Ip9Z29aqVdq0HH2dLgQTtLUHaRUBM3FSg0IMPUr0xCk5jMDM5V2oShCIwbBT5zUlZ3hGCVvv6+P1EaYX6UPPOK7oUiLFxFRGamfUZeBYV8SFVyXVJkar1IaDJZgvXGJl6iovvvw8YplaJ6a65tLmgINQ+ZWXH2HFinXYeAfXjBBS644JtbFHaZUSzAWeX8/w6o7fH/O5cN8TZ0B3IYGKJ8dqfmwbeKJsE0fA5uqQXXNd3hBeIbPjx/W43Rlld32l+9X7vK0q/qb3+HTMSaynetsK6A3uq9N4aPCK7IxjO/38zGCn0WOSuCWmnrI2JBgTynHZcAFvpXfSsHemSDQ2YYK+YrqGWKnBfFGBQhAQl7SZBY9HNa4eXcXGkUlHNoxcma5ytR7ya698isMwsuq+NYiwAAAgAElEQVTqVgty2mQiZ9u+vPZxVE5a3693aBuJd1JPaD7MhlAt+r6KtGver0mTQDUBm7sA3fZ6RKx9n/fJRf/n8zOPMD6Izl2HN7eKwq14c8dbPAH0NoOqk0HoImOo/OLDv8TvfvB9xHyyRlUDE3HBVIAAixD5kx/5Hp585ov8s89+jLKBuNNjQZpETSTW2uo683s1zMvpTZh/FDnVAmHbzvLf3WDrza2Turhg6AfGPDnQeGPss2S5gQ+f+zr+0p/+89jLYAVK8JZKCAFMofggV8So+4H/+8f+Dpc45LBuWJzZZSwjoSV/YTtcevxGhbx/a4chzPqQrS3fKiXBf91e5Vpl/kBPGNc2V4UbDioqtTktGHBhcZ5UO6CSbY2oV+tqNToB0wkoW9uoSm4OCgWriaERDLIpZdFzaTjiMG14KR+wqWu0rMllZJ0nl2HRiSubA148eJFLdpk1axYsSQRWbOjpKcAYlBUbNK5ZLnumozVdv6R2iQlhQyXHVhFUl9CYpY2cwavUYF/dNSCzxIpu74dtviYue+K8DpfZsIaDm6tanPobbTjbVyVrJxA7ohUShaSuyyYygaXtPXey2GrJ0htQBXytCtDcIVc5aWVuqaPATC2b38MkMNvbWXteVbGqvijEiRQZYyJzdX3IO3hbS2aarmOZCHuBy/EyV+MxV/SQbIUyFTbrkaOyYZ2P2egBEyueu/wir9SrrVPRsG8okcSakZGCpciaSqXQRd+ORQjUafrN9RCu2ffXJ1TUsZGhkVAAkRkG4ImazEuSENE2RhD8qg3zgHgKyzi3meeBf277Cg0CNE8gzMn+rSTwVtyceIsngDBNmcViwWYcKWRKEH7kH32UP/vvfx8SjWSCZqDiwrMJyGC1ME6ZYSn8xf/szzP9T3+VX/vSoxyvHMheqUgwkkWQ2a3EpQocwzNjQBpGaGYGXzfpOKh+xg62RHKeqJowrlQlj2v22SFTGUjs0fPt7/4w/+Uf/NPwlWP6sM96rewuAmWjBKvOAAkd1Qp5J7DeqTyVv8ymKxCbdlvbnHAqGfVtff0H45sRJTRMzoxVO11VOYUnqm1STRpO6Xh5hQ8JWICaszMUEcIo7DBw294dLgWRCtUKVjNBBEhYCnzl4CUqxmSFPnZs6oaVHXuVhcCmTE3SIrDWzMce+zS/lD/OijUTa9w9uFBRSmPcKoUpFGrIyLLjcjl2oogmal7R9z3rcWS5t6AAazak6NfhmCs9+0225cQxwyNsj8frHZ5YNlxWw5tpOx9CIIgPVdukSB1fJURv4b+qkjI3leck9RROj5PHc8z3XQjBiQO8sQucE9xiSwxe87Wzw+ycdwROJxQzOc6xlzSihfoCo1b3fSZyUI7QUFGd0BhJXY8VONoc8mtfeZhf2vwql1kxYvR4ZbiiVCYqIyVmcq+uP9g1dnUOhAop9eTJlQM2dSQsl5jCVDJDDJQps2AgqMxE2e1xYHsE/s0mRg2V6rAAc4Z5xwx3CS6OXyBUWqV9PopO3/BxeO4bNESotVsXmu+vOmZYdPu+tPFe5RYG61bc3HjLJ4Bd1zGOI8uuxyqMdaKLPX/nH/wQ3/ed34OMlb5p6glQMqBK6hKLlKAY8Wjib3z//8DDjz/K3/uxH+Fzzz7hIGd1PI1th3NPmmwL/vWWQ3iNZEpOJYpwLQbPUU/Gkp4FF+gJLFnyzV/7IcKm8Me+7SN0l4trUiWIO4Gygi4FbMxIP4BBEeV4kfnRX/hJDlixiYWuG6h1Yh7AnAjBtm862xmFN7GTeRUo0e3IktZGMtiWWhpL2B+X4PsfNRAt4LdO85HV7HImsVKiMJTIedvl/XsPcXFxO1J7pugw8dAmaI0dV/IRTxw8x9V+csC5KJucefLS03zdHR+gxojGJaD0KnRBuXDbRfT5wFWusOlXlAlCjGjv7axaM4bSSyKlnjFnJHiFt+98q7tinGGP8WjkaGGUqOwvB+pUXegboSf5BNiqbnCSELkYu2Ob7Kucwqwl1xWXyQhbDoDD76OkrcRHFbCGnaTCEHs/pjZLyTiZIJiAJXR2KxFtgH3HW3rVL24XUKousByayLKfJ2kyIL81puiTpO7VsU1Ur7Fl9DEl0ATc1VMXVYUAU1KevvQs33DP18CorKdjBhmIFklx4OyF80zPVVas2YSJlYUtDrQGpUihxEK2SlrsEC04U1cyxIBaZJkWDKOyy8Ar4waNsOz3yOs1s/3aq7f7jQ4fi0dAU4JCs6RzT/DdGtjRJiyNM3wD4sfTDKTODeDGPHdwqbXruV63a8JMANSm8/nG7u2tuBWn4y2fANZiDGkgbzY+AXSJ47zmh/7xR/ne7/pu+k1jFlYfhEOAMATKpvjq0CJLGShHhd97//v5mv/iwaYFBp95/FGq6VanDBw4b3bSOqv12lXuibdxaL+v1+DUrscEahR0rPRj5APvfC9dbqtWg/5Q6CwBRskFU3cQsAoSB6+ySEV3hU+99Fl+4pF/REnmeLDsTg/z1p2sVueE9LdF/9crsTLfCHoyHm8rnv5ctBOGqRdk2wo+BMq0YegSiZ44dSxy4gHu5hvv+XrOsIdkYTJr1cHOK3594aXyCi+UK2yWmZQCUylYUB576QkObz9kRwYU98ntpFJL4T13P8DnXrmPy9OzbKxii8hGCjm4Y01InqDWaug0bXUy+5qIVThjuzx04QE+9L5v5Oc//ov8mj7JUbeilEowZdF32HrCpoLFE5bitSzfU5g9eX2uBAOqzL3L7cd6a7wqRV3gNzQ9uJ7EfreDMFdStFX7GqzDzeW212/c9uRch04sbFv+tH2ZXR/mpM/M3oAJ+vWtcs0uRFt3pVneBq8+pS4yhcJROeLxl5/g6h2/n92043ssjnWOGnjgjnt58NL9XBkfZoORU3Z4icxVRqWKYcG1DKeVsgiJ3oSYA0vO8o4L9/FN7/1afumRX+ZT45NkVp7+ROi6JeXI65htLdl+uv5qOrX4fJ3jpI/hlWKaqL3f36712MdELx2JzvVktVXzJKKatx7coNeM0ypKtOCQ6+YvfG27nlv4v1tx0+MtnQDOWJlSCovo9nBVlRqNAzL/1w//IP/VR/4U1ITVggyJMlZCcEkYl/4Qbw9bwtawx2I7SP7ed37QmZ7iHybazOxPiHuYSftqLQU7waLMj2X+XUse5yQwmGFa/L1rIq4D3eTszRIVNQeoVDWX9GgTgZonshlhksK0o/zgD/9dDjmkSKWLjmnLZSQkt/NyeYOTBtqraSxvxggES033D+J11UyVigY3Te6qe0zHkKgpkJmc4KGRpS1Z5oFUhDOc4ev3fyffcPcHuagX6IozMJN2dLjGWI5rDrtDHn32kygTxMBkBQkQd4SDowO+dPUp9pcLFnYeMSGHyiCReGR8+/2/B54+5pObz/ByOUaXSrXOvXdzJQmojq5bBiy0Z7fscJYdvun238cH7/oadg/2sbt6nvziK16lkDUqBawQWl0vErk+QXGMU/iqK3/XnwdwLKWJEMQxaaHpAao509SyUsSIRAbt2e/2vCUnijRWprTW2ozFUlWGTqD4Ck4wuiBIrnQmlGpuI9fwcl3n8I1ZWP76xOO1SVmvDjNrLf8b/w58kZeit9yFJsET47YFDr8+VnArcm+z9MvJ81ortPebdffMjGqFfliwGQvPXH6J287dScruOy1ipGKcXw18x4PfhD1Z+cT6s7wSVowx08WIoJScSUOHWGGaKovFHnps7NqSPRZ86PZ/iw/c80F2p558e+bJp55mWkCtR82NaYmwsx3PYkzuMJPiNRqLX238/+E4U5N3WvRLrKp7bwcoVKpU1puJixfvoBy7gHsNLslUC4Q4UNWJHhqNgFGmkWW3QBRUjdgkjtypSQmnFiWnRX9uxa24GfGWTgCDQUod43pNjZGQIsd5Qz8sOB4n/v5P/Tjf/6f+U9bPHrLc24cMXR8pubgkRQiYj7En1j7GtpXYEEpAaAzGQKp2wippA7YpJ0nedQmgaBMgtniS/OmpJHBOJDUSaiTktm+4w0EtSkg9tRpJYMyFYZEYVxV2ArbX8+jlz/JUeZpVHN1vNUOIRhcDVespZmH7bmEL0r8GwPMmi/mcRaVVhWgg+iarIYbEAdlUbstLdthhjeDKeDskEh2Ri/0F7j53O2/fu4t3LO7hzngbe9NAzO4rZjbSSQJVaoCxz7zQvcLHrv4rLFVCNW9fJmGsmRUbHnnpszz4gQdJVzNdjpA8q+mqcdfORf7Qu76Vuy7fxc899885WG2YiIxbXmilp3NBYyoDCz58zzfw3nMPcbfdzv60T5w6dBl47967+NWjj1N7geQOHIY59q+BmUxOMKpzG3CWHHn94jT5aZa2hk0+Ji4i9dgxkgVl2kykJNx/7u3c+/zb0I2y4YgkkUTnCyoSgUSNE6vxENntiNH9r7MaYfb9lmbnNVfJ3uDC9izRYoBWsOBM7FNF0PmVzHfh6U0spZCkd2Ra0yo1M0rJ7pmruj1XW3hDE7kemXj4+c/y9nN3cdfiDmQl5DwRIvQlcT6d5Tve86287dJd/NNnfpmr5ZCC44KV5EL52tGnJXUTWbLgw/d8Lb/j/Lu5J91HOg7UXHj/bb+DT175NA9ffZixh5ysbVfTRzRvrW4lePRaUf9/Y8fe3MtZqNRpjS2qa3O2LkeUwF6/x/l8lvvkHurqGVZMROnp6FBTBnoKmXWcmGRksdyj1EzOhX6xJNdXL5Rnz/iTbsqtuBU3J97SCSCA5UKfOkqTZlcViin90HGYR/7zv/jn+Ot/4a9wtF7TaWSw5ObgU3H5j+gEgNaBa/eztYnfyRtiRlBpWrhtUm3/bU3nTwl4bW3ktkJl0sQA2bZKtjyQVoW0GZl/ah4VC0QJEANSnfA77Cbqxhj6wIqRS7bib/7ED3AcJsqgiCY6iZRxTZVK7DzBm4udr7MKyM0NUSIjIu2YEighNPC2t3lrEe5Lb+P7P/x99M8H+nSOFHs24yEAvSWSdGitdDWwmxewNgoViREpmSCRUI3RCvUMfJmr/OSjP8sBazKZhRrVvA01msu8fHL9GG9/4eN8y/6HOKfnGMeRrhsY60hXOm7b3Ma3nvkmfvfe1/Cloy/z6OWn+fz6i6xZMdBxX7yTi8vbuOfcPdx55m3syy7LumDQSF1XkMpg8HsefD+PP/wZDnTDBBQrLirdJSTGVkW6Ns3XlrC8Fi7tN3wK5iQcCNXZ80HYJpxpr+e4HHI+nEVzJYVADD1JjQt5nz92/3fwq899kk9PTyAWedfi7dx/4e3cvXMbw97AF/Mz/ORnfpoXjg7RLgE9kwhTSOR4Wtz85oQ1GMF8IFuT2j2KCaeEg3+9brQ7+IQiaKludyevPjF6Ta3JhZ3Xcc3n6qPcf/w2Lux9Hb3tsFguKKoc12NsFM5t9vjms9/AQ8sH+fLqOZ49+gqfuvIZDLczvFdu567lHdx77gFuX97OhXQGjoyleGU9hAWMx3zdXb+LJ648QUFZMza3DB9LKScEuGvY3TdMAE8wuq9HVM0kdoEJdMMwnMc2Pm4n7ZkOMm/fv5s//I5v5uGvfIqnxudQMx5Y3M/d5+/kjt1zDOcXPJWf4x89/DNcPTqi9AGJgbFOaMMYwykmN41YJbcSwFtxc+MtnQCKQc2FYblgVTYYMCwXlFLJdWJ3ueCRZx7nz/31v8z/+N/9FdIU0I3CphL6rrmChGvfcMYxMUOZpE1oXFtGEzlZ1Dfck7TEcWb9Cq1CAQ2wMr+3MJvwVrGGZWrm562AmMxfo7l6My1ALUreFCRB6Q05I/zPf+t/49npRa7KimLKfr9DGd1DebkYWJeRQHP6MrZ4q7BdKb95I5idVlM7pe0mSGtxqyplrIxPH3G/3Y9d3SGFDhW3/JMSEYkE77uiU8aCIUOklEwKHTlPpJTYpJEXOeAXnv4YX5y+zKofwSqoEpoPbghGlsxRrPzis7/MAw++C0O4sHOOuinEvqdsCjthB44qi3CBs8t9HrjtnRzFb3Tcnhm72rMoPd3YI0fGEJdQlVIKXR9Rca/fnR2vZCpCNcd2BgLLfoBJb9h6fD2rZDM2an7fGVso5mfghaMXee+Zd5I1s9SBmgtJAjFElrnjXcP93PHQXXx451uwYCzHjn40FpOQx4mx27BDzyCJ0dyzW6MgKVLNtRmDncbevna8/pynE4Z1EPNFnwLVWDKcqk7rqZxHtmlDihFTv2I1ly2+uEvd1hd9XltaSyhnpvWYMofhmJ9++ue499138dDeA+TVRLSOIANDTNgEthLuk7u5+8ydvP/imm/pPsRxXjPExE7t6NaBRd5hR3cIR+beuV1HscI4jdDDHRfeRmLBlK9CF7EYKBT6vidU8X0QOTkXW2zdfNztXyvle602sglY8croy6uXsDsq49HG9z8krApD2CFsJt6z+yB3P3QXua2EFgwMNSCrQs1wUFeOsbREEoPYU5gFy7c0Kmb2b205/6028K24mfGWv/a6KJQyETr3lSxTaXgwWE9rDmTkXzzxCb7/r/0FfuGzH+MoZPIysK4TIUakFmJVQq2thzMD/FqLFq5N/tqTM1jbmrgCFKwJebB97vr3az+rbt804rih2ZN3FsNtmgWeqI4jVCN2goSJvBh5ZfeI/+Z//8s8vP40l7jMzrkzSEgcHh80RiqMJbe29rXVg5P47UFhmxm4jnJUklWSFTrN9LECIy9deR7pBWmisETQpGjn1b7S2rvWRUKX6OgJNlA1oouBw0XmpeUB/+SZf8bHjj7JZS5TU8F6mKSSg2FdxCSwzhMMxktc4R888VN8cf8VXtYrhCGglpEU/DNd0JGBnrPrXe7eXOBtxxe48/g2zh7usjxKLDIsiCQqMRlxECwpVQor1jz89Ge4KhvGCBo6YhhIBHZiJJZK0hPHD5U5QbPGeHwdrgA5BYgF1wVs11wJ8OmXPsdmv3KsR1iojlEL0aEN1hM3A2fW+9xxZY/bX9nh3MEO++UcEs8zxh2ujBMj7nAR2zk2y2jNxPBqKzF4469qvc7HnOrtx3PhnC/etp1buWEGWkpBMHYWO2ie8YCe/OgN/mQWmtFQOWDFK6z46Od/nkfTS6x3enJNDLZHWYHFwLpmkiwYxiV7V3a5++gi7zi6yNuPbuPM6hzn4u0EesZpQmOFDjY1M5nSLxdsZOJXv/AIazIliouUi1us9X2/bVufDtdavv7kvP7Vshgja0Y+f/ULrBYbrpSrWApIiJgJXeqRnOiPdzi/uo1zRxc4f3wbu1d2GQ52WHCevO6YakJYoF3HZM6mTwqdBjp1+agZnzrLStXfVu2UW/FmjLd8Akh0pfwQmgZZbVSHEOgXHVMslCHwqaef4C/9r3+NTzz7GKvB0CGR8YqCqNHoXv59HoCZO8LXzZR2Qua40ZdyiuxhhmlL+tpnnGABTyeG7dfmK3C221SRwbFQY1wzXRQ+e/wkf+b/+H4es6c5lA2HYcPxegMaWO4uHSS+GFCba5inok3YM2buzR2timmNA9z00jwJcQ5prYWRiRfGq1ypR1Tck1bU8ZUVN4mvtVKyV1yyGlPOyCKy2ilc3j3m8fIl/uGnfpJPHD7C1XRAWCZKs48LMflZbNISKSVGLZTO+BLP8KOPfJQv8DSX+suMi4z1lSLargNBSiBuYFgnlseJvWnBbhnYYUlvPX3smaaJUSfGbuRgWPHC4jL//Klf5uFnH2EdRiwFTBJqLi0UQiCdYpP6XeHn/nqxka8mbLsQMtxhpn2eeAL4Ckc8/vIXiPuJbBMhKiFCNpcdHsKCZe3YzT1npp6dqSNtEuSAkoiLJUKiaAbLdKGJ/FZ9VYvxRtWiGz33eukgnk7MVHUL4xARkgTOnTmzvffEbjxUK7atMp09e9YZ64hXStPMbZ9hDeFa2SZRWERWQ+GZ9CI/+smf4InpKdZnJurS0Ail2f8ki6QpsFd3SAdw3vYZVolhk6grJdRA3zsBbpKJvMxs9keejs/zz770y/zK8/+KQ1ljnTRx6kpHuvYcnMI2b4kgr8NxPh12/TtKRxXjOS7x6NUn6c4tITb1BTE2ZY0EY7COQQcWm469smRHe3bCglQjQ1oQQ0fBWOc1ipHSTM6Zz921E4DMi/lbTOBbcRPjLd0CnruYVhUZMz0wLHaZpomSJ2oM7hNcKysbIQr/9d/47/ngfe/jf/lv/ypSKiF1VIFYWqnfvF3hzgmyxfNdU2kwiEEaQzCe6BHMSSRc4/whMyJ82yqe36clgHPCN0PHBYguVrrWjA5QorLaqfzAz/8oP/mZn2LFilXYkAdlsVwyHVeGFFmNR8QorPOEaaWbhetObf+2jdRAzG9eKcBA0DlZd7bv3CrzwxrpOlAb+JWDx/h97/kWztaOuE7t/AgaW2UshqYRCBKEo5A5ige8sLjCJ778cX7lhV+hdJW1HVNCIcmSZEtK818NGLVUYozE2FFKRckMi8LT4xP87S9c4Vvv/xC/Y+cBbtdznOn2CdnbzzTLOqwQxbBibR8CFiKmSlws2HBM3p/43NEX+YVn/hWfXz3FMYeEaER1Bm62QCExoWgUrNrJcRGYk8CKum7fVzlDm7iWYm2UgFkX2MS1Fzex8vEvfor3vuedzoI2YZwmchBCL9TNMVCpvbPXF0SKglmgN+GVK5dRhK6LjCWjOjJoZIi9wyNO4e/eqJiTnGuTnVYFnKv5TW9ubomfEAfm4zb/wFaRoJQC3clr3Ery1GJyft5ARNuQI5Dg0uYlMgf83Sf+T779HX+A9+y8m4u7F+nGjt1uga7XLIcFU8mkvmOsmWKFFHuvWCZnyY9FyINxsLzC59df5F8+/XGeWD1N7ZP7k2sGaRhBMlaqu71st/dkO18PFvBrhgVUjdwlDrXwsWc/zTvuu5+lLAnStCClnvRa1N17omVGNhQTknXUcc3V6ZLLxvSR2hWqVYdUhNTogKVBZ6rraN5oXrgVt+INjrd0AghQakWCkyVqreRxQmtlGAaKVsaSicknRJHIWDb86pMP891/9o/zJ7/ju/n3PvJHidUI2YhVofoAq8i2exsiRDFCOKngFQwIDtpuxT0zQWYScFPg2D5uC8X5teC1OanZsX4WKZzYlQUUC0pdCNNg/PBP/Rg/+6lf5EleICdlDBlLhibjyuFV9ruz5LGQevemxSp932Mlt8+ap8nTmJbfPjG3zqvo6Z2lFiOXwhrly/lldvpEYfCcW5SajFwLXewJBqVMaG+8VA757Auf5+FLj/AVXuAoHTJ1E6VWum4gT5kgCQmuJxbE21EWAuN6w2Kxg9VMiSOjbdAa+SdP/VOe7h7g9977tdwxXOT87nlkjAQVYhSqjt4erUaQRJVINqhSsK7wwuZ5PvXYp/mlo09wECcO+mOGCGhFzRBcgqNI5cXFFWhCzH58AiUWVv2aw+UxZf3roJduUNGYqFzdOeKldIVYIrFZHpZYmNLIUV5RqP63MpNMhBKNla15dnyOn3vsF/kDD/1+zoYdUi0Ui2x0IkW/v2oorHTkkAkITJ1wsFgxTZk1G6aqhBQpU+UgHPLSzlVWceB08nc0rDhkzUhtrhxe9TSJlFBY9yOX9g4Y40Q49XfrYeSorhiZ0Fe19U4eW1OTV4EaC5t+5OXdq+SYQUtLzCJTV7ncH3JZDiniC5Pr33c2B3KsnJCl8OzxV7h08So5ZaIkd56RyKrbcLA89j3bZhw+sKiqS+8sKpu64fJY+cdf+n95PHyBr7v3d3Pf/jvYs4FuiBznFWnoyfUYUNIyseEYMyNbcTmdFHjm8Dke/sLDfPzgk7zMIdOOMk1KiNEJdOrM90Llpf4A2w8u+G1gVKZYGHcKh4s1dV1O7fVrN6wylcu7R7zUXUFaVd+PkzKlypV6TKFszysEJAqTZkoynjh6hn/+hY/xb7/7w+zv7KLrA4cGqRIskSzSW0KtsAkbYhcpesx6t7B+5ZjCxFQncs4OzUmpIXFOfJ9mYf9ob/Sy41bcileHPLT8trf0dTjbKs1JzdxqmQeO2qTAZnHVaIGuBIYa6NQ1nd57z7v5j7/3P2C6esQ3fPDrnUTRxGaFgNWKVJebiLHDzNhME8ECQxgok1cics6u/6VtYC/VX19129KpUyFGn+SxijV7MYkDVYTcu33YE198jM89/RhHdsxPf/LnuMwaTZE1mThEps2GYRGZzBO8sG0xKSonDh+nXOiuEZi9RtD0TRyz6Ktbj83g7NBEW4WORFjBWfb51vd+iHft3cNt3TnqODF0A4pyPG5Y5TUHmyNeOHyRZ698heenS1zlgClUxjRS4omm4HxtYIKdYgJe01q0AKKIKl1KSBYkC7s2gCkLlnzg7q/hnYt3cq47w87ODn10JwtE2ZTK8bRiXSdeuPICT738NM+PL3CFQ9ZhYuyVKWT61qayxjRSoK+JvWmgv4b7GzCUSmWSwqYbKfE31r7qSmInD/R0p+RN/P0MmMisupES5yqsoS1J7CQRVspZdrm3u5P33Hk/9168hzPDPskGeu0RIkUq67JhPa3ZlJGDfMQVjnn4S49wxQ444oga1MVxaiBponfTvu1yplAYJZNTJgfdJl1igajQ1Y5lHUjNBWaOivrfxUqO5QZJ4PXXnFeLuxq373dC63BJ60wlh4kxVWo4SYKuaRu3+/H0++1Ux3Buq/MEKoXcEqspZTQ0fcBWOdbWeo8GqQaG0jHUgYGBHRa8+/aHePv5uzmTdji7e4Eh9EiBmIRR1xxOh6zymkvHl3ny+af58vg8R6xZdxPrlF2kvFW7hMZq1sBQUtt/93r2XWv34fY6y9vr4jdyne226+z6MJSRyrobyalsj19tmovRAt06cdZ2uCfeybvvfCf3XryHc8tzJALRYhNYr4w5s6kjG9lwSV/h2aOv8OQrT/Pi6mVWskE7IAhFFYK0+1qv2f9bcSt+K8RbPgE8WYddmwDOUYO2BLCJ46o07bhWmiaNFycAABmnSURBVLNEUuhVOJMWxOIYnPfe/z5qrdsKSiRSppZsBcdZJUlINqyaC9BWTwSLOpbMV57RJ3VVZ6RmJUW3sTKqS/KGQDWnkTx75StUgUM78IFfKoey8QkfZwl2MTU7M8WsvumTuK8mZqs3kxO9NBXAAtGEUIWlOSN2n10SgR63C5O2pi+ctDAzlbWMTKFQeqVI9QSTk2RilvUARwNtP/NG29fYkdJaeV3DdeWcORP2GTY+SXtoayHOSYTXmUfyqQSgUmOlRMVMSXpz21BzpWZLcBLbLrgAF11v+pZ9dRmmBaHpHHa4mWKHOyDX9l3JZEac3LWxDZmKBcOioa39KSIEfWsPf04SOWFAe0Ip26RSMpzpd5HJW+ULhnaFze1qWLN260sCK9aMUrBF3FrFzXEyfrYFUIOP2E3CwWmDAAFEjQQN9CXS10RnkY5IT9eWCfMdb1TcP3ia/8XsV56ABddY1EAzAdBrF87ts08vuG/FrbhZcSsBfI0EcF4dn37dCYj6pFI4s4atQgodIIxlJEoPDdfTSaBa9UEzRnLrD3fQyBy+9pWWUIRWfZmfO5GUTm348RZwIpHJgOPSik0Y5jyU1HBaKTo+KLi+W60VmkTEb8d27m8mtgLQ7Tzb1ufYwwySJIImdKok6zCDIQ7usCDu7axm1FB8wA+GhoI5nRWYJwDhhDwzT4CvjaGc8VtdTFuSSGz6fHWsLIc9grm9nzVbwRMtONf1kyhYpGHtsrfrmuAwKjfVz1kbCiU08s2cicxJYKlKCKm1CAOxBGIVT04AKE04UCnWErsoWLA2WXtqMmvMicx1x1djzt56EbbjnV+ecyX6RPhb5gpxddeMIQz+uFg7L653ZxjSCcUyGn2Fk+tEjNcuqOfkcrZLu5kJIPjC3gX3Z0miSDKHVYgJUWeItpPzXMJPsEbNrtkJhIhX+pRKkYrE0HRl9VWgmblqCzd332/FrXjLYwC3lYbr5gH7dZ6f/6a230tRSELqeo4Oj0lBQSLaR2JsXr9q9GF28lAkViatmFWiGRIM1JxIEGOzazKvILbHUKm10ncLT+ZwJmoXjFIVGZSqmWiKaiF0sem6gdbCkBJalDJOxD6hBG9/vKUTQLc0M2lr+zYYh/m4iSdbuWSCGCyF2AfGTWYTNifns+mXzQzpgCBBtmzv08kfNP/ZZgR/Qqz4dbYwBEop22SzVtcWSzESdxNHeuyJTQrE4MQPaW4x4BMQ/197Z9NrS5KV52dFRO59bt3qakDywG1jddMtdxc0HxbCEgPPbOSBJYQME+AHMOYvMLD4E0wYIiTAQgjBjFGDjI1Fq6DrghvaCIHEh4u695ydmRGLQURk5t7nnKq6dap9Tne+j3Rr7zr7M3NnRry5Yq13NcnTozyp93gu/rjiz2jTaqA4RJrfHXWtrPrZJYo7EzNmkXR0Zg+QM+6FYFNrsF0j4rXwZVMp34iEJbezC/DqtPnt0NLwYZxf9Jb1tvX6LaUQEsxmTOUl5IIHazmjEY8QQhPXpVZpB7x12djQqu58M34+tgBKFrHQLhhKYfJMdicO1edzLPOaEmwtCWKJ6gWu0hXk2M7pjOMECxRvxS3dx5Xb6TNCPDa7F4Bb7jsxu9/Z0piDVTjWThmBf3r5ijfefA7AlDMhBcZpJGKUkmvExSCXueU2AakOrikN5GmCNjGXZusQY4361VtjmiYohUNKxDC0nMGEJ7ieT6QUsLlwNRyqjYFb9bSKhlnAzZlzhlzA6t/2nIlcqDpsW85wbkxs+DyTrBo0j3niNM54DBAMbxE5C6G16yvt9bV61kshhJ5HFzaT3vqZ28+7j54WEGMkHdae1QEYCLhnqqmsY+ZN+AfMjHgYFjshWO01QkspeGwjqJ4f1b3uulimediVnLFQ49/Fahs3AIuRiFPmCcveqqFrEUlolfBL1AaW7e8t0cwLZx69u2Qj9jZ/WyqOHXzOmGdiCNWcO9f7oTmbXJcRC6kuI5e2x1v9jOHVu5Ca6lA/a8l4BR798GMe89qNJURirFNidmdqhTm1Y5C1Y6iK2tiK9k5zLToCajV/aLm7bgT3JcWkXgD2e9R9u+tjTzwFJADvYB2ktu17tgURNZJjXluB+WniO9Kb5PdnpjJxIOKWOYZUPcumwsGtNmhvJb4T1TeulAIpkN1I3eOveDWujXFTAHLgeXpGyZBvareJ4MaUbzhyJBCJBJ6RmBi5IhEs8v7NSLo6cF1OkBLHlBjHsQmTsu/L0XYlX8fo21WWwCLCzYxoTs6FkJzcfBaDGXhZLDuCtWUuq0v9vdNYnWTD2WRbrBApHyjCS0tS91axGUIVdr2CM8XQPPraVOO0vrYGwRhbFbe7tSpTqzlNYWBItRXWY+Yh3Zd/uAhjq2UaPYsyN7uU4A5mxDi0qvtqgFx86/Rm9H7GcGErYpqBK3f/9svv4gCxCTmvQtCMUpy53BDTQPGZXGqOdDAj9KjX5oKnC54loaYXlnH/MfD/g+OxpnJkL+RSlWu1c61X/dEM89jj1ACknrcaIj60C4t2bOXaWqSe/yHg3nN/60t0xImnhATgBffNCWsjoir8hlzd3T9VjoSc+OHv+TIxOzbWfqUenD/5+rucciZzRSqRV9PINZmQE5YGSp4gOtEP+DRjw0AMgVIyng1mOKYj8zwSc+QwDMzjjNlA8oGY4Tt5k+dcLdWV3/2d/5p5mjgEY7LM1/7fX/DezYkpFMZQBzqLiUM4ME/V23Cvici1GKN1XNlgm4PAC0t1dgiRFGKNBMxzLVCw8+VGZ50MzvqaOgRbxV4k93WlMw1+efz1DhG9W8KyBJxqr9UyVnsis5qcTrD2nTKlVL/JugxV7VdKqSkJXuZqgRR5NGqk6TwStLa0tuW+Z8etiu2hCwyHnCF7rCYbVpblNgvr/p/9soJ0/Z1aeOebuIVPneYfab3lX1uyXQ7CyBBTFUe5Ce8W+jNgCKtHVWl5zCE08+m8ybMEuv3NUxprzGE8XRNCWIRr8eqz1c+5kjdRylJPFu9L5sWYGOuSd8t1DKV1NWkR5ltm48uHf9M3T4gPRQKQnpR7x98397dXrNUuAY6z8UP/5ov84Pd8Hz/7Ez+FTZlhrlfJYxnxGPijd76Kp8Cr8cS7X3/BO3/2Li9PNzAY2RyPxs008o33vkGep1ZZV40cDPjCv/h8tQ3JBYqR3op89rs/y6eev8n1P77iR9/+Eb7wLz/LFQPzmDkOz2ByLM9wNL7y4g/5ld/77/yvf3rBS2ZuyomQjJInUoiUXVcBd0f+LaFV7fYkT7AYGIYj43gDzeKj1wHjtF6sgIU24fWJdVtksO1lWs4+74Nmg2r5UyPFvVK8T7ZTLqSYagK6e8uBqwdz7WzT+nfkTPG5RTFCK4ao3+mxZ6JbtkLt73n7tcya5Kgm14XeMSS0CxjDWrW9Ucheq6eLNfuRELCe27broo87WCLSbbS7KHIb53Zx5AEL1ad0KrkVJgXCPGGhWh271caUuS3ThxSXYxWepv1J6OkF7fw0aptDL4WS85LCYRapFqsBL/VoLO6kofqm5lz3U2ii71L4bdnveCueGqoC7hWBPVfFwlm437xOwjel+u8FIocMz0bjRz73Q/y3n/8FDq+MMGYOKcGpWq3MZpBi6+7bkvI3ra76UhYx4W3pd3F4Lm2wLA5zrou7pRZ91NZwBq11VCmOZSdNQIl4qV0BYjZyGDkdR66/q/Azv/hz/F18xc3VxOgTB8JSobbXAanZDdf/8bB0AanFCTVhfXlus63Y5gpeRjP6sVPvbx8pGN58wM6XhNzC2ZM/7Le45RV4dplS2jHWVdX5Z53TrYwfWwCuX85bom1dKgzr3xpGaXlV6wputjXLasvlVt2XgL/XY39lzVGrdCG4HldLJLZF8NbCucJQfMkZXH+/cOsSB0rLpW7isL+m2SA9Bue9rPt+uF2V34u2ynZd+xbrdt31rLPLv82DT1EUi/2gCOCGbY4KrANEwRmujlyfbki5ECcjlcRP/ef/wnEM8CpzCAluoIxOuBpIGcZXLXHfq0gLhBpAWvr+WnWAyda0X0s0dmv2C4ZlsG554aGOHsXbAO30FOSY64jqJdbXOEQ74tNMvIr8p7f/A7/+zu9wGp1wrAUldcnssdOwH482ZFOF033i73z/rBcH9++32xNaNT2uBtvtdT3y8pDZz8qyDea9grk9BHfmFm4j2dvnPwa2mXS5Q/Dd9kes+9FqkhW9JMvu/D3WF2qS/SAuhN/ZQ+vyfKGL7lal3V7ahd8icC4ugmp+5vm79wuhAGQeLwehX/DVc6d+f2Pb47xsntu34vJger3jbBHTH/M7C/FJsnsBaB8yAbvXvK2b8cRwPMCpcGTg2Snww9//75jemwgW8AQ2gw0DZXbcjNSKAMyt+kq1sbPg5Pa5IRdCXoN/XQh2X6rSRljzQG+Wbt7ex+Lynl7yUrpXWg/Q4JDykfEfbvjp//hf+co7/4P3p79mjAVrydz7XhEzsoVbUbitx+N5tWKLqLWShNVEur2bl1pz0JYnz6OBrZPG8jHxIsb4MbegfcfzyGS3nmg5S5vvUVqkcxVW5dEEUr/mOfv/C4JvoklWKEvnlEDwQvJcBeCtyN66pHkuKi/3+NPJSXsMtscBXF5ArPsmbtboN7XVFIubC6n2Wr99/nRuFYI84vhTmgUUFlrRUT2OlvuLF6u3YEBfJdq+y7oBd84ky+Bw1yuEeFx2LwDvYjswWcuvKl44nU68Ed+gTIXv/eL3M51G3kyf4vDMmE8wTzNXh8Q8FoJFzFgn+bOwf01wN6N6t9EGy+ZL4ZsAR7TmA+i152cXf61IjdCcPCwksEzZjE6lVBPj54fnnKwuJUMET8xMpBgg73c4WqJ9PZ+MdYlwKxNsMxGu5Xy92nSTQ2V+dkGxFKD6KiP9YiIo9kABtkQS737YN5G10m975OPRxU9vxHhbBgdo+60sFui+eXQVLuFs/y1S+CNFVh97+58KPRd0e3uXQ0CzF1q0YL+YCBfHcI+W3RZ/622PhH9yW/Ha2GY5G87PodaKcV0R+OBD6nU3Y/eZB+JJsHsB2JcpoC1xrAVe1dagVSAejwey12q3Kc/80Z/+MekwMP3jiVSOpNgSfx2GVCN/pS33nhkIts+K0K6m+zTobQW43pY+MQZvSce1abv35a9SbS/C8v272W+zGynrdlxPI9fTyERNiicmUm2Eyb3KYQcEXwXDeQSNM3G07CHzW3vrMp/HltnxXNgtS+2bybNPMNtWUa+Dt88qVpbKxG1Lr/YNz76n3fHY42J35kR10b0MUP00WqKtAIFspaXtf9RY6lPY5qdDtdMpi+ChHZd+5/4MtUfzZtnWlr7ZZ89q97aRwnrbxdTSx5jHXaIP5KXDRw9JnxtV9wumc5aF88Xn8B4ulF7PfVRagngK7DcBbIPb+Xm6PeFjjHVwmzNlbj16gRgHvvI//4Bnz69qdahR2x5lh0A1AV5Gxc26it26WzsXtKbhfscvsoiT/ppSlyTWfrL9jWqXSivVWNec2g/2ufG1v/0/XDNSguOeCURSGLjsfbw3AqVNWK0VGf1f5W7xZxTrwiUsy4qXE8X2vvXPOLt9GLfFXv2k9fud5yf1f9Ehej1GnvJEdL4oX/dZNdsuzYlzFbfbX+6uf7fZXI3tnT4GbG77hcn6b3M8eVj/sebzrecSiyl652keZzXSubQhhDMluxV/fT9s+bjb9DT3hdgju48A3nc1VpoonKeZQ0rMZqSUuDlNhBQ4ufPVP3+Xf/+lH+XN58+YTxPMmWQJ5oCV1i4pbFPUvSdiLca1ZtZqELaSkHVuOhuBWEehlrfc/xQpdcm5r18bxOCc4onTVeGXfvOX+Rv+njFNUDIhH0mkWk+y4/WIshnwz2x/bj3zXI4EX4XFVswtx9MdpbfnlwPde3CNiMDrTQ7BW17pJiJzmeN2mdB+WTP7mFWYlYsl3LYk7hf7ry9fQ99/NXr9utHMT2oS/3bBvEdPm03O0g7x8pmb42p70WgzeO2scnbMX6a+uZ3F2uNr/m7fDIJX6dojkXg3G9pu65rG03MDt9XMl+fPfcfXfX77ex57xeOzewEITextTtSzirUhkedMjAdOp5Fnx2f4VHjv+ppf/d3f5K3jp/nJH/txDoeETUYkMl9PpDcSXiDPtdF4aUa1eC0ecG99SEtcxkD3NvQUw0oP79W8P6d5t3WPulC95nKoS9SllNoSbLEjKOSUGd+E3/j93+bdm68zHRySU6bM8Sry6tVLOOgQWGp7l0q/+6t8w2byW6bNswmxcGtJc7PE5n2p7ROKvJ73cd1ONNvt6OLv/HtdTlaPwWqHs/6ti+iekbZ9fBOfuXin+xbpxP1sbYQuj/u7hdm5kCnrj/QROgrd9ZTHFkBrx5NNdPPs/K3jwkdp2SjEtxryAbyDbTTmrgmKZudyyIHDHPmBz77N21/4Ej/49pdJI7z9+S/yRnwDpgJj4eiJ5JE8ZY4xcbq+4Xh8xjiOkAPB0rq8nDMpDpR5XjpMhBAWo9EYI3lubcGGxGmesENtPp7JjMy8+MYLTj7zzjf+hF/7w9/ihonrOHM6Zkqozwutotgf0Ybh6dBnscvbp//+93cRuUMAPsEJWDw2Fz6Sr/Wab798ytsdAm8Xs/Tngc4f8a2NBOADCA5HT8ynme94/mlevXyfT6dPcSDx+X/1OY4MxBz5gS9+mX/7+S9gpV5RHg4HPvOZz3B1OOIlQq7FJQar6GNt/3Vzc8Nbb73F+69e8uLFC2JKlFL431/9Y4bjgVenV3z9L/+Cv/r7/8uJmfd4j4IxWuYlN0zRmVOmhNKWPLsg8BaJ0igmhBBC7AkJwAfhpGjM80y0VCvCJqdkJ9lAJBAtMZa55pBgpHDFqZwYGNo7zBwYGBn5vs+9zc3NDc+fP+drL/6Ua64ZGAhE5taxYmBgokbxBhLgZOZWR1yYmDnGKyZmcnQ8BWbLNeXdNx2NneYDqJ9fCCGE2BsSgA+gmONM1ZalRdMikRgjYLgb89SSqofWqzQGrk+nRXwdYyJPJw7pSM4TKR24vn7J1eEZMRo5O4UMBGI0zCKn6YY8O2kImDnzPJHSQEqR0+nEs2fPGPNcjWFCa3Hm1Orh4rXxuYfmBJfv3T4hhBBCfHuiCoCH4oEQIyEETqeJNESm1kQ8l5k41EgfNjNNE9EjV8da/ZtnJ0bHQsJLIQ7VTPjqjSOeS3ufVKuQ58I4n0jpwDBEUjLCEBjnkePVFePNRJ5n4iEylYmcS23G7t4q2Wrdmllc8uXLrcR5IYQQQuwBCcAHENzI1P6805QZ4sA0zYQQmKdCSlX8jdMNIQRSipgZ83iCDPEwMI4jIYSl6td9rt6DBmY16jdNExYDV8MVpRRKcYo5ZS4YgSnXKuEQBkKonUMOh6FWBpeW72dQZaBxaQUihBBCiH0hAfhAhnCglMJgA56dwRIll2oKTV3mTfHAECOlzJRcGMKAuxMtUl2nIiHVgo9qzAc55yb2AAwrxpwz2QsxRiLGOM+EeKSMmWBHDulAHifMqsfgfJrbMvHWobiwbQCsKjYhhBBif0gAPhDLTqyN2oghMM8zaagCby6lVfWW6qRfup9UYCoTPk4QIqUUcs5L9a9ZrQCOsT4G1NeaEWON8JVShWBxJ6VEyZlpmqqzV0hM4w3Hw6H1EW4mr67uB0IIIYSQAHwQ5mCe661Rl3UtUPIEQOjNPQzcq88fBtkzMfXeIL7pRrLY3vbuwOcG/L15MN1HOINlZiCEtWEIBWKEUsYzg5el3aUQQgghdo0E4AMpVrt3LM3OLYN/UHut814GD+3GYGTixsF/+e9lC4XNJ2vZVwghhNg3EoAPwA2ywdYpvoqru/qxVtUVmvpaZGBr5fXanvq9LyWsjcy5HeFbesM2UVrs/DmG+qEKIYQQe0MC8AGsUb/7u0TarXDbRYsue0A7JffWGrgvJ9f3d+Oi16zdavbRv3uU+BNCCCF2hwTgA1jy9j5QRJ2Lw3LWfB2CP8yIuVgE4iayF6q4s1K7fXAZ4at/XL+V1oOFEEKIvSEB+Algl9Ua9+BWl21bXe8n9vmFcJZP6IA1IRjL+qxagVyf0J+r5V8hhBBif0gAfgL4Jg/QLgTVXZW326KRh1Zk1ChfaaJvLSzpwi4QapVy/z7t86xXGQshhBBid0gAPpAPi6T5RhGei8EuyT48cngfvfjDcHBbhGXwj7awK1sYIYQQYp9IAD6QS+F3O6B3txRbX/fxl4J9UXCr7Uzw8wgglM3zNq9V7p8QQgixWyQAv8W5awX5rmikvP+EEEII0fn4649CCCGEEOJbEglAIYQQQoidIQEohBBCCLEzJACFEEIIIXaGBKAQQgghxM6QABRCCCGE2BkSgEIIIYQQO0MCUAghhBBiZ0gACiGEEELsDAlAIYQQQoidIQEohBBCCLEzJACFEEIIIXaGBKAQQgghxM6QABRCCCGE2BkSgEIIIYQQO0MCUAghhBBiZ0gACiGEEELsDAlAIYQQQoidIQEohBBCCLEzJACFEEIIIXaGBKAQQgghxM6QABRCCCGE2BkSgEIIIYQQO0MCUAghhBBiZ0gACiGEEELsDAlAIYQQQoidIQEohBBCCLEzJACFEEIIIXaGBKAQQgghxM6QABRCCCGE2BkSgEIIIYQQO0MCUAghhBBiZ0gACiGEEELsDAlAIYQQQoidIQEohBBCCLEzJACFEEIIIXaGBKAQQgghxM6QABRCCCGE2BkSgEIIIYQQO0MCUAghhBBiZ/wzy2MNeMuX38cAAAAASUVORK5CYII=;" vertex="1" parent="1">
          <mxGeometry x="67" y="35" width="256" height="100" as="geometry" />
        </mxCell>
        <mxCell id="bZYFK8MIfJOzmSP0UrmF-8" value="" style="html=1;rounded=0;shadow=0;labelBackgroundColor=none;strokeColor=#000000;strokeWidth=1;fillColor=none;fontFamily=Verdana;fontSize=12;fontColor=#000000;align=center;comic=1;whiteSpace=wrap;" vertex="1" parent="1">
          <mxGeometry x="240" y="230" width="590" height="390" as="geometry" />
        </mxCell>
        <mxCell id="bZYFK8MIfJOzmSP0UrmF-9" value="" style="shape=table;html=1;whiteSpace=wrap;startSize=0;container=1;collapsible=0;childLayout=tableLayout;strokeWidth=2;" vertex="1" parent="1">
          <mxGeometry x="270" y="260" width="530" height="300" as="geometry" />
        </mxCell>
        <mxCell id="bZYFK8MIfJOzmSP0UrmF-10" value="" style="shape=tableRow;horizontal=0;startSize=0;swimlaneHead=0;swimlaneBody=0;top=0;left=0;bottom=0;right=0;collapsible=0;dropTarget=0;fillColor=none;points=[[0,0.5],[1,0.5]];portConstraint=eastwest;" vertex="1" parent="bZYFK8MIfJOzmSP0UrmF-9">
          <mxGeometry width="530" height="33" as="geometry" />
        </mxCell>
        <mxCell id="bZYFK8MIfJOzmSP0UrmF-11" value="Reseña" style="shape=partialRectangle;html=1;whiteSpace=wrap;connectable=0;fillColor=none;top=0;left=0;bottom=0;right=0;overflow=hidden;fontStyle=1" vertex="1" parent="bZYFK8MIfJOzmSP0UrmF-10">
          <mxGeometry width="106" height="33" as="geometry">
            <mxRectangle width="106" height="33" as="alternateBounds" />
          </mxGeometry>
        </mxCell>
        <mxCell id="bZYFK8MIfJOzmSP0UrmF-12" value="Producto" style="shape=partialRectangle;html=1;whiteSpace=wrap;connectable=0;fillColor=none;top=0;left=0;bottom=0;right=0;overflow=hidden;fontStyle=1" vertex="1" parent="bZYFK8MIfJOzmSP0UrmF-10">
          <mxGeometry x="106" width="106" height="33" as="geometry">
            <mxRectangle width="106" height="33" as="alternateBounds" />
          </mxGeometry>
        </mxCell>
        <mxCell id="bZYFK8MIfJOzmSP0UrmF-19" value="Estrellas" style="shape=partialRectangle;html=1;whiteSpace=wrap;connectable=0;fillColor=none;top=0;left=0;bottom=0;right=0;overflow=hidden;fontStyle=1" vertex="1" parent="bZYFK8MIfJOzmSP0UrmF-10">
          <mxGeometry x="212" width="106" height="33" as="geometry">
            <mxRectangle width="106" height="33" as="alternateBounds" />
          </mxGeometry>
        </mxCell>
        <mxCell id="bZYFK8MIfJOzmSP0UrmF-22" value="Estimación" style="shape=partialRectangle;html=1;whiteSpace=wrap;connectable=0;fillColor=none;top=0;left=0;bottom=0;right=0;overflow=hidden;fontStyle=1" vertex="1" parent="bZYFK8MIfJOzmSP0UrmF-10">
          <mxGeometry x="318" width="106" height="33" as="geometry">
            <mxRectangle width="106" height="33" as="alternateBounds" />
          </mxGeometry>
        </mxCell>
        <mxCell id="bZYFK8MIfJOzmSP0UrmF-25" value="DIferencia" style="shape=partialRectangle;html=1;whiteSpace=wrap;connectable=0;fillColor=none;top=0;left=0;bottom=0;right=0;overflow=hidden;fontStyle=1" vertex="1" parent="bZYFK8MIfJOzmSP0UrmF-10">
          <mxGeometry x="424" width="106" height="33" as="geometry">
            <mxRectangle width="106" height="33" as="alternateBounds" />
          </mxGeometry>
        </mxCell>
        <mxCell id="bZYFK8MIfJOzmSP0UrmF-13" value="" style="shape=tableRow;horizontal=0;startSize=0;swimlaneHead=0;swimlaneBody=0;top=0;left=0;bottom=0;right=0;collapsible=0;dropTarget=0;fillColor=none;points=[[0,0.5],[1,0.5]];portConstraint=eastwest;" vertex="1" parent="bZYFK8MIfJOzmSP0UrmF-9">
          <mxGeometry y="33" width="530" height="33" as="geometry" />
        </mxCell>
        <mxCell id="bZYFK8MIfJOzmSP0UrmF-14" value="Reseña1" style="shape=partialRectangle;html=1;whiteSpace=wrap;connectable=0;fillColor=none;top=0;left=0;bottom=0;right=0;overflow=hidden;" vertex="1" parent="bZYFK8MIfJOzmSP0UrmF-13">
          <mxGeometry width="106" height="33" as="geometry">
            <mxRectangle width="106" height="33" as="alternateBounds" />
          </mxGeometry>
        </mxCell>
        <mxCell id="bZYFK8MIfJOzmSP0UrmF-15" value="Producto1" style="shape=partialRectangle;html=1;whiteSpace=wrap;connectable=0;fillColor=none;top=0;left=0;bottom=0;right=0;overflow=hidden;" vertex="1" parent="bZYFK8MIfJOzmSP0UrmF-13">
          <mxGeometry x="106" width="106" height="33" as="geometry">
            <mxRectangle width="106" height="33" as="alternateBounds" />
          </mxGeometry>
        </mxCell>
        <mxCell id="bZYFK8MIfJOzmSP0UrmF-20" value="1" style="shape=partialRectangle;html=1;whiteSpace=wrap;connectable=0;fillColor=none;top=0;left=0;bottom=0;right=0;overflow=hidden;" vertex="1" parent="bZYFK8MIfJOzmSP0UrmF-13">
          <mxGeometry x="212" width="106" height="33" as="geometry">
            <mxRectangle width="106" height="33" as="alternateBounds" />
          </mxGeometry>
        </mxCell>
        <mxCell id="bZYFK8MIfJOzmSP0UrmF-23" value="2" style="shape=partialRectangle;html=1;whiteSpace=wrap;connectable=0;fillColor=none;top=0;left=0;bottom=0;right=0;overflow=hidden;" vertex="1" parent="bZYFK8MIfJOzmSP0UrmF-13">
          <mxGeometry x="318" width="106" height="33" as="geometry">
            <mxRectangle width="106" height="33" as="alternateBounds" />
          </mxGeometry>
        </mxCell>
        <mxCell id="bZYFK8MIfJOzmSP0UrmF-26" style="shape=partialRectangle;html=1;whiteSpace=wrap;connectable=0;fillColor=none;top=0;left=0;bottom=0;right=0;overflow=hidden;" vertex="1" parent="bZYFK8MIfJOzmSP0UrmF-13">
          <mxGeometry x="424" width="106" height="33" as="geometry">
            <mxRectangle width="106" height="33" as="alternateBounds" />
          </mxGeometry>
        </mxCell>
        <mxCell id="bZYFK8MIfJOzmSP0UrmF-16" value="" style="shape=tableRow;horizontal=0;startSize=0;swimlaneHead=0;swimlaneBody=0;top=0;left=0;bottom=0;right=0;collapsible=0;dropTarget=0;fillColor=none;points=[[0,0.5],[1,0.5]];portConstraint=eastwest;" vertex="1" parent="bZYFK8MIfJOzmSP0UrmF-9">
          <mxGeometry y="66" width="530" height="33" as="geometry" />
        </mxCell>
        <mxCell id="bZYFK8MIfJOzmSP0UrmF-17" value="Reseña2" style="shape=partialRectangle;html=1;whiteSpace=wrap;connectable=0;fillColor=none;top=0;left=0;bottom=0;right=0;overflow=hidden;" vertex="1" parent="bZYFK8MIfJOzmSP0UrmF-16">
          <mxGeometry width="106" height="33" as="geometry">
            <mxRectangle width="106" height="33" as="alternateBounds" />
          </mxGeometry>
        </mxCell>
        <mxCell id="bZYFK8MIfJOzmSP0UrmF-18" value="Producto2" style="shape=partialRectangle;html=1;whiteSpace=wrap;connectable=0;fillColor=none;top=0;left=0;bottom=0;right=0;overflow=hidden;" vertex="1" parent="bZYFK8MIfJOzmSP0UrmF-16">
          <mxGeometry x="106" width="106" height="33" as="geometry">
            <mxRectangle width="106" height="33" as="alternateBounds" />
          </mxGeometry>
        </mxCell>
        <mxCell id="bZYFK8MIfJOzmSP0UrmF-21" value="2" style="shape=partialRectangle;html=1;whiteSpace=wrap;connectable=0;fillColor=none;top=0;left=0;bottom=0;right=0;overflow=hidden;" vertex="1" parent="bZYFK8MIfJOzmSP0UrmF-16">
          <mxGeometry x="212" width="106" height="33" as="geometry">
            <mxRectangle width="106" height="33" as="alternateBounds" />
          </mxGeometry>
        </mxCell>
        <mxCell id="bZYFK8MIfJOzmSP0UrmF-24" value="2" style="shape=partialRectangle;html=1;whiteSpace=wrap;connectable=0;fillColor=none;top=0;left=0;bottom=0;right=0;overflow=hidden;" vertex="1" parent="bZYFK8MIfJOzmSP0UrmF-16">
          <mxGeometry x="318" width="106" height="33" as="geometry">
            <mxRectangle width="106" height="33" as="alternateBounds" />
          </mxGeometry>
        </mxCell>
        <mxCell id="bZYFK8MIfJOzmSP0UrmF-27" style="shape=partialRectangle;html=1;whiteSpace=wrap;connectable=0;fillColor=none;top=0;left=0;bottom=0;right=0;overflow=hidden;" vertex="1" parent="bZYFK8MIfJOzmSP0UrmF-16">
          <mxGeometry x="424" width="106" height="33" as="geometry">
            <mxRectangle width="106" height="33" as="alternateBounds" />
          </mxGeometry>
        </mxCell>
        <mxCell id="bZYFK8MIfJOzmSP0UrmF-28" style="shape=tableRow;horizontal=0;startSize=0;swimlaneHead=0;swimlaneBody=0;top=0;left=0;bottom=0;right=0;collapsible=0;dropTarget=0;fillColor=none;points=[[0,0.5],[1,0.5]];portConstraint=eastwest;" vertex="1" parent="bZYFK8MIfJOzmSP0UrmF-9">
          <mxGeometry y="99" width="530" height="34" as="geometry" />
        </mxCell>
        <mxCell id="bZYFK8MIfJOzmSP0UrmF-29" value="Reseña3" style="shape=partialRectangle;html=1;whiteSpace=wrap;connectable=0;fillColor=none;top=0;left=0;bottom=0;right=0;overflow=hidden;" vertex="1" parent="bZYFK8MIfJOzmSP0UrmF-28">
          <mxGeometry width="106" height="34" as="geometry">
            <mxRectangle width="106" height="34" as="alternateBounds" />
          </mxGeometry>
        </mxCell>
        <mxCell id="bZYFK8MIfJOzmSP0UrmF-30" value="Producto3" style="shape=partialRectangle;html=1;whiteSpace=wrap;connectable=0;fillColor=none;top=0;left=0;bottom=0;right=0;overflow=hidden;" vertex="1" parent="bZYFK8MIfJOzmSP0UrmF-28">
          <mxGeometry x="106" width="106" height="34" as="geometry">
            <mxRectangle width="106" height="34" as="alternateBounds" />
          </mxGeometry>
        </mxCell>
        <mxCell id="bZYFK8MIfJOzmSP0UrmF-31" value="2" style="shape=partialRectangle;html=1;whiteSpace=wrap;connectable=0;fillColor=none;top=0;left=0;bottom=0;right=0;overflow=hidden;" vertex="1" parent="bZYFK8MIfJOzmSP0UrmF-28">
          <mxGeometry x="212" width="106" height="34" as="geometry">
            <mxRectangle width="106" height="34" as="alternateBounds" />
          </mxGeometry>
        </mxCell>
        <mxCell id="bZYFK8MIfJOzmSP0UrmF-32" value="3" style="shape=partialRectangle;html=1;whiteSpace=wrap;connectable=0;fillColor=none;top=0;left=0;bottom=0;right=0;overflow=hidden;" vertex="1" parent="bZYFK8MIfJOzmSP0UrmF-28">
          <mxGeometry x="318" width="106" height="34" as="geometry">
            <mxRectangle width="106" height="34" as="alternateBounds" />
          </mxGeometry>
        </mxCell>
        <mxCell id="bZYFK8MIfJOzmSP0UrmF-33" style="shape=partialRectangle;html=1;whiteSpace=wrap;connectable=0;fillColor=none;top=0;left=0;bottom=0;right=0;overflow=hidden;" vertex="1" parent="bZYFK8MIfJOzmSP0UrmF-28">
          <mxGeometry x="424" width="106" height="34" as="geometry">
            <mxRectangle width="106" height="34" as="alternateBounds" />
          </mxGeometry>
        </mxCell>
        <mxCell id="bZYFK8MIfJOzmSP0UrmF-34" style="shape=tableRow;horizontal=0;startSize=0;swimlaneHead=0;swimlaneBody=0;top=0;left=0;bottom=0;right=0;collapsible=0;dropTarget=0;fillColor=none;points=[[0,0.5],[1,0.5]];portConstraint=eastwest;" vertex="1" parent="bZYFK8MIfJOzmSP0UrmF-9">
          <mxGeometry y="133" width="530" height="33" as="geometry" />
        </mxCell>
        <mxCell id="bZYFK8MIfJOzmSP0UrmF-35" style="shape=partialRectangle;html=1;whiteSpace=wrap;connectable=0;fillColor=none;top=0;left=0;bottom=0;right=0;overflow=hidden;" vertex="1" parent="bZYFK8MIfJOzmSP0UrmF-34">
          <mxGeometry width="106" height="33" as="geometry">
            <mxRectangle width="106" height="33" as="alternateBounds" />
          </mxGeometry>
        </mxCell>
        <mxCell id="bZYFK8MIfJOzmSP0UrmF-36" style="shape=partialRectangle;html=1;whiteSpace=wrap;connectable=0;fillColor=none;top=0;left=0;bottom=0;right=0;overflow=hidden;" vertex="1" parent="bZYFK8MIfJOzmSP0UrmF-34">
          <mxGeometry x="106" width="106" height="33" as="geometry">
            <mxRectangle width="106" height="33" as="alternateBounds" />
          </mxGeometry>
        </mxCell>
        <mxCell id="bZYFK8MIfJOzmSP0UrmF-37" style="shape=partialRectangle;html=1;whiteSpace=wrap;connectable=0;fillColor=none;top=0;left=0;bottom=0;right=0;overflow=hidden;" vertex="1" parent="bZYFK8MIfJOzmSP0UrmF-34">
          <mxGeometry x="212" width="106" height="33" as="geometry">
            <mxRectangle width="106" height="33" as="alternateBounds" />
          </mxGeometry>
        </mxCell>
        <mxCell id="bZYFK8MIfJOzmSP0UrmF-38" style="shape=partialRectangle;html=1;whiteSpace=wrap;connectable=0;fillColor=none;top=0;left=0;bottom=0;right=0;overflow=hidden;" vertex="1" parent="bZYFK8MIfJOzmSP0UrmF-34">
          <mxGeometry x="318" width="106" height="33" as="geometry">
            <mxRectangle width="106" height="33" as="alternateBounds" />
          </mxGeometry>
        </mxCell>
        <mxCell id="bZYFK8MIfJOzmSP0UrmF-39" style="shape=partialRectangle;html=1;whiteSpace=wrap;connectable=0;fillColor=none;top=0;left=0;bottom=0;right=0;overflow=hidden;" vertex="1" parent="bZYFK8MIfJOzmSP0UrmF-34">
          <mxGeometry x="424" width="106" height="33" as="geometry">
            <mxRectangle width="106" height="33" as="alternateBounds" />
          </mxGeometry>
        </mxCell>
        <mxCell id="bZYFK8MIfJOzmSP0UrmF-40" style="shape=tableRow;horizontal=0;startSize=0;swimlaneHead=0;swimlaneBody=0;top=0;left=0;bottom=0;right=0;collapsible=0;dropTarget=0;fillColor=none;points=[[0,0.5],[1,0.5]];portConstraint=eastwest;" vertex="1" parent="bZYFK8MIfJOzmSP0UrmF-9">
          <mxGeometry y="166" width="530" height="34" as="geometry" />
        </mxCell>
        <mxCell id="bZYFK8MIfJOzmSP0UrmF-41" style="shape=partialRectangle;html=1;whiteSpace=wrap;connectable=0;fillColor=none;top=0;left=0;bottom=0;right=0;overflow=hidden;" vertex="1" parent="bZYFK8MIfJOzmSP0UrmF-40">
          <mxGeometry width="106" height="34" as="geometry">
            <mxRectangle width="106" height="34" as="alternateBounds" />
          </mxGeometry>
        </mxCell>
        <mxCell id="bZYFK8MIfJOzmSP0UrmF-42" style="shape=partialRectangle;html=1;whiteSpace=wrap;connectable=0;fillColor=none;top=0;left=0;bottom=0;right=0;overflow=hidden;" vertex="1" parent="bZYFK8MIfJOzmSP0UrmF-40">
          <mxGeometry x="106" width="106" height="34" as="geometry">
            <mxRectangle width="106" height="34" as="alternateBounds" />
          </mxGeometry>
        </mxCell>
        <mxCell id="bZYFK8MIfJOzmSP0UrmF-43" style="shape=partialRectangle;html=1;whiteSpace=wrap;connectable=0;fillColor=none;top=0;left=0;bottom=0;right=0;overflow=hidden;" vertex="1" parent="bZYFK8MIfJOzmSP0UrmF-40">
          <mxGeometry x="212" width="106" height="34" as="geometry">
            <mxRectangle width="106" height="34" as="alternateBounds" />
          </mxGeometry>
        </mxCell>
        <mxCell id="bZYFK8MIfJOzmSP0UrmF-44" style="shape=partialRectangle;html=1;whiteSpace=wrap;connectable=0;fillColor=none;top=0;left=0;bottom=0;right=0;overflow=hidden;" vertex="1" parent="bZYFK8MIfJOzmSP0UrmF-40">
          <mxGeometry x="318" width="106" height="34" as="geometry">
            <mxRectangle width="106" height="34" as="alternateBounds" />
          </mxGeometry>
        </mxCell>
        <mxCell id="bZYFK8MIfJOzmSP0UrmF-45" style="shape=partialRectangle;html=1;whiteSpace=wrap;connectable=0;fillColor=none;top=0;left=0;bottom=0;right=0;overflow=hidden;" vertex="1" parent="bZYFK8MIfJOzmSP0UrmF-40">
          <mxGeometry x="424" width="106" height="34" as="geometry">
            <mxRectangle width="106" height="34" as="alternateBounds" />
          </mxGeometry>
        </mxCell>
        <mxCell id="bZYFK8MIfJOzmSP0UrmF-46" style="shape=tableRow;horizontal=0;startSize=0;swimlaneHead=0;swimlaneBody=0;top=0;left=0;bottom=0;right=0;collapsible=0;dropTarget=0;fillColor=none;points=[[0,0.5],[1,0.5]];portConstraint=eastwest;" vertex="1" parent="bZYFK8MIfJOzmSP0UrmF-9">
          <mxGeometry y="200" width="530" height="33" as="geometry" />
        </mxCell>
        <mxCell id="bZYFK8MIfJOzmSP0UrmF-47" style="shape=partialRectangle;html=1;whiteSpace=wrap;connectable=0;fillColor=none;top=0;left=0;bottom=0;right=0;overflow=hidden;" vertex="1" parent="bZYFK8MIfJOzmSP0UrmF-46">
          <mxGeometry width="106" height="33" as="geometry">
            <mxRectangle width="106" height="33" as="alternateBounds" />
          </mxGeometry>
        </mxCell>
        <mxCell id="bZYFK8MIfJOzmSP0UrmF-48" style="shape=partialRectangle;html=1;whiteSpace=wrap;connectable=0;fillColor=none;top=0;left=0;bottom=0;right=0;overflow=hidden;" vertex="1" parent="bZYFK8MIfJOzmSP0UrmF-46">
          <mxGeometry x="106" width="106" height="33" as="geometry">
            <mxRectangle width="106" height="33" as="alternateBounds" />
          </mxGeometry>
        </mxCell>
        <mxCell id="bZYFK8MIfJOzmSP0UrmF-49" style="shape=partialRectangle;html=1;whiteSpace=wrap;connectable=0;fillColor=none;top=0;left=0;bottom=0;right=0;overflow=hidden;" vertex="1" parent="bZYFK8MIfJOzmSP0UrmF-46">
          <mxGeometry x="212" width="106" height="33" as="geometry">
            <mxRectangle width="106" height="33" as="alternateBounds" />
          </mxGeometry>
        </mxCell>
        <mxCell id="bZYFK8MIfJOzmSP0UrmF-50" style="shape=partialRectangle;html=1;whiteSpace=wrap;connectable=0;fillColor=none;top=0;left=0;bottom=0;right=0;overflow=hidden;" vertex="1" parent="bZYFK8MIfJOzmSP0UrmF-46">
          <mxGeometry x="318" width="106" height="33" as="geometry">
            <mxRectangle width="106" height="33" as="alternateBounds" />
          </mxGeometry>
        </mxCell>
        <mxCell id="bZYFK8MIfJOzmSP0UrmF-51" style="shape=partialRectangle;html=1;whiteSpace=wrap;connectable=0;fillColor=none;top=0;left=0;bottom=0;right=0;overflow=hidden;" vertex="1" parent="bZYFK8MIfJOzmSP0UrmF-46">
          <mxGeometry x="424" width="106" height="33" as="geometry">
            <mxRectangle width="106" height="33" as="alternateBounds" />
          </mxGeometry>
        </mxCell>
        <mxCell id="bZYFK8MIfJOzmSP0UrmF-52" style="shape=tableRow;horizontal=0;startSize=0;swimlaneHead=0;swimlaneBody=0;top=0;left=0;bottom=0;right=0;collapsible=0;dropTarget=0;fillColor=none;points=[[0,0.5],[1,0.5]];portConstraint=eastwest;" vertex="1" parent="bZYFK8MIfJOzmSP0UrmF-9">
          <mxGeometry y="233" width="530" height="34" as="geometry" />
        </mxCell>
        <mxCell id="bZYFK8MIfJOzmSP0UrmF-53" style="shape=partialRectangle;html=1;whiteSpace=wrap;connectable=0;fillColor=none;top=0;left=0;bottom=0;right=0;overflow=hidden;" vertex="1" parent="bZYFK8MIfJOzmSP0UrmF-52">
          <mxGeometry width="106" height="34" as="geometry">
            <mxRectangle width="106" height="34" as="alternateBounds" />
          </mxGeometry>
        </mxCell>
        <mxCell id="bZYFK8MIfJOzmSP0UrmF-54" style="shape=partialRectangle;html=1;whiteSpace=wrap;connectable=0;fillColor=none;top=0;left=0;bottom=0;right=0;overflow=hidden;" vertex="1" parent="bZYFK8MIfJOzmSP0UrmF-52">
          <mxGeometry x="106" width="106" height="34" as="geometry">
            <mxRectangle width="106" height="34" as="alternateBounds" />
          </mxGeometry>
        </mxCell>
        <mxCell id="bZYFK8MIfJOzmSP0UrmF-55" style="shape=partialRectangle;html=1;whiteSpace=wrap;connectable=0;fillColor=none;top=0;left=0;bottom=0;right=0;overflow=hidden;" vertex="1" parent="bZYFK8MIfJOzmSP0UrmF-52">
          <mxGeometry x="212" width="106" height="34" as="geometry">
            <mxRectangle width="106" height="34" as="alternateBounds" />
          </mxGeometry>
        </mxCell>
        <mxCell id="bZYFK8MIfJOzmSP0UrmF-56" style="shape=partialRectangle;html=1;whiteSpace=wrap;connectable=0;fillColor=none;top=0;left=0;bottom=0;right=0;overflow=hidden;" vertex="1" parent="bZYFK8MIfJOzmSP0UrmF-52">
          <mxGeometry x="318" width="106" height="34" as="geometry">
            <mxRectangle width="106" height="34" as="alternateBounds" />
          </mxGeometry>
        </mxCell>
        <mxCell id="bZYFK8MIfJOzmSP0UrmF-57" style="shape=partialRectangle;html=1;whiteSpace=wrap;connectable=0;fillColor=none;top=0;left=0;bottom=0;right=0;overflow=hidden;" vertex="1" parent="bZYFK8MIfJOzmSP0UrmF-52">
          <mxGeometry x="424" width="106" height="34" as="geometry">
            <mxRectangle width="106" height="34" as="alternateBounds" />
          </mxGeometry>
        </mxCell>
        <mxCell id="bZYFK8MIfJOzmSP0UrmF-58" style="shape=tableRow;horizontal=0;startSize=0;swimlaneHead=0;swimlaneBody=0;top=0;left=0;bottom=0;right=0;collapsible=0;dropTarget=0;fillColor=none;points=[[0,0.5],[1,0.5]];portConstraint=eastwest;" vertex="1" parent="bZYFK8MIfJOzmSP0UrmF-9">
          <mxGeometry y="267" width="530" height="33" as="geometry" />
        </mxCell>
        <mxCell id="bZYFK8MIfJOzmSP0UrmF-59" style="shape=partialRectangle;html=1;whiteSpace=wrap;connectable=0;fillColor=none;top=0;left=0;bottom=0;right=0;overflow=hidden;" vertex="1" parent="bZYFK8MIfJOzmSP0UrmF-58">
          <mxGeometry width="106" height="33" as="geometry">
            <mxRectangle width="106" height="33" as="alternateBounds" />
          </mxGeometry>
        </mxCell>
        <mxCell id="bZYFK8MIfJOzmSP0UrmF-60" style="shape=partialRectangle;html=1;whiteSpace=wrap;connectable=0;fillColor=none;top=0;left=0;bottom=0;right=0;overflow=hidden;" vertex="1" parent="bZYFK8MIfJOzmSP0UrmF-58">
          <mxGeometry x="106" width="106" height="33" as="geometry">
            <mxRectangle width="106" height="33" as="alternateBounds" />
          </mxGeometry>
        </mxCell>
        <mxCell id="bZYFK8MIfJOzmSP0UrmF-61" style="shape=partialRectangle;html=1;whiteSpace=wrap;connectable=0;fillColor=none;top=0;left=0;bottom=0;right=0;overflow=hidden;" vertex="1" parent="bZYFK8MIfJOzmSP0UrmF-58">
          <mxGeometry x="212" width="106" height="33" as="geometry">
            <mxRectangle width="106" height="33" as="alternateBounds" />
          </mxGeometry>
        </mxCell>
        <mxCell id="bZYFK8MIfJOzmSP0UrmF-62" style="shape=partialRectangle;html=1;whiteSpace=wrap;connectable=0;fillColor=none;top=0;left=0;bottom=0;right=0;overflow=hidden;" vertex="1" parent="bZYFK8MIfJOzmSP0UrmF-58">
          <mxGeometry x="318" width="106" height="33" as="geometry">
            <mxRectangle width="106" height="33" as="alternateBounds" />
          </mxGeometry>
        </mxCell>
        <mxCell id="bZYFK8MIfJOzmSP0UrmF-63" style="shape=partialRectangle;html=1;whiteSpace=wrap;connectable=0;fillColor=none;top=0;left=0;bottom=0;right=0;overflow=hidden;" vertex="1" parent="bZYFK8MIfJOzmSP0UrmF-58">
          <mxGeometry x="424" width="106" height="33" as="geometry">
            <mxRectangle width="106" height="33" as="alternateBounds" />
          </mxGeometry>
        </mxCell>
        <mxCell id="bZYFK8MIfJOzmSP0UrmF-65" value="Url conjunto de datos" style="text;html=1;points=[];align=left;verticalAlign=top;spacingTop=-4;fontSize=14;fontFamily=Verdana" vertex="1" parent="1">
          <mxGeometry x="861" y="679" width="170" height="20" as="geometry" />
        </mxCell>
        <mxCell id="bZYFK8MIfJOzmSP0UrmF-66" value="&lt;b&gt;Conjunto de datos&lt;/b&gt;:&amp;nbsp;" style="text;html=1;points=[];align=left;verticalAlign=top;spacingTop=-4;fontSize=14;fontFamily=Verdana" vertex="1" parent="1">
          <mxGeometry x="860" y="422" width="170" height="20" as="geometry" />
        </mxCell>
        <mxCell id="bZYFK8MIfJOzmSP0UrmF-67" value="Amazon Reviews" style="text;html=1;points=[];align=left;verticalAlign=top;spacingTop=-4;fontSize=14;fontFamily=Verdana" vertex="1" parent="1">
          <mxGeometry x="860" y="444" width="170" height="20" as="geometry" />
        </mxCell>
        <mxCell id="bZYFK8MIfJOzmSP0UrmF-68" value="Buscar usuario" style="strokeWidth=1;shadow=0;dashed=0;align=center;html=1;shape=mxgraph.mockup.forms.searchBox;strokeColor=#999999;mainText=;strokeColor2=#008cff;fontColor=#666666;fontSize=17;align=left;spacingLeft=3;sketch=1;curveFitting=1;jiggle=2;whiteSpace=wrap;sketchStyle=comic;" vertex="1" parent="1">
          <mxGeometry x="34" y="230" width="196" height="30" as="geometry" />
        </mxCell>
        <mxCell id="bZYFK8MIfJOzmSP0UrmF-69" value="&lt;b&gt;Origen:&lt;/b&gt;" style="text;html=1;points=[];align=left;verticalAlign=top;spacingTop=-4;fontSize=14;fontFamily=Verdana" vertex="1" parent="1">
          <mxGeometry x="862" y="468" width="170" height="20" as="geometry" />
        </mxCell>
        <mxCell id="bZYFK8MIfJOzmSP0UrmF-70" value="Hugging face" style="text;html=1;points=[];align=left;verticalAlign=top;spacingTop=-4;fontSize=14;fontFamily=Verdana" vertex="1" parent="1">
          <mxGeometry x="863" y="491" width="170" height="20" as="geometry" />
        </mxCell>
      </root>
    </mxGraphModel>
  </diagram>
</mxfile>
